<svg width="24" height="25" viewBox="0 0 24 25" fill="none" xmlns="http://www.w3.org/2000/svg">
<path d="M7 18.3301C6.7 18.3301 6.5 18.2301 6.3 18.0301C5.9 17.6301 5.9 17.0301 6.3 16.6301L16.3 6.63008C16.7 6.23008 17.3 6.23008 17.7 6.63008C18.1 7.03008 18.1 7.63008 17.7 8.03008L7.7 18.0301C7.5 18.2301 7.3 18.3301 7 18.3301Z" fill="#222222"/>
<path d="M17 17.3301C16.4 17.3301 16 16.9301 16 16.3301V8.33008H8C7.4 8.33008 7 7.93008 7 7.33008C7 6.73008 7.4 6.33008 8 6.33008H17C17.6 6.33008 18 6.73008 18 7.33008V16.3301C18 16.9301 17.6 17.3301 17 17.3301Z" fill="#222222"/>
</svg>
