<svg width="24" height="26" viewBox="0 0 24 26" fill="none" xmlns="http://www.w3.org/2000/svg">
<path d="M7.00537 19.6176C6.70537 19.6176 6.50537 19.5119 6.30537 19.3007C5.90537 18.8783 5.90537 18.2446 6.30537 17.8222L16.3054 7.26117C16.7054 6.83873 17.3054 6.83873 17.7054 7.26117C18.1054 7.68361 18.1054 8.31727 17.7054 8.73971L7.70537 19.3007C7.50537 19.5119 7.30537 19.6176 7.00537 19.6176Z" fill="white"/>
<path d="M17.0054 18.5615C16.4054 18.5615 16.0054 18.139 16.0054 17.5054V9.05654H8.00537C7.40537 9.05654 7.00537 8.6341 7.00537 8.00044C7.00537 7.36678 7.40537 6.94434 8.00537 6.94434H17.0054C17.6054 6.94434 18.0054 7.36678 18.0054 8.00044V17.5054C18.0054 18.139 17.6054 18.5615 17.0054 18.5615Z" fill="white"/>
</svg>
