<svg width="25" height="26" viewBox="0 0 25 26" fill="none" xmlns="http://www.w3.org/2000/svg">
<path d="M7.02344 19.538C6.72344 19.538 6.52344 19.4324 6.32344 19.2211C5.92344 18.7987 5.92344 18.165 6.32344 17.7426L16.3234 7.18158C16.7234 6.75914 17.3234 6.75914 17.7234 7.18158C18.1234 7.60402 18.1234 8.23768 17.7234 8.66012L7.72344 19.2211C7.52344 19.4324 7.32344 19.538 7.02344 19.538Z" fill="#FF9900"/>
<path d="M17.0234 18.4819C16.4234 18.4819 16.0234 18.0594 16.0234 17.4258V8.97695H8.02344C7.42344 8.97695 7.02344 8.55451 7.02344 7.92085C7.02344 7.28719 7.42344 6.86475 8.02344 6.86475H17.0234C17.6234 6.86475 18.0234 7.28719 18.0234 7.92085V17.4258C18.0234 18.0594 17.6234 18.4819 17.0234 18.4819Z" fill="#FF9900"/>
</svg>
