<svg width="41" height="41" viewBox="0 0 41 41" fill="none" xmlns="http://www.w3.org/2000/svg">
<path d="M32.931 11.0133C34.5977 12.8467 35.5977 14.8467 35.5977 18.18C35.5977 24.0133 31.431 29.18 25.5977 31.8467L24.0977 29.68C29.5977 26.68 30.7643 22.8467 31.0977 20.3467C30.2643 20.8467 29.0977 21.0133 27.931 20.8467C24.931 20.5133 22.5977 18.18 22.5977 15.0133C22.5977 13.5133 23.2643 12.0133 24.2643 10.8467C25.431 9.68001 26.7643 9.18001 28.431 9.18001C30.2643 9.18001 31.931 10.0133 32.931 11.0133ZM16.2643 11.0133C17.931 12.8467 18.931 14.8467 18.931 18.18C18.931 24.0133 14.7643 29.18 8.93099 31.8467L7.43099 29.68C12.931 26.68 14.0977 22.8467 14.431 20.3467C13.5977 20.8467 12.431 21.0133 11.2643 20.8467C8.26432 20.5133 5.93099 18.18 5.93099 15.0133C5.93099 13.5133 6.59766 12.0133 7.59766 10.8467C8.59766 9.68001 10.0977 9.18001 11.7643 9.18001C13.5977 9.18001 15.2643 10.0133 16.2643 11.0133Z" fill="#FF9900"/>
</svg>
