<svg width="170" height="41" viewBox="0 0 170 41" fill="none" xmlns="http://www.w3.org/2000/svg">
<path d="M51.3223 28.1981H63.2743V24.5981H55.5703V11.0381H51.3223V28.1981Z" fill="#222222"/>
<path d="M70.3547 25.7982C68.6507 25.7982 67.7627 24.3102 67.7627 22.0782C67.7627 19.8462 68.6507 18.3342 70.3547 18.3342C72.0587 18.3342 72.9707 19.8462 72.9707 22.0782C72.9707 24.3102 72.0587 25.7982 70.3547 25.7982ZM70.3787 28.5822C74.3387 28.5822 76.9307 25.7742 76.9307 22.0782C76.9307 18.3822 74.3387 15.5742 70.3787 15.5742C66.4427 15.5742 63.8027 18.3822 63.8027 22.0782C63.8027 25.7742 66.4427 28.5822 70.3787 28.5822Z" fill="#222222"/>
<path d="M83.7855 32.4458C85.6095 32.4458 87.2175 32.0378 88.2975 31.0778C89.2815 30.1898 89.9295 28.8458 89.9295 26.9978V15.9098H86.1855V17.2298H86.1375C85.4175 16.1978 84.3135 15.5498 82.6815 15.5498C79.6335 15.5498 77.5215 18.0938 77.5215 21.6938C77.5215 25.4618 80.0895 27.5258 82.8495 27.5258C84.3375 27.5258 85.2735 26.9258 85.9935 26.1098H86.0895V27.3338C86.0895 28.8218 85.3935 29.6858 83.7375 29.6858C82.4415 29.6858 81.7935 29.1338 81.5775 28.4858H77.7855C78.1695 31.0538 80.4015 32.4458 83.7855 32.4458ZM83.7615 24.6218C82.2975 24.6218 81.3375 23.4218 81.3375 21.5738C81.3375 19.7018 82.2975 18.5018 83.7615 18.5018C85.3935 18.5018 86.2575 19.8938 86.2575 21.5498C86.2575 23.2778 85.4655 24.6218 83.7615 24.6218Z" fill="#222222"/>
<path d="M97.6282 25.7982C95.9242 25.7982 95.0362 24.3102 95.0362 22.0782C95.0362 19.8462 95.9242 18.3342 97.6282 18.3342C99.3322 18.3342 100.244 19.8462 100.244 22.0782C100.244 24.3102 99.3322 25.7982 97.6282 25.7982ZM97.6522 28.5822C101.612 28.5822 104.204 25.7742 104.204 22.0782C104.204 18.3822 101.612 15.5742 97.6522 15.5742C93.7162 15.5742 91.0762 18.3822 91.0762 22.0782C91.0762 25.7742 93.7162 28.5822 97.6522 28.5822Z" fill="#222222"/>
<path d="M105.346 28.1981H109.258V15.9101H105.346V28.1981ZM105.346 14.2061H109.258V11.0381H105.346V14.2061Z" fill="#222222"/>
<path d="M110.956 32.2538H114.868V26.9258H114.916C115.684 27.9578 116.812 28.5818 118.396 28.5818C121.612 28.5818 123.748 26.0378 123.748 22.0538C123.748 18.3578 121.756 15.5498 118.492 15.5498C116.812 15.5498 115.612 16.2938 114.772 17.3978H114.7V15.9098H110.956V32.2538ZM117.388 25.5578C115.708 25.5578 114.748 24.1898 114.748 22.1978C114.748 20.2058 115.612 18.6938 117.316 18.6938C118.996 18.6938 119.788 20.0858 119.788 22.1978C119.788 24.2858 118.876 25.5578 117.388 25.5578Z" fill="#222222"/>
<path d="M130.117 28.5818C133.333 28.5818 135.709 27.1898 135.709 24.5018C135.709 21.3578 133.165 20.8058 131.005 20.4458C129.445 20.1578 128.053 20.0378 128.053 19.1738C128.053 18.4058 128.797 18.0458 129.757 18.0458C130.837 18.0458 131.581 18.3818 131.725 19.4858H135.325C135.133 17.0618 133.261 15.5498 129.781 15.5498C126.877 15.5498 124.477 16.8938 124.477 19.4858C124.477 22.3658 126.757 22.9418 128.893 23.3018C130.525 23.5898 132.013 23.7098 132.013 24.8138C132.013 25.6058 131.269 26.0378 130.093 26.0378C128.797 26.0378 127.981 25.4378 127.837 24.2138H124.141C124.261 26.9258 126.517 28.5818 130.117 28.5818Z" fill="#222222"/>
<path d="M141.023 28.5582C142.727 28.5582 143.807 27.8862 144.695 26.6862H144.767V28.1982H148.511V15.9102H144.599V22.7742C144.599 24.2382 143.783 25.2462 142.439 25.2462C141.191 25.2462 140.591 24.5022 140.591 23.1582V15.9102H136.703V23.9742C136.703 26.7102 138.191 28.5582 141.023 28.5582Z" fill="#222222"/>
<path d="M150.212 28.1978H154.124V21.3098C154.124 19.8458 154.844 18.8138 156.068 18.8138C157.244 18.8138 157.796 19.5818 157.796 20.9018V28.1978H161.708V21.3098C161.708 19.8458 162.404 18.8138 163.652 18.8138C164.828 18.8138 165.38 19.5818 165.38 20.9018V28.1978H169.292V20.2058C169.292 17.4458 167.9 15.5498 165.116 15.5498C163.532 15.5498 162.212 16.2218 161.252 17.7098H161.204C160.58 16.3898 159.356 15.5498 157.748 15.5498C155.972 15.5498 154.796 16.3898 154.028 17.6618H153.956V15.9098H150.212V28.1978Z" fill="#222222"/>
<path fill-rule="evenodd" clip-rule="evenodd" d="M20.1455 40.1982C31.1912 40.1982 40.1455 31.2439 40.1455 20.1982C40.1455 9.15255 31.1912 0.198242 20.1455 0.198242C9.0998 0.198242 0.145508 9.15255 0.145508 20.1982C0.145508 31.2439 9.0998 40.1982 20.1455 40.1982ZM26.3848 9.51508C26.6885 8.43629 25.6416 7.79837 24.6855 8.47954L11.3386 17.9878C10.3017 18.7265 10.4648 20.1982 11.5836 20.1982H15.0982V20.171H21.948L16.3667 22.1403L13.9062 30.8814C13.6025 31.9602 14.6493 32.5981 15.6055 31.9169L28.9524 22.4087C29.9893 21.67 29.8261 20.1982 28.7074 20.1982H23.3776L26.3848 9.51508Z" fill="#FF9900"/>
</svg>
