<svg width="167" height="41" viewBox="0 0 167 41" fill="none" xmlns="http://www.w3.org/2000/svg">
<path d="M48.8213 28.6981H60.7733V25.0981H53.0693V11.5381H48.8213V28.6981Z" fill="#222222"/>
<path d="M67.8547 26.2982C66.1507 26.2982 65.2627 24.8102 65.2627 22.5782C65.2627 20.3462 66.1507 18.8342 67.8547 18.8342C69.5587 18.8342 70.4707 20.3462 70.4707 22.5782C70.4707 24.8102 69.5587 26.2982 67.8547 26.2982ZM67.8787 29.0822C71.8387 29.0822 74.4307 26.2742 74.4307 22.5782C74.4307 18.8822 71.8387 16.0742 67.8787 16.0742C63.9427 16.0742 61.3027 18.8822 61.3027 22.5782C61.3027 26.2742 63.9427 29.0822 67.8787 29.0822Z" fill="#222222"/>
<path d="M81.2845 32.9458C83.1085 32.9458 84.7165 32.5378 85.7965 31.5778C86.7805 30.6898 87.4285 29.3458 87.4285 27.4978V16.4098H83.6845V17.7298H83.6365C82.9165 16.6978 81.8125 16.0498 80.1805 16.0498C77.1325 16.0498 75.0205 18.5938 75.0205 22.1938C75.0205 25.9618 77.5885 28.0258 80.3485 28.0258C81.8365 28.0258 82.7725 27.4258 83.4925 26.6098H83.5885V27.8338C83.5885 29.3218 82.8925 30.1858 81.2365 30.1858C79.9405 30.1858 79.2925 29.6338 79.0765 28.9858H75.2845C75.6685 31.5538 77.9005 32.9458 81.2845 32.9458ZM81.2605 25.1218C79.7965 25.1218 78.8365 23.9218 78.8365 22.0738C78.8365 20.2018 79.7965 19.0018 81.2605 19.0018C82.8925 19.0018 83.7565 20.3938 83.7565 22.0498C83.7565 23.7778 82.9645 25.1218 81.2605 25.1218Z" fill="#222222"/>
<path d="M95.1272 26.2982C93.4232 26.2982 92.5352 24.8102 92.5352 22.5782C92.5352 20.3462 93.4232 18.8342 95.1272 18.8342C96.8312 18.8342 97.7432 20.3462 97.7432 22.5782C97.7432 24.8102 96.8312 26.2982 95.1272 26.2982ZM95.1512 29.0822C99.1112 29.0822 101.703 26.2742 101.703 22.5782C101.703 18.8822 99.1112 16.0742 95.1512 16.0742C91.2152 16.0742 88.5752 18.8822 88.5752 22.5782C88.5752 26.2742 91.2152 29.0822 95.1512 29.0822Z" fill="#222222"/>
<path d="M102.846 28.6981H106.758V16.4101H102.846V28.6981ZM102.846 14.7061H106.758V11.5381H102.846V14.7061Z" fill="#222222"/>
<path d="M108.454 32.7538H112.366V27.4258H112.414C113.182 28.4578 114.31 29.0818 115.894 29.0818C119.11 29.0818 121.246 26.5378 121.246 22.5538C121.246 18.8578 119.254 16.0498 115.99 16.0498C114.31 16.0498 113.11 16.7938 112.27 17.8978H112.198V16.4098H108.454V32.7538ZM114.886 26.0578C113.206 26.0578 112.246 24.6898 112.246 22.6978C112.246 20.7058 113.11 19.1938 114.814 19.1938C116.494 19.1938 117.286 20.5858 117.286 22.6978C117.286 24.7858 116.374 26.0578 114.886 26.0578Z" fill="#222222"/>
<path d="M127.617 29.0818C130.833 29.0818 133.209 27.6898 133.209 25.0018C133.209 21.8578 130.665 21.3058 128.505 20.9458C126.945 20.6578 125.553 20.5378 125.553 19.6738C125.553 18.9058 126.297 18.5458 127.257 18.5458C128.337 18.5458 129.081 18.8818 129.225 19.9858H132.825C132.633 17.5618 130.761 16.0498 127.281 16.0498C124.377 16.0498 121.977 17.3938 121.977 19.9858C121.977 22.8658 124.257 23.4418 126.393 23.8018C128.025 24.0898 129.513 24.2098 129.513 25.3138C129.513 26.1058 128.769 26.5378 127.593 26.5378C126.297 26.5378 125.481 25.9378 125.337 24.7138H121.641C121.761 27.4258 124.017 29.0818 127.617 29.0818Z" fill="#222222"/>
<path d="M138.521 29.0582C140.225 29.0582 141.305 28.3862 142.193 27.1862H142.265V28.6982H146.009V16.4102H142.097V23.2742C142.097 24.7382 141.281 25.7462 139.937 25.7462C138.689 25.7462 138.089 25.0022 138.089 23.6582V16.4102H134.201V24.4742C134.201 27.2102 135.689 29.0582 138.521 29.0582Z" fill="#222222"/>
<path d="M147.712 28.6978H151.624V21.8098C151.624 20.3458 152.344 19.3138 153.568 19.3138C154.744 19.3138 155.296 20.0818 155.296 21.4018V28.6978H159.208V21.8098C159.208 20.3458 159.904 19.3138 161.152 19.3138C162.328 19.3138 162.88 20.0818 162.88 21.4018V28.6978H166.792V20.7058C166.792 17.9458 165.4 16.0498 162.616 16.0498C161.032 16.0498 159.712 16.7218 158.752 18.2098H158.704C158.08 16.8898 156.856 16.0498 155.248 16.0498C153.472 16.0498 152.296 16.8898 151.528 18.1618H151.456V16.4098H147.712V28.6978Z" fill="#222222"/>
<path fill-rule="evenodd" clip-rule="evenodd" d="M8.84472 3.79611C7.41406 4.79647 6.12036 5.97922 4.99731 7.31064C9.58661 6.88457 15.4172 7.58029 22.1864 10.9649C29.415 14.5791 35.2358 14.7013 39.2868 13.9199C38.9192 12.807 38.4564 11.7374 37.9083 10.7206C33.271 11.2097 27.326 10.5623 20.3976 7.09822C15.998 4.89842 12.1198 3.99225 8.84472 3.79611ZM35.1994 6.86489C31.5373 2.77324 26.2154 0.198242 20.292 0.198242C18.5525 0.198242 16.8647 0.420349 15.2557 0.837722C17.4349 1.43233 19.7499 2.30223 22.1864 3.52051C27.259 6.05677 31.6384 6.8734 35.1994 6.86489ZM40.1529 17.8263C35.2589 18.7927 28.5008 18.5942 20.3976 14.5426C12.822 10.7548 6.79242 10.8025 2.72589 11.7062C2.51599 11.7528 2.31103 11.8018 2.11102 11.8528C1.57861 13.0107 1.15363 14.2283 0.848694 15.4927C1.17438 15.4057 1.51092 15.323 1.85815 15.2458C6.79156 14.1495 13.7621 14.1971 22.1864 18.4093C29.7621 22.1971 35.7915 22.1494 39.8582 21.2457C39.9975 21.2148 40.1348 21.1828 40.2698 21.1498C40.2846 20.8345 40.292 20.5172 40.292 20.1982C40.292 19.3957 40.2448 18.6042 40.1529 17.8263ZM39.6168 25.3705C34.7703 26.2178 28.209 25.8926 20.3976 21.987C12.822 18.1992 6.79242 18.2469 2.72589 19.1506C1.82324 19.3511 1.01123 19.5954 0.294922 19.8533C0.292969 19.968 0.291992 20.083 0.291992 20.1982C0.291992 31.2439 9.24628 40.1982 20.292 40.1982C29.5491 40.1982 37.3373 33.9091 39.6168 25.3705Z" fill="#FF9900"/>
</svg>
