<svg width="168" height="41" viewBox="0 0 168 41" fill="none" xmlns="http://www.w3.org/2000/svg">
<path d="M49.752 28.2274H61.704V24.6274H54V11.0674H49.752V28.2274Z" fill="#222222"/>
<path d="M68.7854 25.8285C67.0814 25.8285 66.1934 24.3405 66.1934 22.1085C66.1934 19.8765 67.0814 18.3645 68.7854 18.3645C70.4894 18.3645 71.4014 19.8765 71.4014 22.1085C71.4014 24.3405 70.4894 25.8285 68.7854 25.8285ZM68.8094 28.6125C72.7694 28.6125 75.3614 25.8045 75.3614 22.1085C75.3614 18.4125 72.7694 15.6045 68.8094 15.6045C64.8734 15.6045 62.2334 18.4125 62.2334 22.1085C62.2334 25.8045 64.8734 28.6125 68.8094 28.6125Z" fill="#222222"/>
<path d="M82.2161 32.4751C84.0401 32.4751 85.6481 32.0671 86.7281 31.1071C87.7121 30.2191 88.3602 28.8751 88.3602 27.0271V15.9391H84.6161V17.2591H84.5682C83.8482 16.2271 82.7442 15.5791 81.1122 15.5791C78.0642 15.5791 75.9521 18.1231 75.9521 21.7231C75.9521 25.4911 78.5202 27.5551 81.2802 27.5551C82.7682 27.5551 83.7041 26.9551 84.4241 26.1391H84.5201V27.3631C84.5201 28.8511 83.8242 29.7151 82.1682 29.7151C80.8722 29.7151 80.2241 29.1631 80.0081 28.5151H76.2161C76.6001 31.0831 78.8321 32.4751 82.2161 32.4751ZM82.1922 24.6511C80.7282 24.6511 79.7682 23.4511 79.7682 21.6031C79.7682 19.7311 80.7282 18.5311 82.1922 18.5311C83.8242 18.5311 84.6881 19.9231 84.6881 21.5791C84.6881 23.3071 83.8962 24.6511 82.1922 24.6511Z" fill="#222222"/>
<path d="M96.0579 25.8285C94.3539 25.8285 93.4659 24.3405 93.4659 22.1085C93.4659 19.8765 94.3539 18.3645 96.0579 18.3645C97.7619 18.3645 98.6739 19.8765 98.6739 22.1085C98.6739 24.3405 97.7619 25.8285 96.0579 25.8285ZM96.0819 28.6125C100.042 28.6125 102.633 25.8045 102.633 22.1085C102.633 18.4125 100.042 15.6045 96.0819 15.6045C92.1459 15.6045 89.5059 18.4125 89.5059 22.1085C89.5059 25.8045 92.1459 28.6125 96.0819 28.6125Z" fill="#222222"/>
<path d="M103.776 28.2274H107.688V15.9394H103.776V28.2274ZM103.776 14.2354H107.688V11.0674H103.776V14.2354Z" fill="#222222"/>
<path d="M109.386 32.2831H113.298V26.9551H113.346C114.114 27.9871 115.242 28.6111 116.826 28.6111C120.042 28.6111 122.178 26.0671 122.178 22.0831C122.178 18.3871 120.186 15.5791 116.922 15.5791C115.242 15.5791 114.042 16.3231 113.202 17.4271H113.13V15.9391H109.386V32.2831ZM115.818 25.5871C114.138 25.5871 113.178 24.2191 113.178 22.2271C113.178 20.2351 114.042 18.7231 115.746 18.7231C117.426 18.7231 118.218 20.1151 118.218 22.2271C118.218 24.3151 117.306 25.5871 115.818 25.5871Z" fill="#222222"/>
<path d="M128.546 28.6111C131.762 28.6111 134.138 27.2191 134.138 24.5311C134.138 21.3871 131.594 20.8351 129.434 20.4751C127.874 20.1871 126.482 20.0671 126.482 19.2031C126.482 18.4351 127.226 18.0751 128.186 18.0751C129.266 18.0751 130.01 18.4111 130.154 19.5151H133.754C133.562 17.0911 131.69 15.5791 128.21 15.5791C125.306 15.5791 122.906 16.9231 122.906 19.5151C122.906 22.3951 125.186 22.9711 127.322 23.3311C128.954 23.6191 130.442 23.7391 130.442 24.8431C130.442 25.6351 129.698 26.0671 128.522 26.0671C127.226 26.0671 126.41 25.4671 126.266 24.2431H122.57C122.69 26.9551 124.946 28.6111 128.546 28.6111Z" fill="#222222"/>
<path d="M139.453 28.5884C141.157 28.5884 142.237 27.9164 143.125 26.7164H143.197V28.2284H146.941V15.9404H143.029V22.8044C143.029 24.2684 142.213 25.2764 140.869 25.2764C139.621 25.2764 139.021 24.5324 139.021 23.1884V15.9404H135.133V24.0044C135.133 26.7404 136.621 28.5884 139.453 28.5884Z" fill="#222222"/>
<path d="M148.643 28.2271H152.555V21.3391C152.555 19.8751 153.275 18.8431 154.499 18.8431C155.675 18.8431 156.227 19.6111 156.227 20.9311V28.2271H160.139V21.3391C160.139 19.8751 160.835 18.8431 162.083 18.8431C163.259 18.8431 163.811 19.6111 163.811 20.9311V28.2271H167.723V20.2351C167.723 17.4751 166.331 15.5791 163.547 15.5791C161.963 15.5791 160.643 16.2511 159.683 17.7391H159.635C159.011 16.4191 157.787 15.5791 156.179 15.5791C154.403 15.5791 153.227 16.4191 152.459 17.6911H152.387V15.9391H148.643V28.2271Z" fill="#222222"/>
<path d="M25.8845 1.2521L21.9515 0.198242L18.6371 12.5678L15.6448 1.40048L11.7117 2.45434L14.9447 14.5198L6.89207 6.46722L4.01288 9.34641L12.8456 18.1792L1.84585 15.2318L0.791992 19.1648L12.8106 22.3852C12.673 21.7917 12.6002 21.1733 12.6002 20.5379C12.6002 16.0403 16.2462 12.3943 20.7438 12.3943C25.2414 12.3943 28.8874 16.0403 28.8874 20.5379C28.8874 21.1692 28.8155 21.7838 28.6796 22.3738L39.6023 25.3005L40.6561 21.3675L28.5897 18.1343L39.5902 15.1867L38.5363 11.2537L26.4704 14.4867L34.523 6.43416L31.6438 3.55497L22.9336 12.2652L25.8845 1.2521Z" fill="#FF9900"/>
<path d="M28.6685 22.4199C28.3313 23.8455 27.6194 25.1262 26.6426 26.1523L34.5556 34.0654L37.4348 31.1862L28.6685 22.4199Z" fill="#FF9900"/>
<path d="M26.5627 26.2354C25.5741 27.2451 24.3248 27.9986 22.9238 28.3869L25.8032 39.1329L29.7362 38.079L26.5627 26.2354Z" fill="#FF9900"/>
<path d="M22.777 28.4257C22.127 28.5928 21.4457 28.6816 20.7436 28.6816C19.9914 28.6816 19.263 28.5796 18.5715 28.3887L15.6895 39.1445L19.6225 40.1983L22.777 28.4257Z" fill="#FF9900"/>
<path d="M18.4324 28.3493C17.0528 27.9417 15.8257 27.1786 14.8573 26.166L6.9248 34.0985L9.80399 36.9777L18.4324 28.3493Z" fill="#FF9900"/>
<path d="M14.7919 26.0954C13.8401 25.0764 13.1468 23.8128 12.8168 22.4092L1.8584 25.3455L2.91225 29.2785L14.7919 26.0954Z" fill="#FF9900"/>
</svg>
