<svg width="203" height="41" viewBox="0 0 203 41" fill="none" xmlns="http://www.w3.org/2000/svg">
<path fill-rule="evenodd" clip-rule="evenodd" d="M26.2139 11.8835C24.5694 10.7847 22.636 10.1982 20.6582 10.1982V0.198242C24.6138 0.198242 28.4806 1.37122 31.7696 3.56885C35.0586 5.76647 37.622 8.89005 39.1358 12.5445C40.6495 16.199 41.0456 20.2204 40.2739 24.1C39.5022 27.9796 37.5974 31.5433 34.8003 34.3403C32.0033 37.1374 28.4396 39.0422 24.56 39.8139C20.6804 40.5856 16.659 40.1895 13.0045 38.6758C9.35 37.162 6.22643 34.5986 4.02881 31.3096C1.83118 28.0206 0.658203 24.1538 0.658203 20.1982H10.6582C10.6582 22.176 11.2447 24.1094 12.3435 25.7539C13.4423 27.3984 15.0041 28.6801 16.8314 29.437C18.6586 30.1939 20.6693 30.3919 22.6091 30.006C24.5489 29.6202 26.3307 28.6678 27.7293 27.2693C29.1278 25.8707 30.0802 24.0889 30.466 22.1491C30.8519 20.2093 30.6539 18.1986 29.897 16.3714C29.1401 14.5441 27.8584 12.9823 26.2139 11.8835Z" fill="#FF9900"/>
<path fill-rule="evenodd" clip-rule="evenodd" d="M10.6582 0.198247C10.6582 1.51147 10.3995 2.81183 9.897 4.02509C9.39445 5.23834 8.65786 6.34073 7.72927 7.26932C6.80069 8.19791 5.6983 8.9345 4.48504 9.43705C3.27178 9.93959 1.97142 10.1982 0.658204 10.1982L0.658203 20.1982C3.28464 20.1982 5.88536 19.6809 8.31188 18.6758C10.7384 17.6707 12.9432 16.1975 14.8003 14.3403C16.6575 12.4832 18.1307 10.2784 19.1358 7.85192C20.1409 5.4254 20.6582 2.82468 20.6582 0.198242L10.6582 0.198247Z" fill="#FF9900"/>
<path d="M126.277 14.6514H121.425V30.0637H126.277V14.6514Z" fill="#222222"/>
<path d="M121.965 11.7648C122.472 12.2722 123.106 12.5259 123.867 12.5259C124.628 12.5259 125.252 12.2722 125.738 11.7648C126.225 11.2363 126.468 10.602 126.468 9.86209C126.468 9.10101 126.225 8.46673 125.738 7.95935C125.252 7.45193 124.628 7.19824 123.867 7.19824C123.106 7.19824 122.472 7.45193 121.965 7.95935C121.478 8.46673 121.235 9.10101 121.235 9.86209C121.235 10.602 121.478 11.2363 121.965 11.7648Z" fill="#222222"/>
<path d="M51.8145 30.0629V7.67383H56.7934V25.6866H66.7195V30.0629H51.8145Z" fill="#222222"/>
<path fill-rule="evenodd" clip-rule="evenodd" d="M75.6855 30.4118C74.0999 30.4118 72.6623 30.063 71.3726 29.3653C70.1041 28.6465 69.0999 27.674 68.3599 26.4477C67.62 25.2215 67.25 23.8473 67.25 22.3251C67.25 20.8029 67.62 19.4393 68.3599 18.2342C69.0999 17.0291 70.1041 16.0777 71.3726 15.3801C72.6411 14.6612 74.0788 14.3018 75.6855 14.3018C77.2923 14.3018 78.7299 14.6507 79.9984 15.3483C81.2669 16.046 82.2712 17.008 83.0111 18.2342C83.7511 19.4393 84.1211 20.8029 84.1211 22.3251C84.1211 23.8473 83.7511 25.2215 83.0111 26.4477C82.2712 27.674 81.2669 28.6465 79.9984 29.3653C78.7299 30.063 77.2923 30.4118 75.6855 30.4118ZM75.6855 26.0038C76.3832 26.0038 76.9963 25.8558 77.5249 25.5598C78.0534 25.2427 78.4551 24.8093 78.7299 24.2596C79.0259 23.6888 79.1739 23.0439 79.1739 22.3251C79.1739 21.6063 79.0259 20.9826 78.7299 20.4541C78.4339 19.9044 78.0217 19.4816 77.4931 19.1856C76.9857 18.8684 76.3832 18.7099 75.6855 18.7099C75.009 18.7099 74.4065 18.8684 73.8779 19.1856C73.3494 19.4816 72.9371 19.9044 72.6411 20.4541C72.3451 21.0038 72.1972 21.638 72.1972 22.3568C72.1972 23.0545 72.3451 23.6888 72.6411 24.2596C72.9371 24.8093 73.3494 25.2427 73.8779 25.5598C74.4065 25.8558 75.009 26.0038 75.6855 26.0038Z" fill="#222222"/>
<path fill-rule="evenodd" clip-rule="evenodd" d="M87.9638 36.0879C89.2534 36.6798 90.7439 36.9758 92.4353 36.9758C94.0843 36.9758 95.5537 36.6481 96.8433 35.9927C98.133 35.3373 99.1477 34.4283 99.8877 33.2655C100.628 32.1027 100.998 30.7285 100.998 29.1428V14.6502H96.2407V15.6857C95.8869 15.3879 95.4851 15.1379 95.0357 14.9356C94.2111 14.5339 93.2703 14.333 92.2133 14.333C90.7968 14.333 89.5388 14.6713 88.4395 15.3478C87.34 16.0032 86.4733 16.9123 85.839 18.0751C85.2047 19.2168 84.8877 20.5064 84.8877 21.9441C84.8877 23.3606 85.2047 24.6502 85.839 25.813C86.4733 26.9758 87.34 27.8955 88.4395 28.572C89.5388 29.2485 90.7968 29.5868 92.2133 29.5868C93.2492 29.5868 94.19 29.386 95.0357 28.9843C95.4453 28.7897 95.8153 28.5604 96.1456 28.2963V29.2697C96.1456 30.3479 95.7968 31.183 95.0991 31.775C94.4226 32.367 93.4818 32.6629 92.2767 32.6629C91.3042 32.6629 90.4691 32.4938 89.7714 32.1555C89.0949 31.8173 88.4817 31.3204 87.932 30.665L84.9511 33.646C85.691 34.7031 86.6953 35.5171 87.9638 36.0879ZM94.8771 24.8299C94.3908 25.1259 93.8095 25.2739 93.1329 25.2739C92.4564 25.2739 91.8644 25.1259 91.357 24.8299C90.8707 24.5339 90.4902 24.1322 90.2154 23.6248C89.9405 23.0963 89.8031 22.536 89.8031 21.9441C89.8031 21.3098 89.9405 20.739 90.2154 20.2316C90.4902 19.7242 90.8813 19.3225 91.3887 19.0265C91.8961 18.7305 92.4775 18.5825 93.1329 18.5825C93.8095 18.5825 94.3908 18.7305 94.8771 19.0265C95.3845 19.3225 95.765 19.7242 96.0188 20.2316C96.2936 20.739 96.431 21.3098 96.431 21.9441C96.431 22.5783 96.2936 23.1491 96.0188 23.6565C95.765 24.1428 95.3845 24.5339 94.8771 24.8299Z" fill="#222222"/>
<path fill-rule="evenodd" clip-rule="evenodd" d="M111.209 30.4118C109.623 30.4118 108.185 30.063 106.896 29.3653C105.627 28.6465 104.623 27.674 103.883 26.4477C103.143 25.2215 102.773 23.8473 102.773 22.3251C102.773 20.8029 103.143 19.4393 103.883 18.2342C104.623 17.0291 105.627 16.0777 106.896 15.3801C108.164 14.6612 109.602 14.3018 111.209 14.3018C112.815 14.3018 114.253 14.6507 115.521 15.3483C116.79 16.046 117.794 17.008 118.534 18.2342C119.274 19.4393 119.644 20.8029 119.644 22.3251C119.644 23.8473 119.274 25.2215 118.534 26.4477C117.794 27.674 116.79 28.6465 115.521 29.3653C114.253 30.063 112.815 30.4118 111.209 30.4118ZM111.209 26.0038C111.906 26.0038 112.519 25.8558 113.048 25.5598C113.576 25.2427 113.978 24.8093 114.253 24.2596C114.549 23.6888 114.697 23.0439 114.697 22.3251C114.697 21.6063 114.549 20.9826 114.253 20.4541C113.957 19.9044 113.545 19.4816 113.016 19.1856C112.509 18.8684 111.906 18.7099 111.209 18.7099C110.532 18.7099 109.929 18.8684 109.401 19.1856C108.872 19.4816 108.46 19.9044 108.164 20.4541C107.868 21.0038 107.72 21.638 107.72 22.3568C107.72 23.0545 107.868 23.6888 108.164 24.2596C108.46 24.8093 108.872 25.2427 109.401 25.5598C109.929 25.8558 110.532 26.0038 111.209 26.0038Z" fill="#222222"/>
<path fill-rule="evenodd" clip-rule="evenodd" d="M137.94 30.3796C136.905 30.3796 135.953 30.1788 135.086 29.7771C134.63 29.5657 134.218 29.3133 133.85 29.0199V36.5636H129.061V14.6502H133.913V15.7139C134.265 15.426 134.656 15.1771 135.086 14.9673C135.953 14.5444 136.905 14.333 137.94 14.333C139.399 14.333 140.689 14.6819 141.809 15.3796C142.951 16.0772 143.839 17.0286 144.473 18.2337C145.129 19.4388 145.456 20.813 145.456 22.3563C145.456 23.8997 145.129 25.2739 144.473 26.479C143.839 27.6841 142.951 28.6354 141.809 29.3331C140.689 30.0308 139.399 30.3796 137.94 30.3796ZM137.053 26.0033C137.75 26.0033 138.353 25.8447 138.86 25.5276C139.389 25.2105 139.801 24.777 140.097 24.2274C140.393 23.6777 140.541 23.054 140.541 22.3563C140.541 21.6375 140.393 21.0033 140.097 20.4536C139.801 19.9039 139.389 19.4811 138.86 19.1851C138.353 18.8679 137.761 18.7094 137.084 18.7094C136.408 18.7094 135.805 18.8679 135.277 19.1851C134.769 19.4811 134.368 19.9039 134.072 20.4536C133.776 21.0033 133.628 21.6375 133.628 22.3563C133.628 23.054 133.765 23.6777 134.04 24.2274C134.336 24.777 134.748 25.2105 135.277 25.5276C135.805 25.8447 136.397 26.0033 137.053 26.0033Z" fill="#222222"/>
<path d="M150.204 30.0941C151.092 30.3267 151.99 30.4429 152.899 30.4429C154.823 30.4429 156.345 29.999 157.466 29.111C158.607 28.2231 159.178 27.0286 159.178 25.5275C159.178 24.555 158.999 23.7727 158.639 23.1808C158.28 22.5677 157.815 22.0814 157.244 21.722C156.673 21.3626 156.07 21.0771 155.436 20.8657C154.802 20.6543 154.199 20.4746 153.629 20.3266C153.058 20.1786 152.593 20.0095 152.233 19.8192C151.874 19.6289 151.694 19.3752 151.694 19.0581C151.694 18.7621 151.832 18.5401 152.106 18.3921C152.381 18.223 152.793 18.1385 153.343 18.1385C153.914 18.1385 154.495 18.2547 155.087 18.4873C155.7 18.7198 156.25 19.1216 156.736 19.6924L159.495 16.9017C158.798 16.0137 157.889 15.3477 156.768 14.9038C155.669 14.4387 154.464 14.2061 153.153 14.2061C151.906 14.2061 150.817 14.4175 149.887 14.8403C148.956 15.2632 148.237 15.8446 147.73 16.5845C147.223 17.3033 146.969 18.1596 146.969 19.1533C146.969 20.0835 147.149 20.8552 147.508 21.4683C147.867 22.0602 148.333 22.5254 148.903 22.8636C149.474 23.2019 150.077 23.4662 150.711 23.6564C151.345 23.8467 151.948 24.0264 152.519 24.1956C153.089 24.3436 153.555 24.5233 153.914 24.7347C154.295 24.925 154.485 25.2104 154.485 25.5909C154.485 25.8869 154.326 26.1194 154.009 26.2886C153.713 26.4577 153.28 26.5423 152.709 26.5423C151.884 26.5423 151.123 26.3943 150.426 26.0983C149.728 25.7812 149.125 25.3478 148.618 24.7981L145.859 27.5888C146.388 28.1596 147.022 28.6671 147.762 29.111C148.523 29.5338 149.337 29.8615 150.204 30.0941Z" fill="#222222"/>
<path d="M168.026 30.4125C166.61 30.4125 165.352 30.1271 164.253 29.5563C163.174 28.9643 162.329 28.1609 161.716 27.1461C161.102 26.1102 160.796 24.9263 160.796 23.5943V14.6514H165.648V23.5309C165.648 24.0594 165.732 24.514 165.902 24.8945C166.092 25.2751 166.367 25.5711 166.726 25.7825C167.086 25.9939 167.519 26.0996 168.026 26.0996C168.745 26.0996 169.316 25.8776 169.739 25.4336C170.162 24.9685 170.373 24.3343 170.373 23.5309V14.6514H175.225V23.5626C175.225 24.9157 174.919 26.1102 174.305 27.1461C173.692 28.1609 172.847 28.9643 171.768 29.5563C170.69 30.1271 169.443 30.4125 168.026 30.4125Z" fill="#222222"/>
<path d="M182.489 14.6502H177.637V30.0625H182.489V21.0561C182.489 20.5276 182.595 20.0836 182.806 19.7242C183.039 19.3648 183.346 19.0899 183.726 18.8997C184.107 18.6882 184.54 18.5825 185.026 18.5825C185.724 18.5825 186.305 18.8045 186.77 19.2485C187.257 19.6713 187.5 20.2739 187.5 21.0561V30.0625H192.352V21.0561C192.352 20.5276 192.458 20.0836 192.669 19.7242C192.902 19.3648 193.208 19.0899 193.589 18.8997C193.969 18.6882 194.403 18.5825 194.889 18.5825C195.587 18.5825 196.168 18.8045 196.633 19.2485C197.119 19.6713 197.362 20.2739 197.362 21.0561V30.0625H202.215V20.517C202.215 19.2274 201.94 18.128 201.39 17.2189C200.861 16.2886 200.132 15.5804 199.202 15.0942C198.293 14.5867 197.246 14.333 196.062 14.333C194.857 14.333 193.768 14.5973 192.796 15.1259C192.164 15.4626 191.612 15.8972 191.139 16.4296C190.698 15.8727 190.162 15.417 189.529 15.0624C188.684 14.5762 187.722 14.333 186.644 14.333C185.502 14.333 184.477 14.5762 183.568 15.0624C183.172 15.2647 182.813 15.507 182.489 15.7893V14.6502Z" fill="#222222"/>
</svg>
