<svg width="168" height="41" viewBox="0 0 168 41" fill="none" xmlns="http://www.w3.org/2000/svg">
<path d="M49.1748 28.2274H61.1268V24.6274H53.4228V11.0674H49.1748V28.2274Z" fill="#222222"/>
<path d="M68.2082 25.8285C66.5042 25.8285 65.6162 24.3405 65.6162 22.1085C65.6162 19.8765 66.5042 18.3645 68.2082 18.3645C69.9122 18.3645 70.8242 19.8765 70.8242 22.1085C70.8242 24.3405 69.9122 25.8285 68.2082 25.8285ZM68.2323 28.6125C72.1923 28.6125 74.7843 25.8045 74.7843 22.1085C74.7843 18.4125 72.1923 15.6045 68.2323 15.6045C64.2963 15.6045 61.6562 18.4125 61.6562 22.1085C61.6562 25.8045 64.2963 28.6125 68.2323 28.6125Z" fill="#222222"/>
<path d="M81.639 32.4751C83.463 32.4751 85.071 32.0671 86.151 31.1071C87.135 30.2191 87.783 28.8751 87.783 27.0271V15.9391H84.039V17.2591H83.991C83.271 16.2271 82.167 15.5791 80.535 15.5791C77.487 15.5791 75.375 18.1231 75.375 21.7231C75.375 25.4911 77.943 27.5551 80.703 27.5551C82.191 27.5551 83.127 26.9551 83.847 26.1391H83.943V27.3631C83.943 28.8511 83.247 29.7151 81.591 29.7151C80.295 29.7151 79.647 29.1631 79.431 28.5151H75.639C76.023 31.0831 78.255 32.4751 81.639 32.4751ZM81.615 24.6511C80.151 24.6511 79.191 23.4511 79.191 21.6031C79.191 19.7311 80.151 18.5311 81.615 18.5311C83.247 18.5311 84.111 19.9231 84.111 21.5791C84.111 23.3071 83.319 24.6511 81.615 24.6511Z" fill="#222222"/>
<path d="M95.4807 25.8285C93.7767 25.8285 92.8887 24.3405 92.8887 22.1085C92.8887 19.8765 93.7767 18.3645 95.4807 18.3645C97.1847 18.3645 98.0967 19.8765 98.0967 22.1085C98.0967 24.3405 97.1847 25.8285 95.4807 25.8285ZM95.5047 28.6125C99.4647 28.6125 102.056 25.8045 102.056 22.1085C102.056 18.4125 99.4647 15.6045 95.5047 15.6045C91.5687 15.6045 88.9287 18.4125 88.9287 22.1085C88.9287 25.8045 91.5687 28.6125 95.5047 28.6125Z" fill="#222222"/>
<path d="M103.199 28.2274H107.111V15.9394H103.199V28.2274ZM103.199 14.2354H107.111V11.0674H103.199V14.2354Z" fill="#222222"/>
<path d="M108.809 32.2831H112.721V26.9551H112.769C113.537 27.9871 114.665 28.6111 116.249 28.6111C119.465 28.6111 121.601 26.0671 121.601 22.0831C121.601 18.3871 119.609 15.5791 116.345 15.5791C114.665 15.5791 113.465 16.3231 112.625 17.4271H112.553V15.9391H108.809V32.2831ZM115.241 25.5871C113.561 25.5871 112.601 24.2191 112.601 22.2271C112.601 20.2351 113.465 18.7231 115.169 18.7231C116.849 18.7231 117.641 20.1151 117.641 22.2271C117.641 24.3151 116.729 25.5871 115.241 25.5871Z" fill="#222222"/>
<path d="M127.969 28.6111C131.185 28.6111 133.561 27.2191 133.561 24.5311C133.561 21.3871 131.017 20.8351 128.857 20.4751C127.297 20.1871 125.905 20.0671 125.905 19.2031C125.905 18.4351 126.649 18.0751 127.609 18.0751C128.689 18.0751 129.433 18.4111 129.577 19.5151H133.177C132.985 17.0911 131.113 15.5791 127.633 15.5791C124.729 15.5791 122.329 16.9231 122.329 19.5151C122.329 22.3951 124.609 22.9711 126.745 23.3311C128.377 23.6191 129.865 23.7391 129.865 24.8431C129.865 25.6351 129.121 26.0671 127.945 26.0671C126.649 26.0671 125.833 25.4671 125.689 24.2431H121.993C122.113 26.9551 124.369 28.6111 127.969 28.6111Z" fill="#222222"/>
<path d="M138.876 28.5884C140.58 28.5884 141.66 27.9164 142.548 26.7164H142.62V28.2284H146.364V15.9404H142.452V22.8044C142.452 24.2684 141.636 25.2764 140.292 25.2764C139.044 25.2764 138.444 24.5324 138.444 23.1884V15.9404H134.556V24.0044C134.556 26.7404 136.044 28.5884 138.876 28.5884Z" fill="#222222"/>
<path d="M148.065 28.2271H151.977V21.3391C151.977 19.8751 152.697 18.8431 153.921 18.8431C155.097 18.8431 155.649 19.6111 155.649 20.9311V28.2271H159.561V21.3391C159.561 19.8751 160.257 18.8431 161.505 18.8431C162.681 18.8431 163.233 19.6111 163.233 20.9311V28.2271H167.145V20.2351C167.145 17.4751 165.753 15.5791 162.969 15.5791C161.385 15.5791 160.065 16.2511 159.105 17.7391H159.057C158.433 16.4191 157.209 15.5791 155.601 15.5791C153.825 15.5791 152.649 16.4191 151.881 17.6911H151.809V15.9391H148.065V28.2271Z" fill="#222222"/>
<path d="M25.3074 1.2521L21.3744 0.198242L18.06 12.5678L15.0677 1.40048L11.1346 2.45434L14.3676 14.5198L6.31492 6.46722L3.43573 9.34641L12.2685 18.1792L1.2687 15.2318L0.214844 19.1648L12.2335 22.3852C12.0959 21.7917 12.0231 21.1733 12.0231 20.5379C12.0231 16.0403 15.6691 12.3943 20.1667 12.3943C24.6643 12.3943 28.3103 16.0403 28.3103 20.5379C28.3103 21.1692 28.2384 21.7838 28.1025 22.3738L39.0252 25.3005L40.079 21.3675L28.0126 18.1343L39.0131 15.1867L37.9592 11.2537L25.8933 14.4867L33.9459 6.43416L31.0667 3.55497L22.3565 12.2652L25.3074 1.2521Z" fill="#FF9900"/>
<path d="M28.0913 22.4199C27.7541 23.8455 27.0422 25.1262 26.0654 26.1523L33.9784 34.0654L36.8576 31.1862L28.0913 22.4199Z" fill="#FF9900"/>
<path d="M25.9856 26.2354C24.997 27.2451 23.7477 27.9986 22.3467 28.3869L25.2261 39.1329L29.1591 38.079L25.9856 26.2354Z" fill="#FF9900"/>
<path d="M22.1998 28.4257C21.5498 28.5928 20.8685 28.6816 20.1664 28.6816C19.4142 28.6816 18.6858 28.5796 17.9943 28.3887L15.1123 39.1445L19.0453 40.1983L22.1998 28.4257Z" fill="#FF9900"/>
<path d="M17.8552 28.3493C16.4756 27.9417 15.2485 27.1786 14.2801 26.166L6.34766 34.0985L9.22685 36.9777L17.8552 28.3493Z" fill="#FF9900"/>
<path d="M14.2147 26.0954C13.2629 25.0764 12.5696 23.8128 12.2396 22.4092L1.28125 25.3455L2.3351 29.2785L14.2147 26.0954Z" fill="#FF9900"/>
</svg>
