<svg width="131" height="131" viewBox="0 0 131 131" fill="none" xmlns="http://www.w3.org/2000/svg">
<circle cx="65.1953" cy="65.9619" r="65" fill="#FF9900"/>
<path d="M56.1679 76.7951C55.6262 76.7951 55.2651 76.6145 54.904 76.2534C54.1817 75.5312 54.1817 74.4479 54.904 73.7256L72.9595 55.6701C73.6817 54.9479 74.7651 54.9479 75.4873 55.6701C76.2095 56.3923 76.2095 57.4756 75.4873 58.1979L57.4317 76.2534C57.0706 76.6145 56.7095 76.7951 56.1679 76.7951Z" fill="white"/>
<path d="M74.223 74.9895C73.1397 74.9895 72.4175 74.2673 72.4175 73.184V58.7395H57.973C56.8897 58.7395 56.1675 58.0173 56.1675 56.934C56.1675 55.8506 56.8897 55.1284 57.973 55.1284H74.223C75.3064 55.1284 76.0286 55.8506 76.0286 56.934V73.184C76.0286 74.2673 75.3064 74.9895 74.223 74.9895Z" fill="white"/>
<path d="M70.6403 21.7343C69.7416 21.6392 68.9926 21.3623 68.3932 20.9034C67.7943 20.4403 67.3593 19.839 67.0884 19.0993C66.8216 18.3601 66.7373 17.5265 66.8354 16.5987C66.9336 15.6709 67.1904 14.8734 67.606 14.2064C68.0257 13.5398 68.5766 13.0448 69.2587 12.7215C69.9413 12.394 70.7319 12.2778 71.6306 12.3728C72.6666 12.4824 73.5024 12.8338 74.1381 13.4269C74.7742 14.0159 75.1852 14.7641 75.3711 15.6715L73.8103 15.9292C73.6976 15.3241 73.4485 14.8349 73.063 14.4618C72.678 14.0845 72.1506 13.8604 71.4807 13.7895C70.8774 13.7257 70.3597 13.8077 69.9275 14.0354C69.4995 14.2636 69.1576 14.6124 68.9017 15.0818C68.6505 15.5475 68.4881 16.1088 68.4144 16.7657C68.3448 17.4231 68.384 18.0078 68.5317 18.5199C68.6841 19.0283 68.9478 19.439 69.3228 19.7522C69.6977 20.0653 70.1869 20.2538 70.7902 20.3176C71.46 20.3885 72.0227 20.2797 72.4781 19.9913C72.9336 19.7029 73.2795 19.2767 73.5158 18.7127L74.9881 19.2913C74.6165 20.1397 74.0579 20.7874 73.3122 21.2344C72.5669 21.6773 71.6763 21.8439 70.6403 21.7343Z" fill="white"/>
<path d="M79.0456 23.4746C78.3977 23.2754 77.8767 22.9555 77.4825 22.5148C77.0884 22.0741 76.836 21.5567 76.7254 20.9624C76.62 20.3654 76.67 19.7329 76.8753 19.0651C77.0842 18.3852 77.4034 17.8311 77.8327 17.4028C78.2619 16.9745 78.7628 16.6907 79.3352 16.5515C79.9076 16.4123 80.5118 16.4405 81.1476 16.6359C81.7995 16.8363 82.3225 17.1568 82.7167 17.5975C83.1109 18.0382 83.3626 18.5576 83.472 19.1559C83.5826 19.7502 83.5353 20.3812 83.33 21.0491C83.1235 21.7209 82.8049 22.273 82.3744 22.7053C81.9491 23.1349 81.4497 23.4213 80.876 23.5645C80.3036 23.7037 79.6935 23.6737 79.0456 23.4746ZM79.4623 22.1188C80.0382 22.2958 80.5251 22.2354 80.9231 21.9375C81.321 21.6397 81.6134 21.1868 81.8003 20.5789C81.9933 19.951 82.005 19.4075 81.8353 18.9483C81.6669 18.4851 81.2988 18.1662 80.7309 17.9916C80.343 17.8724 79.996 17.862 79.69 17.9606C79.3892 18.0563 79.1308 18.2417 78.915 18.5168C78.7003 18.7879 78.5303 19.1273 78.405 19.5353C78.212 20.1631 78.1997 20.7087 78.3681 21.1719C78.5417 21.6323 78.9064 21.948 79.4623 22.1188Z" fill="white"/>
<path d="M87.8142 27.0061L89.2956 24.0983C89.3925 23.9082 89.4868 23.6909 89.5784 23.4465C89.6701 23.2021 89.7216 22.9489 89.7329 22.687C89.7499 22.4233 89.6984 22.1741 89.5786 21.9393C89.4624 21.7064 89.2441 21.5083 88.9235 21.3449C88.752 21.2576 88.5681 21.1991 88.3719 21.1696C88.1756 21.14 87.9734 21.1591 87.7652 21.2267C87.5626 21.2926 87.3596 21.4239 87.156 21.6207C86.9543 21.8138 86.7595 22.0948 86.5714 22.4639L85.9456 21.7154C86.2077 21.2009 86.5439 20.7853 86.9542 20.4684C87.3682 20.1534 87.8318 19.9717 88.3448 19.9232C88.8598 19.8709 89.4006 19.9892 89.9672 20.2779C90.4146 20.5058 90.7456 20.7684 90.9604 21.0656C91.1753 21.3629 91.3095 21.6708 91.3633 21.9892C91.417 22.3077 91.4184 22.6184 91.3674 22.9211C91.3165 23.2238 91.2424 23.4983 91.1451 23.7446C91.0535 23.989 90.9706 24.1839 90.8965 24.3293L89.1786 27.7012L87.8142 27.0061ZM83.6259 24.8723L86.7027 18.833L87.905 19.4455L86.9506 21.3188L87.1127 21.4014L84.9903 25.5674L83.6259 24.8723Z" fill="white"/>
<path d="M93.5821 30.806C93.1662 30.6204 92.7845 30.4 92.4371 30.1448C92.0907 29.8953 91.8197 29.6141 91.6241 29.301C91.4309 28.9844 91.3536 28.6437 91.3921 28.2788C91.4312 27.9498 91.5341 27.6573 91.7008 27.4013C91.8675 27.1452 92.0602 26.8588 92.279 26.5421L95.6283 21.6935L96.8675 22.5495L93.5682 27.3259C93.4136 27.5496 93.2798 27.747 93.1667 27.9181C93.0571 28.0915 92.9981 28.2542 92.9898 28.4061C92.971 28.6982 93.0893 28.9503 93.3446 29.1623C93.5999 29.3742 93.9193 29.5744 94.3026 29.763L93.5821 30.806ZM92.872 23.5194L93.5461 22.5435L97.4343 25.2293L96.7602 26.2053L92.872 23.5194Z" fill="white"/>
<path d="M95.1814 32.475C94.8177 32.1473 94.5716 31.8017 94.443 31.4381C94.3172 31.0714 94.2926 30.7143 94.3693 30.3666C94.449 30.0218 94.6135 29.711 94.8627 29.4343C95.0811 29.1919 95.3176 29.0107 95.572 28.8907C95.8292 28.7677 96.1048 28.7118 96.3987 28.7231C96.6953 28.7314 97.0179 28.8108 97.3665 28.9615C97.6274 29.0782 97.9168 29.2319 98.2349 29.4227C98.556 29.6163 98.8948 29.8341 99.2511 30.0762C99.6132 30.318 99.9922 30.5693 100.388 30.83L99.7812 30.6973C100.098 30.3519 100.251 30.0255 100.241 29.7179C100.231 29.4103 100.038 29.0871 99.6616 28.7483C99.4347 28.5439 99.168 28.3993 98.8614 28.3146C98.5548 28.2299 98.2433 28.2788 97.9269 28.4612L97.1909 27.2154C97.6989 26.9015 98.2432 26.7723 98.8237 26.8279C99.4074 26.8864 99.9962 27.183 100.59 27.7178C101.038 28.121 101.365 28.5483 101.572 28.9996C101.783 29.4538 101.82 29.9213 101.685 30.4024C101.616 30.6608 101.507 30.8916 101.357 31.095C101.211 31.2952 101.039 31.5041 100.843 31.7217L98.0586 34.8132L97.0747 33.927L98.0576 32.8358L98.0612 33.16C97.5066 33.3193 97 33.3473 96.5413 33.2438C96.0886 33.1401 95.6353 32.8838 95.1814 32.475ZM96.2117 31.7813C96.4666 32.0109 96.7248 32.1618 96.9863 32.2341C97.2478 32.3063 97.4902 32.3248 97.7135 32.2894C97.9399 32.2569 98.1236 32.1999 98.2645 32.1185C98.4524 32.0287 98.632 31.8949 98.8035 31.7171C98.9808 31.539 99.1213 31.3924 99.2249 31.2774L99.4775 31.6908C99.0911 31.4384 98.7584 31.2232 98.4796 31.0452C98.2007 30.8672 97.9574 30.7185 97.7497 30.5989C97.5448 30.4763 97.3559 30.3766 97.1831 30.2997C97.0105 30.2287 96.8511 30.1837 96.705 30.1647C96.5588 30.1456 96.4245 30.1541 96.3019 30.1902C96.1825 30.229 96.0738 30.3028 95.9758 30.4116C95.8638 30.5359 95.7955 30.6743 95.7708 30.8267C95.749 30.9759 95.7719 31.1318 95.8397 31.2941C95.9105 31.4593 96.0345 31.6217 96.2117 31.7813Z" fill="white"/>
<path d="M100.916 38.4936C100.48 37.948 100.228 37.3858 100.161 36.8069C100.098 36.2253 100.195 35.6631 100.451 35.1201C100.711 34.5804 101.105 34.0959 101.635 33.6666C102.18 33.236 102.746 32.9579 103.331 32.8325C103.922 32.7077 104.493 32.7443 105.042 32.9422C105.595 33.1376 106.086 33.5032 106.514 34.039C106.995 34.6401 107.25 35.2697 107.278 35.9276C107.312 36.5863 107.119 37.1884 106.698 37.734L105.438 36.8127C105.649 36.4938 105.748 36.1655 105.735 35.8277C105.725 35.4873 105.612 35.1815 105.395 34.9103C105.149 34.6032 104.873 34.4088 104.567 34.3271C104.264 34.2429 103.947 34.2553 103.616 34.3644C103.286 34.4735 102.959 34.6575 102.635 34.9162C102.132 35.3187 101.815 35.7568 101.685 36.2305C101.555 36.7043 101.668 37.1633 102.024 37.6076C102.274 37.9212 102.544 38.1104 102.831 38.1751C103.121 38.243 103.439 38.2143 103.783 38.0888L104.478 39.51C103.808 39.7779 103.164 39.824 102.547 39.6482C101.933 39.4698 101.389 39.085 100.916 38.4936Z" fill="white"/>
<path d="M105.713 45.3711C105.409 45.0317 105.151 44.6745 104.938 44.2995C104.724 43.9303 104.592 43.5628 104.541 43.1971C104.494 42.8292 104.563 42.4866 104.747 42.1693C104.917 41.8851 105.131 41.6602 105.388 41.4947C105.645 41.3292 105.938 41.1466 106.267 40.947L111.305 37.8911L112.086 39.179L107.123 42.1893C106.89 42.3303 106.687 42.4557 106.514 42.5656C106.343 42.6791 106.223 42.8034 106.153 42.9387C106.017 43.1976 106.022 43.476 106.168 43.7738C106.314 44.0716 106.524 44.3849 106.797 44.7137L105.713 45.3711ZM108.043 38.4308L109.058 37.8157L111.508 41.8563L110.494 42.4714L108.043 38.4308Z" fill="white"/>
<path d="M107.505 49.0132L116.12 46.2847L116.582 47.7445L111.776 53.6643L117.848 51.7411L118.311 53.2009L109.695 55.9295L109.233 54.4696L114.04 48.5498L107.967 50.4731L107.505 49.0132Z" fill="white"/>
<path d="M110.308 61.3937C110.232 60.7203 110.317 60.1148 110.563 59.5773C110.809 59.0399 111.183 58.6017 111.683 58.2627C112.188 57.9275 112.788 57.7204 113.482 57.6416C114.189 57.5614 114.824 57.6324 115.389 57.8546C115.953 58.0769 116.413 58.4226 116.77 58.8916C117.126 59.3606 117.342 59.9256 117.417 60.5866C117.494 61.2642 117.409 61.8718 117.163 62.4093C116.916 62.9467 116.541 63.3852 116.036 63.7246C115.536 64.0635 114.938 64.2724 114.244 64.3512C113.546 64.4305 112.912 64.3593 112.344 64.1375C111.78 63.9194 111.318 63.576 110.957 63.1075C110.601 62.6384 110.385 62.0672 110.308 61.3937ZM111.717 61.2337C111.785 61.8324 112.035 62.2545 112.467 62.5002C112.9 62.7459 113.432 62.8329 114.064 62.7611C114.716 62.687 115.219 62.4804 115.572 62.1414C115.929 61.8019 116.075 61.3369 116.008 60.7466C115.962 60.3434 115.833 60.0212 115.62 59.7801C115.412 59.5426 115.139 59.3799 114.8 59.292C114.466 59.2037 114.087 59.1836 113.663 59.2317C113.01 59.3058 112.505 59.5126 112.148 59.8521C111.795 60.1954 111.652 60.6559 111.717 61.2337Z" fill="white"/>
<path d="M110.83 67.5308L117.778 66.0715L117.634 67.5456L113.184 68.478L117.397 70.2023L117.283 71.4712L112.833 72.4161L117.046 74.1279L116.915 75.6031L110.348 72.9379L110.453 71.7627L115.234 70.6457L110.725 68.706L110.83 67.5308Z" fill="white"/>
<path d="M112.553 82.6994L113.671 81.9617L114.375 83.2412L115.237 82.0444L116.282 82.8828L115.278 83.9587L116.696 84.395L116.221 85.6511L114.869 85.0387L114.911 86.5042L113.573 86.4406L113.717 84.9786L112.345 85.4657L111.996 84.1726L113.424 83.8744L112.553 82.6994Z" fill="white"/>
<path d="M102.144 92.4502C102.671 91.7155 103.281 91.2009 103.976 90.9061C104.674 90.6139 105.412 90.5325 106.189 90.662C106.964 90.7949 107.73 91.133 108.489 91.6764C109.247 92.2197 109.814 92.8368 110.189 93.5275C110.561 94.2215 110.72 94.945 110.664 95.6978C110.612 96.4531 110.323 97.198 109.797 97.9326C109.19 98.7795 108.472 99.3329 107.642 99.5929C106.816 99.8554 105.962 99.8435 105.081 99.5572L105.628 98.0726C106.21 98.2734 106.758 98.2982 107.273 98.1472C107.791 97.9986 108.246 97.6505 108.639 97.103C108.992 96.6098 109.176 96.1191 109.191 95.6308C109.204 95.1459 109.07 94.6764 108.788 94.2222C108.507 93.7738 108.099 93.3555 107.564 92.9671C107.027 92.5821 106.499 92.3275 105.981 92.2032C105.463 92.0848 104.976 92.1113 104.518 92.2828C104.061 92.4544 103.656 92.7867 103.302 93.2799C102.91 93.8274 102.727 94.3704 102.753 94.9089C102.779 95.4473 102.979 95.9585 103.353 96.4425L102.123 97.4373C101.568 96.6953 101.281 95.8897 101.26 95.0206C101.243 94.1539 101.537 93.2971 102.144 92.4502Z" fill="white"/>
<path d="M96.4782 98.9128C96.9705 98.4469 97.5054 98.1508 98.0831 98.0247C98.6607 97.8985 99.2353 97.9336 99.8071 98.1298C100.379 98.332 100.905 98.6868 101.385 99.1943C101.874 99.7109 102.199 100.261 102.36 100.846C102.522 101.43 102.522 102.006 102.362 102.573C102.201 103.14 101.879 103.652 101.396 104.109C100.901 104.578 100.364 104.875 99.7867 105.001C99.2091 105.128 98.633 105.091 98.0584 104.892C97.4867 104.695 96.9607 104.344 96.4804 103.836C95.9972 103.326 95.6735 102.777 95.5091 102.189C95.3446 101.607 95.3412 101.032 95.4989 100.462C95.6595 99.895 95.9859 99.3787 96.4782 98.9128ZM97.4532 99.9429C97.0156 100.357 96.8285 100.811 96.8919 101.304C96.9553 101.797 97.2055 102.274 97.6427 102.736C98.0942 103.213 98.5616 103.491 99.0448 103.569C99.5309 103.651 99.9897 103.487 100.421 103.079C100.716 102.8 100.896 102.503 100.961 102.188C101.025 101.879 100.991 101.563 100.858 101.24C100.728 100.919 100.516 100.604 100.223 100.294C99.771 99.8173 99.3022 99.538 98.8161 99.4566C98.3299 99.381 97.8755 99.5431 97.4532 99.9429Z" fill="white"/>
<path d="M89.086 104.821L90.8921 107.539C91.0102 107.717 91.1532 107.905 91.3212 108.105C91.4891 108.305 91.6844 108.474 91.907 108.613C92.1284 108.757 92.3708 108.834 92.6342 108.845C92.8941 108.858 93.1739 108.765 93.4736 108.566C93.6339 108.46 93.7751 108.328 93.8972 108.172C94.0192 108.015 94.1019 107.83 94.1452 107.615C94.1873 107.406 94.1725 107.165 94.101 106.891C94.0318 106.621 93.8826 106.313 93.6533 105.968L94.6127 105.79C94.9322 106.271 95.1293 106.768 95.204 107.281C95.2751 107.796 95.2059 108.289 94.9963 108.76C94.789 109.234 94.4206 109.647 93.8909 109.999C93.4727 110.277 93.0814 110.437 92.717 110.478C92.3526 110.519 92.0184 110.485 91.7146 110.376C91.4107 110.266 91.1394 110.115 90.9007 109.922C90.6619 109.729 90.4592 109.529 90.2924 109.324C90.1244 109.124 89.9953 108.956 89.905 108.82L87.8106 105.668L89.086 104.821ZM93.0011 102.219L96.7522 107.865L95.6284 108.611L94.4648 106.86L94.3133 106.961L91.7257 103.067L93.0011 102.219Z" fill="white"/>
<path d="M82.9424 107.981C83.3083 107.71 83.6877 107.486 84.0807 107.309C84.468 107.129 84.8461 107.031 85.2149 107.015C85.5855 107.002 85.9204 107.102 86.2194 107.315C86.4867 107.51 86.691 107.743 86.8322 108.014C86.9734 108.285 87.1282 108.594 87.2967 108.94L89.876 114.238L88.5217 114.898L85.9809 109.678C85.8619 109.434 85.7556 109.22 85.6621 109.038C85.5649 108.857 85.4521 108.726 85.3239 108.644C85.0786 108.484 84.8009 108.463 84.4909 108.582C84.1809 108.7 83.8497 108.88 83.4972 109.121L82.9424 107.981ZM89.6388 110.941L90.1579 112.007L85.9089 114.076L85.3898 113.009L89.6388 110.941Z" fill="white"/>
<path d="M80.7132 108.549C81.1774 108.394 81.5994 108.349 81.9792 108.416C82.3603 108.487 82.6834 108.642 82.9483 108.879C83.2093 109.118 83.3989 109.414 83.5172 109.768C83.6209 110.077 83.6623 110.372 83.6415 110.653C83.6221 110.937 83.5352 111.204 83.3807 111.455C83.2276 111.709 82.9997 111.951 82.6971 112.18C82.4671 112.35 82.1909 112.526 81.8683 112.709C81.5418 112.893 81.1855 113.081 80.7994 113.272C80.4107 113.469 80.0055 113.675 79.5838 113.891L79.9979 113.428C80.1427 113.874 80.3515 114.168 80.6243 114.31C80.897 114.453 81.2734 114.444 81.7535 114.283C82.0431 114.186 82.3002 114.025 82.5248 113.8C82.7494 113.574 82.8601 113.279 82.8569 112.914L84.3036 112.886C84.327 113.483 84.1716 114.02 83.8376 114.498C83.4996 114.978 82.9517 115.344 82.194 115.598C81.6227 115.79 81.0896 115.864 80.5947 115.823C80.0959 115.782 79.6702 115.585 79.3178 115.231C79.127 115.044 78.9798 114.835 78.8763 114.605C78.7741 114.379 78.6765 114.127 78.5835 113.849L77.262 109.904L78.5176 109.483L78.984 110.876L78.7 110.719C78.8342 110.158 79.0591 109.703 79.3748 109.355C79.6879 109.012 80.134 108.743 80.7132 108.549ZM80.8103 109.787C80.485 109.896 80.2265 110.047 80.0349 110.239C79.8434 110.431 79.7081 110.633 79.629 110.845C79.5459 111.058 79.5052 111.246 79.5068 111.409C79.4925 111.616 79.5206 111.839 79.5911 112.075C79.6589 112.317 79.7174 112.512 79.7666 112.659L79.2823 112.675C79.6922 112.463 80.0432 112.279 80.3354 112.124C80.6275 111.969 80.8767 111.83 81.0829 111.708C81.2905 111.59 81.4703 111.475 81.6222 111.362C81.7689 111.247 81.8865 111.13 81.975 111.012C82.0635 110.894 82.1222 110.773 82.1511 110.649C82.1761 110.526 82.1653 110.395 82.1188 110.256C82.0656 110.097 81.9788 109.97 81.8582 109.873C81.739 109.781 81.5921 109.724 81.4174 109.703C81.2388 109.684 81.0364 109.712 80.8103 109.787Z" fill="white"/>
<path d="M72.645 110.573C73.3349 110.463 73.9481 110.522 74.4844 110.75C75.0214 110.982 75.4626 111.344 75.808 111.835C76.1492 112.327 76.3757 112.909 76.4873 113.582C76.5927 114.269 76.5554 114.898 76.3754 115.469C76.1919 116.044 75.8784 116.522 75.4349 116.903C74.9921 117.287 74.4319 117.533 73.7543 117.641C72.9941 117.762 72.321 117.673 71.7349 117.372C71.1454 117.077 70.7173 116.611 70.4506 115.976L71.8737 115.336C72.0468 115.677 72.2834 115.925 72.5836 116.08C72.8845 116.24 73.2064 116.292 73.5493 116.238C73.9377 116.176 74.243 116.031 74.4653 115.805C74.6883 115.583 74.834 115.302 74.9024 114.96C74.9708 114.619 74.9723 114.244 74.907 113.835C74.8054 113.198 74.5808 112.707 74.233 112.36C73.8853 112.013 73.4305 111.884 72.8686 111.974C72.472 112.037 72.1745 112.178 71.9763 112.396C71.774 112.615 71.6423 112.905 71.5814 113.266L70.0024 113.169C70.1002 112.454 70.3779 111.871 70.8357 111.421C71.2941 110.975 71.8972 110.693 72.645 110.573Z" fill="white"/>
<path d="M64.2849 111.349C64.7299 111.252 65.168 111.204 65.5992 111.204C66.026 111.2 66.4109 111.267 66.7538 111.403C67.0969 111.544 67.361 111.773 67.5459 112.09C67.7091 112.378 67.7993 112.675 67.8164 112.98C67.8336 113.285 67.8477 113.63 67.8588 114.015L68.0288 119.905L66.5232 119.949L66.3558 114.146C66.348 113.874 66.339 113.636 66.3289 113.431C66.3146 113.226 66.2659 113.06 66.1827 112.933C66.0249 112.686 65.7804 112.553 65.4491 112.533C65.1179 112.514 64.742 112.541 64.3214 112.616L64.2849 111.349ZM69.1698 116.802L69.204 117.988L64.4803 118.124L64.4461 116.938L69.1698 116.802Z" fill="white"/>
<path d="M60.194 111.113L58.3291 119.955L56.8308 119.639L54.0432 112.542L52.7288 118.774L51.2304 118.458L53.0953 109.616L54.5936 109.932L57.3812 117.03L58.6956 110.797L60.194 111.113Z" fill="white"/>
<path d="M48.023 107.453C48.6467 107.718 49.1316 108.091 49.4779 108.57C49.8241 109.049 50.0213 109.59 50.0696 110.192C50.1124 110.797 49.997 111.421 49.7234 112.064C49.4449 112.718 49.0699 113.236 48.5984 113.618C48.127 113.999 47.5993 114.229 47.0156 114.308C46.4318 114.387 45.8338 114.297 45.2217 114.036C44.5942 113.769 44.1073 113.396 43.7611 112.917C43.4148 112.437 43.2184 111.895 43.1718 111.288C43.1235 110.686 43.2362 110.063 43.5098 109.42C43.785 108.773 44.1592 108.257 44.6323 107.872C45.0999 107.489 45.6264 107.256 46.2118 107.173C46.7956 107.094 47.3993 107.187 48.023 107.453ZM47.4677 108.758C46.9133 108.522 46.4227 108.532 45.996 108.786C45.5692 109.041 45.2313 109.461 44.9823 110.047C44.7251 110.651 44.657 111.19 44.778 111.665C44.8974 112.143 45.2304 112.498 45.7771 112.731C46.1505 112.89 46.4945 112.936 46.8091 112.87C47.1183 112.806 47.3945 112.648 47.6377 112.397C47.8794 112.15 48.0837 111.83 48.2508 111.437C48.508 110.833 48.5769 110.292 48.4576 109.813C48.3328 109.337 48.0028 108.986 47.4677 108.758Z" fill="white"/>
<path d="M42.4991 104.921L40.3389 111.683L39.128 110.83L40.5134 106.5L36.9346 109.313L35.8869 108.588L37.262 104.251L33.6934 107.07L32.4754 106.228L38.0348 101.832L39.0051 102.503L37.6166 107.213L41.5288 104.249L42.4991 104.921Z" fill="white"/>
<path d="M28.4447 98.9324L28.5373 100.269L27.0773 100.252L27.6955 101.591L26.4517 102.089L26.0087 100.685L24.9313 101.706L24.0714 100.674L25.2693 99.7984L23.9722 99.1148L24.6856 97.9809L25.8878 98.8252L26.1382 97.3909L27.436 97.7225L26.9935 99.1127L28.4447 98.9324Z" fill="white"/>
<path d="M25.0608 85.073C25.4422 85.8923 25.5906 86.6769 25.506 87.427C25.4176 88.1789 25.1262 88.8615 24.6317 89.4747C24.1355 90.0842 23.4645 90.5858 22.6187 90.9795C21.7728 91.3733 20.957 91.5639 20.1712 91.5513C19.3836 91.5349 18.6756 91.3176 18.0471 90.8995C17.4149 90.4831 16.908 89.8653 16.5266 89.046C16.0869 88.1016 15.9576 87.2042 16.1386 86.3538C16.3158 85.5052 16.7454 84.7676 17.4274 84.1409L18.4522 85.3459C17.9916 85.7542 17.7006 86.2197 17.5793 86.7422C17.4542 87.2666 17.5338 87.8341 17.8181 88.4448C18.0742 88.9948 18.4111 89.3963 18.8289 89.6495C19.245 89.8988 19.72 90.0122 20.2541 89.9897C20.7827 89.9652 21.3475 89.8153 21.9485 89.5401C22.5478 89.2611 23.0289 88.9264 23.3917 88.536C23.7489 88.1435 23.9652 87.7059 24.0405 87.2232C24.1157 86.7405 24.0253 86.2242 23.7693 85.6742C23.485 85.0636 23.1019 84.6373 22.6202 84.3955C22.1384 84.1537 21.5949 84.0767 20.9897 84.1646L20.7273 82.6046C21.6459 82.4862 22.4888 82.6314 23.2561 83.0403C24.0195 83.451 24.6211 84.1285 25.0608 85.073Z" fill="white"/>
<path d="M22.2239 76.962C22.3864 77.62 22.3801 78.2314 22.205 78.7961C22.0299 79.3608 21.716 79.8434 21.2633 80.244C20.8056 80.6415 20.2376 80.924 19.5592 81.0916C18.8687 81.2622 18.2294 81.2736 17.6413 81.1258C17.0532 80.978 16.5522 80.6945 16.1383 80.2753C15.7245 79.8561 15.4378 79.3235 15.2782 78.6777C15.1147 78.0156 15.1205 77.4022 15.2956 76.8375C15.4707 76.2728 15.7866 75.7897 16.2433 75.3881C16.696 74.9875 17.2615 74.7035 17.9398 74.5359C18.6222 74.3673 19.2595 74.3564 19.8517 74.5032C20.4388 74.6469 20.9414 74.9279 21.3593 75.3461C21.7731 75.7654 22.0613 76.304 22.2239 76.962ZM20.8469 77.3021C20.7024 76.7172 20.4001 76.3308 19.9399 76.1428C19.4798 75.9548 18.941 75.937 18.3236 76.0895C17.6859 76.2471 17.2138 76.5167 16.9073 76.8984C16.5967 77.2811 16.5127 77.7608 16.6552 78.3376C16.7525 78.7316 16.9221 79.0344 17.1641 79.2462C17.4009 79.4549 17.6928 79.581 18.0397 79.6246C18.3826 79.6692 18.7612 79.6403 19.1755 79.538C19.8132 79.3804 20.2873 79.1103 20.5979 78.7276C20.9034 78.3419 20.9864 77.8667 20.8469 77.3021Z" fill="white"/>
<path d="M20.738 67.6372L17.4826 67.8663C17.2698 67.8813 17.035 67.9125 16.7783 67.9599C16.5216 68.0073 16.2781 68.0937 16.0479 68.2189C15.8131 68.3403 15.6261 68.5129 15.4866 68.7366C15.3469 68.9561 15.2896 69.2454 15.3149 69.6043C15.3284 69.7963 15.3731 69.984 15.4489 70.1674C15.5247 70.3508 15.6453 70.5142 15.8106 70.6578C15.9714 70.7975 16.1886 70.9038 16.4622 70.9768C16.7315 71.0501 17.0728 71.0723 17.486 71.0432L17.1671 71.9653C16.5912 72.0058 16.0617 71.9319 15.5787 71.7436C15.0954 71.5512 14.7008 71.2476 14.3948 70.8329C14.0846 70.4186 13.9072 69.8942 13.8625 69.2598C13.8273 68.759 13.8817 68.3399 14.0257 68.0027C14.1697 67.6654 14.3644 67.3916 14.6096 67.1814C14.8549 66.9712 15.1203 66.81 15.406 66.6976C15.6917 66.5852 15.9651 66.5072 16.2263 66.4637C16.483 66.4163 16.6927 66.3868 16.8555 66.3754L20.6305 66.1097L20.738 67.6372ZM21.068 72.3262L14.3069 72.802L14.2121 71.456L16.3093 71.3084L16.2966 71.1269L20.9605 70.7987L21.068 72.3262Z" fill="white"/>
<path d="M21.0206 60.6479C21.0759 61.1 21.0837 61.5406 21.0441 61.9699C21.0088 62.3953 20.9075 62.7725 20.74 63.1015C20.5683 63.4302 20.3162 63.6722 19.9836 63.8272C19.6816 63.9633 19.3779 64.0259 19.0726 64.015C18.7672 64.0041 18.4225 63.9866 18.0383 63.9623L12.157 63.5912L12.2519 62.088L18.0455 62.4536C18.3169 62.4707 18.555 62.4836 18.7599 62.4924C18.965 62.4969 19.1348 62.4636 19.2693 62.3925C19.5293 62.2579 19.6843 62.0267 19.7343 61.6987C19.7844 61.3706 19.7914 60.9938 19.7554 60.5681L21.0206 60.6479ZM15.1424 65.0121L13.9586 64.9374L14.2562 60.2211L15.4399 60.2958L15.1424 65.0121Z" fill="white"/>
<path d="M21.621 58.4472C21.5279 58.9278 21.3587 59.3169 21.1135 59.6145C20.8641 59.9114 20.5708 60.1166 20.2334 60.2302C19.8968 60.3397 19.5457 60.359 19.1802 60.2881C18.8598 60.226 18.5826 60.1169 18.3487 59.9607C18.1106 59.8038 17.9207 59.5965 17.7788 59.3389C17.6329 59.0804 17.5346 58.7631 17.4839 58.3867C17.4495 58.103 17.4319 57.7757 17.4314 57.4049C17.4316 57.0299 17.4436 56.6273 17.4673 56.1972C17.4877 55.7622 17.5076 55.3079 17.5269 54.8344L17.7261 55.4227C17.2669 55.3295 16.9081 55.3665 16.6498 55.5337C16.3915 55.701 16.2142 56.0331 16.1179 56.5301C16.0597 56.83 16.0734 57.1331 16.1589 57.4395C16.2444 57.7458 16.4469 57.9875 16.7663 58.1645L16.0784 59.4375C15.5476 59.1641 15.1563 58.7644 14.9045 58.2383C14.6536 57.7081 14.6042 57.0507 14.7563 56.2662C14.8709 55.6747 15.0682 55.1738 15.348 54.7636C15.6286 54.3492 16.0098 54.0757 16.4915 53.9432C16.7487 53.8695 17.0029 53.8442 17.2541 53.8673C17.5013 53.8897 17.7686 53.9287 18.0561 53.9844L22.1409 54.7763L21.8889 56.0763L20.4472 55.7968L20.7231 55.6266C21.1455 56.0196 21.4307 56.4392 21.5786 56.8855C21.7231 57.327 21.7373 57.8475 21.621 58.4472ZM20.4954 57.9221C20.5607 57.5853 20.5569 57.2863 20.484 57.0249C20.4111 56.7636 20.3019 56.5464 20.1564 56.3733C20.0118 56.1961 19.8683 56.0682 19.7258 55.9894C19.552 55.8747 19.3448 55.7898 19.104 55.7346C18.86 55.6745 18.6619 55.6297 18.51 55.6003L18.7339 55.1706C18.7169 55.6319 18.7041 56.0279 18.6954 56.3586C18.6867 56.6893 18.6847 56.9745 18.6894 57.214C18.69 57.4528 18.7019 57.6661 18.7251 57.8538C18.7533 58.0383 18.7969 58.198 18.856 58.3331C18.915 58.4681 18.9916 58.5788 19.0856 58.6653C19.1805 58.7476 19.2998 58.8027 19.4436 58.8305C19.6078 58.8624 19.7616 58.8496 19.9049 58.7921C20.044 58.7339 20.1657 58.6339 20.2699 58.4921C20.3749 58.3462 20.4501 58.1563 20.4954 57.9221Z" fill="white"/>
<path d="M23.835 50.4151C23.591 51.0698 23.2377 51.5744 22.7752 51.9288C22.3087 52.2818 21.7766 52.4876 21.1788 52.5461C20.5825 52.6006 19.9641 52.5108 19.3236 52.2765C18.6743 52.03 18.1455 51.6878 17.7372 51.2498C17.3264 50.8065 17.0649 50.2982 16.9526 49.725C16.8364 49.1504 16.8981 48.5416 17.1378 47.8986C17.4067 47.1773 17.8162 46.6356 18.3664 46.2736C18.9141 45.9063 19.5301 45.763 20.2143 45.8439L20.0705 47.3978C19.6885 47.3804 19.3559 47.4641 19.0728 47.6487C18.7857 47.832 18.5815 48.0863 18.4602 48.4117C18.3229 48.7802 18.2978 49.1169 18.3851 49.4218C18.4684 49.7252 18.6418 49.9908 18.9052 50.2184C19.1687 50.4461 19.4944 50.6323 19.8825 50.7769C20.4863 51.002 21.0248 51.0487 21.498 50.917C21.9713 50.7853 22.3073 50.4529 22.506 49.9197C22.6463 49.5433 22.6704 49.2152 22.5783 48.9353C22.4876 48.6514 22.3 48.394 22.0156 48.1629L22.8782 46.8369C23.452 47.274 23.822 47.8026 23.9883 48.4227C24.1506 49.0414 24.0995 49.7055 23.835 50.4151Z" fill="white"/>
<path d="M27.2808 42.7678C27.1451 43.2025 26.9707 43.6073 26.7578 43.9822C26.5506 44.3553 26.3029 44.6573 26.0148 44.8882C25.723 45.1171 25.3936 45.2337 25.0267 45.2381C24.6954 45.2377 24.3929 45.1697 24.1191 45.034C23.8453 44.8984 23.5384 44.7404 23.1983 44.5601L17.9916 41.8002L18.697 40.4694L23.8261 43.1882C24.0664 43.3155 24.2781 43.4254 24.4612 43.5177C24.6462 43.6063 24.8147 43.6459 24.9665 43.6364C25.2588 43.6209 25.4953 43.474 25.676 43.1957C25.8567 42.9174 26.0183 42.5768 26.1607 42.1741L27.2808 42.7678ZM20.127 44.3243L19.079 43.7687L21.2923 39.5934L22.3403 40.1489L20.127 44.3243Z" fill="white"/>
<path d="M29.4919 39.3602L22.7236 33.3718L23.7383 32.225L31.2869 33.3062L26.5163 29.0852L27.5309 27.9384L34.2992 33.9267L33.2845 35.0736L25.7359 33.9924L30.5066 38.2133L29.4919 39.3602Z" fill="white"/>
<path d="M38.6706 30.5808C38.1329 30.9935 37.5703 31.2328 36.9827 31.2987C36.3952 31.3647 35.8272 31.2706 35.2787 31.0164C34.7311 30.7564 34.2445 30.3493 33.8191 29.795C33.3861 29.2308 33.1194 28.6496 33.019 28.0516C32.9186 27.4535 32.9775 26.8809 33.1957 26.3337C33.4139 25.7865 33.7868 25.3104 34.3145 24.9054C34.8555 24.4901 35.4198 24.2495 36.0074 24.1836C36.5949 24.1176 37.1642 24.2134 37.7152 24.4709C38.2636 24.725 38.7505 25.1292 39.1759 25.6835C39.6039 26.2411 39.8693 26.8206 39.9723 27.4219C40.076 28.0174 40.02 28.5904 39.8044 29.141C39.5862 29.6882 39.2082 30.1681 38.6706 30.5808ZM37.807 29.4556C38.2849 29.0888 38.5178 28.6569 38.5056 28.16C38.4933 27.6631 38.2936 27.1624 37.9064 26.6579C37.5065 26.1368 37.0702 25.8124 36.5977 25.6846C36.1226 25.5534 35.6494 25.6688 35.1781 26.0305C34.8562 26.2776 34.6467 26.5544 34.5497 26.8609C34.4534 27.1616 34.4549 27.4795 34.554 27.8148C34.6506 28.1468 34.8288 28.4821 35.0886 28.8206C35.4886 29.3417 35.9261 29.6678 36.4012 29.7989C36.8771 29.9242 37.3457 29.8097 37.807 29.4556Z" fill="white"/>
<path d="M43.5823 27.0165L38.752 21.814L40.0896 21.178L43.1813 24.5111L42.4886 20.0123L43.6345 19.4555L46.7375 22.7832L46.0335 18.2899L47.3657 17.6426L48.465 24.644L47.4038 25.1597L43.983 21.6376L44.6435 26.5008L43.5823 27.0165Z" fill="white"/>
<path d="M55.7235 17.7235L54.5159 17.1441L55.2513 15.8828L53.7814 15.7588L53.9629 14.4316L55.4023 14.7396L55.0468 13.2987L56.3685 13.0604L56.5387 14.5346L57.7736 13.7444L58.4074 14.9247L57.0795 15.5531L58.203 16.4792L57.2738 17.4439L56.2835 16.3726L55.7235 17.7235Z" fill="white"/>
</svg>
