<svg width="51" height="51" viewBox="0 0 51 51" fill="none" xmlns="http://www.w3.org/2000/svg">
<g clip-path="url(#clip0_88_18489)">
<path d="M22.23 12.2555C21.2896 12.2555 20.4979 12.9921 20.4438 13.9431V13.9433C20.4438 13.9438 20.4436 13.9442 20.4435 13.9448L20.1045 19.895C20.0848 20.2438 20.3513 20.5426 20.7 20.5626C21.0533 20.5844 21.3475 20.316 21.3675 19.9672L21.5057 17.5421H26.4883L27.0361 27.1467C27.0553 27.4832 27.334 27.7431 27.667 27.7431C27.6792 27.7431 27.6913 27.7428 27.7036 27.7421C28.0522 27.7221 28.3187 27.4234 28.299 27.0745C27.4584 12.2844 27.646 15.5862 27.5526 13.943C27.4999 13.0152 26.7302 12.2554 25.7665 12.2554L22.23 12.2555ZM21.5783 16.2772L21.7066 14.0167C21.7238 13.7255 21.9787 13.5215 22.2287 13.5207H25.7653C26.0442 13.5207 26.2735 13.7366 26.2873 14.017L26.4162 16.2772H21.5783Z" fill="#FF9900"/>
<path d="M41.2474 39.862H43.6756C44.4207 39.862 45.0268 39.2559 45.0268 38.5111V36.0829C45.0268 35.3377 44.4207 34.7317 43.6756 34.7317H41.2474C40.5025 34.7317 39.8965 35.3377 39.8965 36.0829V38.5111C39.8965 39.2559 40.5025 39.862 41.2474 39.862ZM41.1614 36.0828C41.1614 36.0353 41.2 35.9965 41.2474 35.9965H43.6756C43.723 35.9965 43.7618 36.0353 43.7618 36.0828V38.511C43.7618 38.5584 43.723 38.5969 43.6756 38.5969H41.2474C41.1999 38.5969 41.1614 38.5584 41.1614 38.511V36.0828Z" fill="white"/>
<path d="M33.3846 39.862H35.8128C36.5579 39.862 37.164 39.2559 37.164 38.5111V36.0829C37.164 35.3377 36.5579 34.7317 35.8128 34.7317H33.3846C32.6397 34.7317 32.0337 35.3377 32.0337 36.0829V38.5111C32.0337 39.2559 32.6397 39.862 33.3846 39.862ZM33.2986 36.0828C33.2986 36.0353 33.3372 35.9965 33.3846 35.9965H35.8128C35.8603 35.9965 35.899 36.0353 35.899 36.0828V38.511C35.899 38.5584 35.8603 38.5969 35.8128 38.5969H33.3846C33.3371 38.5969 33.2986 38.5584 33.2986 38.511V36.0828Z" fill="white"/>
<path d="M27.9501 34.7317H25.5221C24.777 34.7317 24.1709 35.3377 24.1709 36.0829V38.5111C24.1709 39.2559 24.777 39.862 25.5221 39.862H27.9501C28.6952 39.862 29.3013 39.2559 29.3013 38.5111V36.0829C29.3013 35.3376 28.6952 34.7317 27.9501 34.7317ZM28.0363 38.5111C28.0363 38.5585 27.9976 38.597 27.9501 38.597H25.5221C25.4746 38.597 25.4358 38.5584 25.4358 38.5111V36.0829C25.4358 36.0354 25.4746 35.9966 25.5221 35.9966H27.9501C27.9976 35.9966 28.0363 36.0354 28.0363 36.0829V38.5111Z" fill="white"/>
<path d="M23.4367 23.9862C23.4367 22.7959 22.4683 21.8275 21.278 21.8275H7.48164C6.29131 21.8275 5.32295 22.796 5.32295 23.9862V46.7243H4.15381C3.18066 46.7243 2.38916 47.5158 2.38916 48.4887C2.38916 49.4619 3.18076 50.2534 4.15381 50.2534L47.7188 50.2531C48.6917 50.2531 49.4833 49.4616 49.4833 48.4886C49.4833 47.5158 48.6918 46.7242 47.7188 46.7242H47.0254V29.2993C47.0254 28.9791 46.8705 28.676 46.6113 28.488C46.3521 28.3002 46.0149 28.2483 45.7118 28.3474L39.1625 30.4939V29.2993C39.1625 28.9791 39.0078 28.676 38.7487 28.4883C38.4891 28.3003 38.1526 28.2476 37.8489 28.3474L31.2996 30.4937V29.2993C31.2996 28.9791 31.1449 28.676 30.8858 28.4883C30.6262 28.3003 30.2897 28.2476 29.986 28.3474L23.4367 30.494V23.9862ZM6.58779 23.9862C6.58779 23.4933 6.98877 23.0924 7.48164 23.0924H21.278C21.7709 23.0924 22.1719 23.4933 22.1719 23.9862V46.7243H18.4107V42.921C18.4107 41.8265 17.5204 40.9362 16.426 40.9362H12.3338C11.2394 40.9362 10.349 41.8265 10.349 42.921V46.7243H6.58779V23.9862ZM17.1458 46.7243H11.6139V42.921C11.6139 42.524 11.9367 42.201 12.3338 42.201H16.426C16.8229 42.201 17.1459 42.5239 17.1459 42.921V46.7243H17.1458ZM48.2185 48.4887C48.2185 48.7642 47.9943 48.9883 47.7189 48.9883L4.15391 48.9885C3.87842 48.9885 3.6541 48.7642 3.6541 48.4887C3.6541 48.2133 3.87842 47.9892 4.15391 47.9892H47.7189C47.9943 47.9892 48.2185 48.2133 48.2185 48.4887ZM45.7605 29.6627V46.7243H39.1625V31.8249L45.7605 29.6627ZM37.8976 29.6627V46.7243H31.2995V31.8249L37.8976 29.6627ZM23.4369 31.8249L30.0347 29.6627V46.7243H23.4369V31.8249Z" fill="#FF9900"/>
<path d="M9.94209 28.1183H18.8182C19.8556 28.1183 20.6994 27.2744 20.6994 26.2371C20.6994 25.1997 19.8555 24.3558 18.8182 24.3558H9.94209C8.90498 24.3558 8.06104 25.1998 8.06104 26.2371C8.06104 27.2744 8.90488 28.1183 9.94209 28.1183ZM9.94209 25.6207H18.8182C19.1581 25.6207 19.4346 25.8971 19.4346 26.2371C19.4346 26.577 19.1581 26.8535 18.8182 26.8535H9.94209C9.60244 26.8535 9.32598 26.577 9.32598 26.2371C9.32598 25.8971 9.60234 25.6207 9.94209 25.6207Z" fill="#FF9900"/>
<path d="M9.53008 34.0608H12.0146C12.826 34.0608 13.4861 33.4006 13.4861 32.5891V30.858C13.4861 30.0465 12.826 29.3864 12.0146 29.3864H9.53008C8.71875 29.3864 8.05859 30.0465 8.05859 30.858V32.5891C8.05869 33.4006 8.71875 34.0608 9.53008 34.0608ZM9.32353 30.8579C9.32353 30.7438 9.41621 30.6512 9.53008 30.6512H12.0146C12.1285 30.6512 12.2212 30.7439 12.2212 30.8579V32.589C12.2212 32.7032 12.1285 32.7957 12.0146 32.7957H9.53008C9.41621 32.7957 9.32353 32.7031 9.32353 32.589V30.8579Z" fill="#FF9900"/>
<path d="M19.2278 29.3862H16.7435C15.9321 29.3862 15.272 30.0464 15.272 30.8579V32.589C15.272 33.4005 15.9321 34.0606 16.7435 34.0606H19.2278C20.0394 34.0606 20.6995 33.4005 20.6995 32.589V30.8579C20.6995 30.0464 20.0394 29.3862 19.2278 29.3862ZM19.4346 32.5891C19.4346 32.7032 19.3419 32.7958 19.2278 32.7958H16.7435C16.6296 32.7958 16.5369 32.7031 16.5369 32.5891V30.858C16.5369 30.7438 16.6296 30.6513 16.7435 30.6513H19.2278C19.342 30.6513 19.4346 30.7439 19.4346 30.858V32.5891Z" fill="#FF9900"/>
<path d="M12.0147 40.0174C12.8261 40.0174 13.4862 39.3573 13.4862 38.5458V36.8147C13.4862 36.0032 12.8261 35.343 12.0147 35.343H9.53008C8.71875 35.343 8.05859 36.0032 8.05859 36.8147V38.5458C8.05859 39.3573 8.71875 40.0174 9.53008 40.0174H12.0147ZM9.32353 38.5458V36.8147C9.32353 36.7005 9.41621 36.608 9.53008 36.608H12.0146C12.1285 36.608 12.2212 36.7006 12.2212 36.8147V38.5458C12.2212 38.6599 12.1285 38.7525 12.0146 38.7525H9.53008C9.41621 38.7525 9.32353 38.6599 9.32353 38.5458Z" fill="#FF9900"/>
<path d="M19.2278 35.3429H16.7435C15.9321 35.3429 15.272 36.0031 15.272 36.8146V38.5456C15.272 39.3572 15.9321 40.0173 16.7435 40.0173H19.2278C20.0394 40.0173 20.6995 39.3572 20.6995 38.5456V36.8146C20.6995 36.0031 20.0394 35.3429 19.2278 35.3429ZM19.4346 38.5457C19.4346 38.6599 19.3419 38.7525 19.2278 38.7525H16.7435C16.6296 38.7525 16.5369 38.6598 16.5369 38.5457V36.8147C16.5369 36.7005 16.6296 36.6079 16.7435 36.6079H19.2278C19.342 36.6079 19.4346 36.7006 19.4346 36.8147V38.5457Z" fill="#FF9900"/>
<path d="M13.2562 8.66357C13.2562 8.85772 13.2868 9.04473 13.3431 9.22041H11.8491C10.8418 9.22041 10.0273 10.034 10.0273 11.0422C10.0273 12.0467 10.8446 12.864 11.8491 12.864H18.3905C19.3926 12.864 20.2078 12.0467 20.2078 11.0422C20.2078 10.848 20.1774 10.661 20.1211 10.4854H21.6147C22.6192 10.4854 23.4365 9.66807 23.4365 8.66357C23.4365 7.65908 22.6192 6.8418 21.6147 6.8418H15.0777C14.0707 6.8418 13.2562 7.65547 13.2562 8.66357ZM22.1718 8.66357C22.1718 8.9707 21.922 9.22041 21.6149 9.22041H18.3906C18.0413 9.22041 17.7582 9.50352 17.7582 9.85283C17.7582 10.2021 18.0413 10.4853 18.3906 10.4853C18.6952 10.4853 18.9431 10.7351 18.9431 11.0421C18.9431 11.3492 18.6953 11.5989 18.3906 11.5989H11.8492C11.5421 11.5989 11.2924 11.3491 11.2924 11.0421C11.2924 10.7373 11.536 10.4853 11.8492 10.4853H15.0779C15.4272 10.4853 15.7104 10.2021 15.7104 9.85283C15.7104 9.50352 15.4272 9.22041 15.0779 9.22041C14.7708 9.22041 14.5211 8.97061 14.5211 8.66357C14.5211 8.3542 14.7697 8.10674 15.0779 8.10674H21.6149C21.922 8.10674 22.1718 8.35645 22.1718 8.66357Z" fill="#FF9900"/>
<path d="M3.80811 7.45029H10.3495C11.3516 7.45029 12.1668 6.63301 12.1668 5.62852C12.1668 5.43438 12.1364 5.24736 12.0801 5.07168H13.5737C14.5785 5.07168 15.3957 4.25439 15.3957 3.2499C15.3957 2.24541 14.5786 1.42822 13.5738 1.42822H7.03691C6.02959 1.42822 5.21514 2.24189 5.21514 3.25C5.21514 3.44414 5.2458 3.63115 5.30205 3.80684H3.80811C2.8043 3.80684 1.98633 4.61689 1.98633 5.62861C1.98643 6.63311 2.80361 7.45029 3.80811 7.45029ZM3.80811 5.07168H7.03682C7.38613 5.07168 7.66924 4.78857 7.66924 4.43926C7.66924 4.08994 7.38613 3.80684 7.03682 3.80684C6.72969 3.80684 6.47998 3.55703 6.47998 3.25C6.47998 2.94063 6.72861 2.69316 7.03682 2.69316H13.5738C13.881 2.69316 14.131 2.94297 14.131 3.25C14.131 3.55703 13.881 3.80684 13.5738 3.80684H10.3496C10.0003 3.80684 9.71719 4.08994 9.71719 4.43926C9.71719 4.78857 10.0003 5.07168 10.3496 5.07168C10.6542 5.07168 10.9021 5.32148 10.9021 5.62852C10.9021 5.93555 10.6543 6.18535 10.3496 6.18535H3.80811C3.50098 6.18535 3.25127 5.93555 3.25127 5.62852C3.25127 5.32773 3.49053 5.07168 3.80811 5.07168Z" fill="#FF9900"/>
</g>
<defs>
<clipPath id="clip0_88_18489">
<rect width="50" height="50" fill="white" transform="translate(0.734863 0.84082)"/>
</clipPath>
</defs>
</svg>
