<svg width="60" height="60" viewBox="0 0 60 60" fill="none" xmlns="http://www.w3.org/2000/svg">
<path d="M11.8489 34.438H7.14347C6.04366 34.438 5.14917 35.3325 5.14917 36.432V38.9645C5.14917 40.064 6.04366 40.9588 7.14347 40.9588H11.8488C12.9486 40.9588 13.8431 40.064 13.8431 38.9645V36.432C13.8432 35.3325 12.9487 34.438 11.8489 34.438ZM12.5014 38.9645C12.5014 39.3244 12.2088 39.617 11.8489 39.617H7.14347C6.78358 39.617 6.49097 39.3244 6.49097 38.9645V36.432C6.49097 36.0724 6.78358 35.7798 7.14347 35.7798H11.8488C12.2087 35.7798 12.5013 36.0724 12.5013 36.432L12.5014 38.9645Z" fill="#FF9900"/>
<path d="M22.0841 34.438H17.3788C16.279 34.438 15.3845 35.3325 15.3845 36.432V38.9645C15.3845 40.064 16.279 40.9588 17.3788 40.9588H22.0841C23.1839 40.9588 24.0784 40.064 24.0784 38.9645V36.432C24.0784 35.3325 23.1839 34.438 22.0841 34.438ZM22.7366 38.9645C22.7366 39.3244 22.444 39.617 22.0841 39.617H17.3788C17.0189 39.617 16.7263 39.3244 16.7263 38.9645V36.432C16.7263 36.0724 17.0189 35.7798 17.3788 35.7798H22.0841C22.444 35.7798 22.7366 36.0724 22.7366 36.432V38.9645Z" fill="#FF9900"/>
<path d="M32.3202 34.4375H27.6149C26.5151 34.4375 25.6206 35.332 25.6206 36.4316V38.964C25.6206 40.0636 26.5151 40.9583 27.6149 40.9583H32.3202C33.42 40.9583 34.3145 40.0636 34.3145 38.964V36.4316C34.3145 35.332 33.4199 34.4375 32.3202 34.4375ZM32.9727 38.964C32.9727 39.3239 32.6801 39.6165 32.3202 39.6165H27.6149C27.255 39.6165 26.9624 39.3239 26.9624 38.964V36.4316C26.9624 36.0719 27.255 35.7793 27.6149 35.7793H32.3202C32.6801 35.7793 32.9727 36.0719 32.9727 36.4316V38.964Z" fill="#FF9900"/>
<path d="M11.8489 44.9512H7.14347C6.04366 44.9512 5.14917 45.8457 5.14917 46.9452V49.4777C5.14917 50.5772 6.04366 51.472 7.14347 51.472H11.8488C12.9486 51.472 13.8431 50.5772 13.8431 49.4777V46.9452C13.8432 45.8457 12.9487 44.9512 11.8489 44.9512ZM12.5014 49.4777C12.5014 49.8375 12.2088 50.1302 11.8489 50.1302H7.14347C6.78358 50.1302 6.49097 49.8375 6.49097 49.4777V46.9452C6.49097 46.5856 6.78358 46.293 7.14347 46.293H11.8488C12.2087 46.293 12.5013 46.5856 12.5013 46.9452L12.5014 49.4777Z" fill="#FF9900"/>
<path d="M22.0841 44.9512H17.3788C16.279 44.9512 15.3845 45.8457 15.3845 46.9452V49.4777C15.3845 50.5772 16.279 51.472 17.3788 51.472H22.0841C23.1839 51.472 24.0784 50.5772 24.0784 49.4777V46.9452C24.0784 45.8457 23.1839 44.9512 22.0841 44.9512ZM22.7366 49.4777C22.7366 49.8375 22.444 50.1302 22.0841 50.1302H17.3788C17.0189 50.1302 16.7263 49.8375 16.7263 49.4777V46.9452C16.7263 46.5856 17.0189 46.293 17.3788 46.293H22.0841C22.444 46.293 22.7366 46.5856 22.7366 46.9452V49.4777Z" fill="#FF9900"/>
<path d="M32.3202 44.9512H27.6149C26.5151 44.9512 25.6206 45.8457 25.6206 46.9452V49.4777C25.6206 50.5772 26.5151 51.472 27.6149 51.472H32.3202C33.42 51.472 34.3145 50.5772 34.3145 49.4777V46.9452C34.3145 45.8457 33.4199 44.9512 32.3202 44.9512ZM32.9727 49.4777C32.9727 49.8375 32.6801 50.1302 32.3202 50.1302H27.6149C27.255 50.1302 26.9624 49.8375 26.9624 49.4777V46.9452C26.9624 46.5856 27.255 46.293 27.6149 46.293H32.3202C32.6801 46.293 32.9727 46.5856 32.9727 46.9452V49.4777Z" fill="#FF9900"/>
<path d="M50.1903 22.1597H41.5885C40.1038 22.1597 38.8958 23.3675 38.8958 24.8524C38.8958 26.3372 40.1038 27.5451 41.5885 27.5451H50.1903C51.6749 27.5451 52.883 26.3373 52.883 24.8524C52.883 23.3676 51.6748 22.1597 50.1903 22.1597ZM50.1903 26.2033H41.5885C40.8438 26.2033 40.2375 25.5974 40.2375 24.8524C40.2375 24.1074 40.8438 23.5015 41.5885 23.5015H50.1903C50.935 23.5015 51.5412 24.1074 51.5412 24.8524C51.5412 25.5974 50.935 26.2033 50.1903 26.2033Z" fill="#FF9900"/>
<path d="M50.1903 29.6582H41.5885C40.1038 29.6582 38.8958 30.8661 38.8958 32.3509C38.8958 33.8357 40.1038 35.0437 41.5885 35.0437H50.1903C51.6749 35.0437 52.883 33.8358 52.883 32.3509C52.883 30.8662 51.6748 29.6582 50.1903 29.6582ZM50.1903 33.7019H41.5885C40.8438 33.7019 40.2375 33.0959 40.2375 32.3509C40.2375 31.606 40.8438 31 41.5885 31H50.1903C50.935 31 51.5412 31.606 51.5412 32.3509C51.5412 33.0959 50.935 33.7019 50.1903 33.7019Z" fill="#FF9900"/>
<path d="M50.1903 37.1577H41.5885C40.1038 37.1577 38.8958 38.3656 38.8958 39.8505C38.8958 41.3352 40.1038 42.5432 41.5885 42.5432H50.1903C51.6749 42.5432 52.883 41.3353 52.883 39.8505C52.883 38.3657 51.6748 37.1577 50.1903 37.1577ZM50.1903 41.2014H41.5885C39.8011 41.2014 39.8015 38.4995 41.5885 38.4995H50.1903C50.935 38.4995 51.5412 39.1055 51.5412 39.8505C51.5412 40.5954 50.935 41.2014 50.1903 41.2014Z" fill="#FF9900"/>
<path d="M8.19061 28.3171C8.51159 28.3171 8.79553 28.0858 8.85096 27.7585L10.5517 17.7375H18.1271L19.828 27.7585C19.89 28.1241 20.2399 28.3682 20.6016 28.3077C20.9667 28.2457 21.2126 27.8993 21.1506 27.5339C18.4083 11.6751 18.6551 12.1004 18.2768 11.4462C17.8847 10.7659 17.1528 10.3223 16.3264 10.3223H12.3512C11.307 10.3223 10.4219 11.0339 10.1747 12.0324C10.0971 12.3438 7.536 27.4888 7.52839 27.5341C7.45924 27.9421 7.77272 28.3171 8.19061 28.3171ZM10.7795 16.3959C11.507 12.1103 11.4507 12.4013 11.4911 12.2816C11.6149 11.9178 11.9569 11.6658 12.3536 11.6658H16.3252C16.6598 11.6658 16.9561 11.8445 17.1151 12.1185C17.261 12.3715 17.1721 12.2341 17.8989 16.3959H10.7795Z" fill="#FF9900"/>
<path d="M13.6866 9.71688C14.0272 9.57074 14.1845 9.17617 14.0381 8.83574C13.6223 7.86836 14.7102 6.7027 15.7682 6.50102C17.002 6.26535 18.3241 6.75496 19.6052 7.22758C21.0121 7.67981 22.7923 8.45219 24.6691 7.75961C25.682 7.38531 26.5079 6.44383 26.7727 5.36102C26.9828 4.50402 26.7936 3.67152 26.2542 3.07692C26.0044 2.80234 25.5803 2.78231 25.3064 3.03086C25.0321 3.27977 25.0111 3.70399 25.2601 3.97844C25.5659 4.31535 25.5427 4.74274 25.4698 5.04203C25.3125 5.68387 24.7923 6.28375 24.2044 6.5009C22.8321 7.00727 21.3165 6.39473 20.0699 5.96887C18.6848 5.45781 17.1156 4.87738 15.5166 5.18289C13.6297 5.54301 12.0288 7.55734 12.8056 9.36566C12.9522 9.70645 13.3473 9.86324 13.6866 9.71688Z" fill="#222222"/>
<path d="M30.2091 5.4775C34.6633 3.70633 39.7264 5.88789 41.4983 10.3411C41.636 10.6879 42.029 10.8528 42.3698 10.7164C42.7139 10.5795 42.8821 10.1894 42.745 9.84496C40.6991 4.70395 34.8534 2.18488 29.713 4.23086C29.3689 4.36773 29.2007 4.75785 29.3378 5.10227C29.4744 5.44691 29.8654 5.61531 30.2091 5.4775Z" fill="#222222"/>
<path d="M30.9823 7.42051C30.6381 7.55739 30.47 7.9475 30.6071 8.29168C30.7438 8.6361 31.1334 8.80508 31.4785 8.66704C34.1717 7.59606 37.2373 8.91512 38.3092 11.6098C38.4468 11.9567 38.8396 12.1218 39.1806 11.9852C39.5248 11.8483 39.693 11.4582 39.5559 11.114C38.2109 7.73211 34.3665 6.07461 30.9823 7.42051Z" fill="#222222"/>
<path d="M46.0681 12.9442C46.3634 13.1691 46.7848 13.1099 47.0081 12.816L49.2016 9.92981C49.3252 9.76715 49.368 9.5568 49.3177 9.35875C49.2675 9.16071 49.1295 8.99617 48.943 8.91239L47.679 8.34215L49.0443 6.14535C49.24 5.83071 49.1435 5.41703 48.8291 5.22133C48.515 5.02586 48.1005 5.12196 47.9053 5.43684L46.135 8.28438C46.0329 8.44856 46.0066 8.64883 46.063 8.8341C46.1193 9.01903 46.2526 9.17067 46.4289 9.25012L47.6231 9.78883L45.9398 12.0039C45.7156 12.2991 45.7728 12.7199 46.0681 12.9442Z" fill="#222222"/>
<path d="M25.3121 15.1594C25.2279 14.7988 24.8671 14.5754 24.5062 14.6584C24.1454 14.7427 23.921 15.1035 24.0053 15.4643L24.767 18.7294C24.811 18.9176 24.9339 19.0779 25.1046 19.169C25.2753 19.2602 25.4776 19.2727 25.6576 19.2044L26.8836 18.741L27.2592 21.4977C27.305 21.834 27.593 22.0779 27.9231 22.0779C27.9532 22.0779 27.9838 22.0759 28.0144 22.0718C28.3817 22.0218 28.639 21.6836 28.5887 21.3164L28.0991 17.7246C28.0716 17.5221 27.9532 17.3433 27.7776 17.2388C27.6021 17.1346 27.3876 17.1158 27.1972 17.1879L25.8996 17.6786L25.3121 15.1594Z" fill="#222222"/>
<path d="M57.3827 55.8011H55.5714V14.063C55.5714 12.592 54.0487 11.6033 52.6992 12.2137L37.3592 19.2104C36.639 19.5439 36.1738 20.2692 36.1738 21.0582V29.6585H5.052C3.33989 29.6585 1.94653 31.0516 1.94653 32.7637V56.4703C1.94653 56.8408 2.247 57.1412 2.61743 57.1412C7.05532 57.1413 54.4486 57.1428 57.3827 57.1429C57.7531 57.1429 58.0536 56.8427 58.0536 56.472C58.0536 56.1014 57.7531 55.8011 57.3827 55.8011ZM3.28833 32.7638C3.28833 31.7914 4.07935 31.0004 5.052 31.0004H36.1738C36.1749 60.7903 36.1747 55.0514 36.1747 55.7995H3.28833V32.7638ZM42.2791 55.7994V49.0283C42.2791 47.0469 43.8912 45.435 45.8729 45.435C47.854 45.435 49.4662 47.0469 49.4662 49.0283V55.7994H42.2791ZM50.808 55.8011V49.0283C50.808 46.3069 48.594 44.0932 45.8729 44.0932C43.1513 44.0932 40.9373 46.3069 40.9373 49.0283V55.8011C40.8509 55.8011 37.3163 55.8011 37.5165 55.8011C37.5163 51.5742 37.5159 31.5617 37.5156 21.0582C37.5156 20.7901 37.6755 20.5426 37.9192 20.4297L53.2539 13.4355C53.7163 13.227 54.2296 13.5679 54.2296 14.0632V55.8012H50.808V55.8011Z" fill="#FF9900"/>
</svg>
