<svg width="60" height="61" viewBox="0 0 60 61" fill="none" xmlns="http://www.w3.org/2000/svg">
<path d="M39.9539 55.3595C40.4381 55.3595 40.8307 54.9669 40.8307 54.4827V46.9815C40.8307 46.4973 40.4381 46.1047 39.9539 46.1047H30.0423C29.5581 46.1047 29.1655 46.4973 29.1655 46.9815V54.4827C29.1655 54.9669 29.5581 55.3595 30.0423 55.3595C30.5265 55.3595 30.9191 54.9669 30.9191 54.4827V47.8584H39.077V54.4827C39.0771 54.9669 39.4697 55.3595 39.9539 55.3595Z" fill="#222222"/>
<path d="M4.74691 58.8669H55.2534C55.7377 58.8669 56.1302 58.4743 56.1302 57.9901C56.1302 57.5059 55.7377 57.1133 55.2534 57.1133H51.9036V31.5882C51.9036 31.2529 51.7127 30.9473 51.4112 30.8005C51.1111 30.6537 50.7519 30.6904 50.4873 30.8968L43.8895 36.044V31.5882C43.8895 31.2529 43.6986 30.9473 43.3971 30.8005C43.0975 30.6537 42.7373 30.6904 42.4732 30.8968L35.875 36.044V31.5882C35.875 31.2529 35.6841 30.9473 35.3825 30.8005C35.0824 30.6537 34.7232 30.6904 34.4586 30.8968L27.8604 36.044V31.5882C27.8604 31.2529 27.6695 30.9473 27.368 30.8005C27.0679 30.6537 26.7087 30.6904 26.4441 30.8968L21.9374 34.4131C21.5555 34.7112 21.4879 35.2622 21.7854 35.6441C22.0842 36.0255 22.6349 36.0941 23.0163 35.7961L26.1067 33.3847V37.8401C26.1067 38.1753 26.2976 38.481 26.5991 38.6278C26.9 38.7759 27.2593 38.7383 27.523 38.5315L34.1213 33.3842V37.8399C34.1213 38.1752 34.3121 38.4808 34.6137 38.6277C34.9151 38.7758 35.2739 38.7382 35.5376 38.5313L42.1358 33.3841V37.8398C42.1358 38.1751 42.3267 38.4807 42.6282 38.6276C42.9296 38.7757 43.288 38.7381 43.5522 38.5312L50.1499 33.384V57.1128C45.9928 57.1128 27.9962 57.1128 19.8465 57.1128V24.0683C21.7867 23.8936 23.3175 22.2769 23.3175 20.2921C23.3175 18.1911 21.6083 16.4819 19.5074 16.4819H8.44348C6.34254 16.4819 4.63336 18.1911 4.63336 20.2921C4.63336 22.274 6.16008 23.8889 8.09625 24.0675V57.1128H4.74691C4.2627 57.1128 3.87012 57.5054 3.87012 57.9896C3.87012 58.4738 4.2627 58.8669 4.74691 58.8669ZM6.38707 20.2924C6.38707 19.1586 7.30969 18.236 8.44348 18.236H19.5073C20.6411 18.236 21.5637 19.1586 21.5637 20.2924C21.5637 21.4265 20.6411 22.3493 19.5073 22.3493C19.8445 22.3488 14.6941 22.3475 8.44348 22.3493C7.30981 22.3493 6.38707 21.4267 6.38707 20.2924ZM9.84996 24.103H18.0927V57.1132H9.84996V24.103Z" fill="#FF9900"/>
<path d="M13.9749 14.3283C14.4592 14.3283 14.8517 13.9357 14.8517 13.4515C14.8517 11.3994 16.5211 9.73011 18.5731 9.73011H32.4486C35.4675 9.73011 37.9234 7.27421 37.9234 4.25534V3.62558C37.9234 3.14136 37.5308 2.74878 37.0466 2.74878C36.5624 2.74878 36.1698 3.14136 36.1698 3.62558V4.25534C36.1698 6.30706 34.5004 7.9764 32.4487 7.9764H18.5733C15.5544 7.9764 13.0981 10.4326 13.0981 13.4515C13.098 13.9356 13.4907 14.3283 13.9749 14.3283Z" fill="#222222"/>
<path d="M14.8712 28.4485H13.0794C12.5952 28.4485 12.2026 28.8411 12.2026 29.3253C12.2026 29.8095 12.5952 30.2021 13.0794 30.2021H14.8712C15.3554 30.2021 15.748 29.8095 15.748 29.3253C15.748 28.8411 15.3554 28.4485 14.8712 28.4485Z" fill="#222222"/>
<path d="M14.8712 35.9702H13.0794C12.5952 35.9702 12.2026 36.3628 12.2026 36.847C12.2026 37.3312 12.5952 37.7238 13.0794 37.7238H14.8712C15.3554 37.7238 15.748 37.3312 15.748 36.847C15.748 36.3628 15.3554 35.9702 14.8712 35.9702Z" fill="#222222"/>
<path d="M14.8712 43.4919H13.0794C12.5952 43.4919 12.2026 43.8845 12.2026 44.3687C12.2026 44.853 12.5952 45.2455 13.0794 45.2455H14.8712C15.3554 45.2455 15.748 44.853 15.748 44.3687C15.748 43.8845 15.3554 43.4919 14.8712 43.4919Z" fill="#222222"/>
<path d="M14.8712 51.0137H13.0794C12.5952 51.0137 12.2026 51.4063 12.2026 51.8905C12.2026 52.3747 12.5952 52.7673 13.0794 52.7673H14.8712C15.3554 52.7673 15.748 52.3747 15.748 51.8905C15.748 51.4063 15.3554 51.0137 14.8712 51.0137Z" fill="#222222"/>
</svg>
