<svg width="58" height="59" viewBox="0 0 58 59" fill="none" xmlns="http://www.w3.org/2000/svg">
<path d="M11.3589 43.5994C8.94219 40.9411 7.49219 38.0411 7.49219 33.2078C7.49219 24.7494 13.5339 17.2578 21.9922 13.3911L24.1672 16.5328C16.1922 20.8828 14.5005 26.4411 14.0172 30.0661C15.2255 29.3411 16.9172 29.0994 18.6089 29.3411C22.9589 29.8244 26.3422 33.2078 26.3422 37.7994C26.3422 39.9744 25.3755 42.1494 23.9255 43.8411C22.2339 45.5328 20.3005 46.2578 17.8839 46.2578C15.2255 46.2578 12.8089 45.0494 11.3589 43.5994ZM35.5255 43.5994C33.1089 40.9411 31.6589 38.0411 31.6589 33.2078C31.6589 24.7494 37.7005 17.2578 46.1589 13.3911L48.3339 16.5328C40.3589 20.8828 38.6672 26.4411 38.1839 30.0661C39.3922 29.3411 41.0839 29.0994 42.7755 29.3411C47.1255 29.8244 50.5089 33.2078 50.5089 37.7994C50.5089 39.9744 49.5422 42.1494 48.0922 43.8411C46.6422 45.5328 44.4672 46.2578 42.0505 46.2578C39.3922 46.2578 36.9755 45.0494 35.5255 43.5994Z" fill="#FF9900"/>
</svg>
