<svg width="150" height="151" viewBox="0 0 150 151" fill="none" xmlns="http://www.w3.org/2000/svg">
<path d="M34.8237 64.952C51.0963 64.952 64.2879 51.7604 64.2879 35.4877C64.2879 19.215 51.0963 6.02344 34.8237 6.02344C18.551 6.02344 5.35938 19.215 5.35938 35.4877C5.35938 51.7604 18.551 64.952 34.8237 64.952Z" stroke="#FF9900" stroke-width="2" stroke-linecap="round" stroke-linejoin="round"/>
<path d="M115.183 64.952C131.456 64.952 144.647 51.7604 144.647 35.4877C144.647 19.215 131.456 6.02344 115.183 6.02344C98.9104 6.02344 85.7188 19.215 85.7188 35.4877C85.7188 51.7604 98.9104 64.952 115.183 64.952Z" stroke="#FF9900" stroke-width="2" stroke-linecap="round" stroke-linejoin="round"/>
<path d="M34.8237 145.311C51.0963 145.311 64.2879 132.12 64.2879 115.847C64.2879 99.5744 51.0963 86.3828 34.8237 86.3828C18.551 86.3828 5.35938 99.5744 5.35938 115.847C5.35938 132.12 18.551 145.311 34.8237 145.311Z" stroke="#FF9900" stroke-width="2" stroke-linecap="round" stroke-linejoin="round"/>
<path d="M115.183 145.311C131.456 145.311 144.647 132.12 144.647 115.847C144.647 99.5744 131.456 86.3828 115.183 86.3828C98.9104 86.3828 85.7188 99.5744 85.7188 115.847C85.7188 132.12 98.9104 145.311 115.183 145.311Z" stroke="#FF9900" stroke-width="2" stroke-linecap="round" stroke-linejoin="round"/>
</svg>
