<svg width="21" height="21" viewBox="0 0 21 21" fill="none" xmlns="http://www.w3.org/2000/svg">
<g clip-path="url(#clip0_43_706)">
<path d="M20.2336 11.7954C20.2336 11.7953 20.2336 11.7952 20.2336 11.7951L16.4575 2.31373C16.3773 2.11228 16.149 2.01393 15.9475 2.09407C15.9474 2.09412 15.9472 2.09417 15.9471 2.09427L0.62802 8.19417C0.565546 8.22117 0.511367 8.26425 0.470977 8.31902C0.343577 8.38523 0.263093 8.51626 0.261719 8.6598V18.8675C0.261719 19.0844 0.437508 19.2601 0.654324 19.2601H17.1437C17.3606 19.2601 17.5364 19.0844 17.5364 18.8675V13.2925L20.0145 12.3055C20.2159 12.2252 20.314 11.9968 20.2336 11.7954ZM16.7511 18.4749H1.04693V9.05241H16.7511V18.4749ZM6.81234 8.26916L13.3861 5.6497C13.9728 6.26638 14.7858 6.61688 15.6369 6.62022L16.2926 8.26916H6.81234ZM17.5364 12.4492V8.6598C17.5364 8.44299 17.3606 8.2672 17.1437 8.2672H17.1375L16.3055 6.17775C16.2963 6.16033 16.2856 6.14374 16.2733 6.12829C16.2312 5.9392 16.0561 5.81018 15.8631 5.82598C15.0711 5.89817 14.2963 5.56455 13.8046 4.93948C13.6823 4.78847 13.4672 4.75093 13.3009 4.85153C13.2823 4.85374 13.2638 4.85718 13.2456 4.86174L5.21993 8.05755C5.12281 8.09563 5.04512 8.17116 5.00439 8.2672H2.5671L15.8733 2.96899L19.3592 11.7221L17.5364 12.4492Z" fill="#FF9900"/>
<path d="M2.11235 15.8245C2.87459 16.0498 3.47106 16.6455 3.6973 17.4075C3.74691 17.5738 3.89988 17.6877 4.07341 17.6878C4.09378 17.6865 4.114 17.6835 4.13388 17.6788C4.15149 17.6838 4.1695 17.6874 4.18766 17.6898H13.6102C13.6264 17.6876 13.6424 17.6844 13.6581 17.6799C13.8542 17.7276 14.0519 17.6074 14.0997 17.4112C14.0998 17.4105 14.1 17.4098 14.1002 17.409C14.3258 16.6463 14.9224 16.0497 15.6851 15.8241C15.8701 15.7676 15.985 15.5832 15.9544 15.3922C15.9597 15.3732 15.9635 15.3538 15.9658 15.3341V12.1933C15.9635 12.1736 15.9596 12.1542 15.954 12.1352C15.9848 11.9441 15.8698 11.7597 15.6847 11.7033C14.922 11.4777 14.3256 10.8809 14.1006 10.118C14.0437 9.93172 13.8576 9.81649 13.6655 9.84864C13.6474 9.84358 13.6289 9.8399 13.6102 9.83765H4.18766C4.16789 9.84 4.1483 9.84393 4.12916 9.84942C3.93821 9.819 3.75398 9.93388 3.6973 10.1188C3.4715 10.8813 2.87499 11.4777 2.11235 11.7033C1.92739 11.7598 1.81245 11.9442 1.84302 12.1352C1.83792 12.1543 1.83424 12.1736 1.83203 12.1933V15.3341C1.83429 15.3526 1.83797 15.3708 1.84302 15.3887C1.81083 15.5809 1.92601 15.7673 2.11235 15.8245ZM2.61724 12.3527C3.40559 12.036 4.03042 11.4112 4.34706 10.6229H13.4504C13.7672 11.4112 14.3922 12.036 15.1806 12.3527V15.1747C14.3925 15.4917 13.7678 16.1164 13.4508 16.9045H4.34706C4.03008 16.1164 3.40535 15.4917 2.61724 15.1747V12.3527Z" fill="#FF9900"/>
<path d="M8.8986 16.1192C10.1996 16.1192 11.2542 15.0646 11.2542 13.7636C11.2542 12.4626 10.1996 11.408 8.8986 11.408C7.5976 11.408 6.54297 12.4626 6.54297 13.7636C6.54424 15.064 7.59814 16.1179 8.8986 16.1192ZM8.8986 12.1932C9.76591 12.1932 10.469 12.8963 10.469 13.7636C10.469 14.6309 9.76591 15.334 8.8986 15.334C8.03129 15.334 7.32818 14.6309 7.32818 13.7636C7.32818 12.8963 8.03129 12.1932 8.8986 12.1932Z" fill="#FF9900"/>
<path d="M4.5811 14.3526C4.90632 14.3526 5.17 14.0889 5.17 13.7637C5.17 13.4385 4.90632 13.1748 4.5811 13.1748C4.25587 13.1748 3.99219 13.4385 3.99219 13.7637C3.99219 14.089 4.25587 14.3526 4.5811 14.3526ZM4.5811 13.5674C4.6895 13.5674 4.7774 13.6553 4.7774 13.7637C4.7774 13.8721 4.6895 13.96 4.5811 13.96C4.47269 13.96 4.38479 13.8721 4.38479 13.7637C4.38479 13.6553 4.47269 13.5674 4.5811 13.5674Z" fill="#FF9900"/>
<path d="M13.2178 14.3526C13.543 14.3526 13.8067 14.0889 13.8067 13.7637C13.8067 13.4385 13.543 13.1748 13.2178 13.1748C12.8926 13.1748 12.6289 13.4385 12.6289 13.7637C12.6289 14.089 12.8926 14.3526 13.2178 14.3526ZM13.2178 13.5674C13.3262 13.5674 13.4141 13.6553 13.4141 13.7637C13.4141 13.8721 13.3262 13.96 13.2178 13.96C13.1094 13.96 13.0215 13.8721 13.0215 13.7637C13.0215 13.6553 13.1094 13.5674 13.2178 13.5674Z" fill="#FF9900"/>
</g>
<defs>
<clipPath id="clip0_43_706">
<rect width="20" height="20" fill="white" transform="translate(0.261719 0.663086)"/>
</clipPath>
</defs>
</svg>
