<svg width="51" height="51" viewBox="0 0 51 51" fill="none" xmlns="http://www.w3.org/2000/svg">
<path d="M10.648 29.3494H6.72686C5.81035 29.3494 5.06494 30.0948 5.06494 31.0111V33.1214C5.06494 34.0377 5.81035 34.7833 6.72686 34.7833H10.6479C11.5645 34.7833 12.3099 34.0377 12.3099 33.1214V31.0111C12.31 30.0948 11.5646 29.3494 10.648 29.3494ZM11.1918 33.1214C11.1918 33.4213 10.9479 33.6652 10.648 33.6652H6.72686C6.42695 33.6652 6.18311 33.4213 6.18311 33.1214V31.0111C6.18311 30.7114 6.42695 30.4675 6.72686 30.4675H10.6479C10.9479 30.4675 11.1917 30.7114 11.1917 31.0111L11.1918 33.1214Z" fill="#FF9900"/>
<path d="M19.1782 29.3494H15.2571C14.3406 29.3494 13.5952 30.0948 13.5952 31.0111V33.1214C13.5952 34.0377 14.3406 34.7833 15.2571 34.7833H19.1782C20.0947 34.7833 20.8401 34.0377 20.8401 33.1214V31.0111C20.8401 30.0948 20.0947 29.3494 19.1782 29.3494ZM19.722 33.1214C19.722 33.4213 19.4781 33.6652 19.1782 33.6652H15.2571C14.9572 33.6652 14.7134 33.4213 14.7134 33.1214V31.0111C14.7134 30.7114 14.9572 30.4675 15.2571 30.4675H19.1782C19.4781 30.4675 19.722 30.7114 19.722 31.0111V33.1214Z" fill="#FF9900"/>
<path d="M27.708 29.3494H23.7869C22.8704 29.3494 22.125 30.0948 22.125 31.0111V33.1214C22.125 34.0377 22.8704 34.7833 23.7869 34.7833H27.708C28.6245 34.7833 29.3699 34.0377 29.3699 33.1214V31.0111C29.3699 30.0948 28.6244 29.3494 27.708 29.3494ZM28.2518 33.1214C28.2518 33.4213 28.0079 33.6652 27.708 33.6652H23.7869C23.487 33.6652 23.2432 33.4213 23.2432 33.1214V31.0111C23.2432 30.7114 23.487 30.4675 23.7869 30.4675H27.708C28.0079 30.4675 28.2518 30.7114 28.2518 31.0111V33.1214Z" fill="#FF9900"/>
<path d="M10.648 38.1108H6.72686C5.81035 38.1108 5.06494 38.8562 5.06494 39.7726V41.8829C5.06494 42.7992 5.81035 43.5448 6.72686 43.5448H10.6479C11.5645 43.5448 12.3099 42.7992 12.3099 41.8829V39.7726C12.31 38.8562 11.5646 38.1108 10.648 38.1108ZM11.1918 41.8829C11.1918 42.1828 10.9479 42.4267 10.648 42.4267H6.72686C6.42695 42.4267 6.18311 42.1828 6.18311 41.8829V39.7726C6.18311 39.4729 6.42695 39.229 6.72686 39.229H10.6479C10.9479 39.229 11.1917 39.4729 11.1917 39.7726L11.1918 41.8829Z" fill="#FF9900"/>
<path d="M19.1782 38.1108H15.2571C14.3406 38.1108 13.5952 38.8562 13.5952 39.7726V41.8829C13.5952 42.7992 14.3406 43.5448 15.2571 43.5448H19.1782C20.0947 43.5448 20.8401 42.7992 20.8401 41.8829V39.7726C20.8401 38.8562 20.0947 38.1108 19.1782 38.1108ZM19.722 41.8829C19.722 42.1828 19.4781 42.4267 19.1782 42.4267H15.2571C14.9572 42.4267 14.7134 42.1828 14.7134 41.8829V39.7726C14.7134 39.4729 14.9572 39.229 15.2571 39.229H19.1782C19.4781 39.229 19.722 39.4729 19.722 39.7726V41.8829Z" fill="#FF9900"/>
<path d="M27.708 38.1108H23.7869C22.8704 38.1108 22.125 38.8562 22.125 39.7726V41.8829C22.125 42.7992 22.8704 43.5448 23.7869 43.5448H27.708C28.6245 43.5448 29.3699 42.7992 29.3699 41.8829V39.7726C29.3699 38.8562 28.6244 38.1108 27.708 38.1108ZM28.2518 41.8829C28.2518 42.1828 28.0079 42.4267 27.708 42.4267H23.7869C23.487 42.4267 23.2432 42.1828 23.2432 41.8829V39.7726C23.2432 39.4729 23.487 39.229 23.7869 39.229H27.708C28.0079 39.229 28.2518 39.4729 28.2518 39.7726V41.8829Z" fill="#FF9900"/>
<path d="M42.5991 19.1177H35.431C34.1937 19.1177 33.187 20.1242 33.187 21.3616C33.187 22.5989 34.1937 23.6056 35.431 23.6056H42.5991C43.8363 23.6056 44.8431 22.599 44.8431 21.3616C44.8431 20.1243 43.8362 19.1177 42.5991 19.1177ZM42.5991 22.4874H35.431C34.8104 22.4874 34.3052 21.9824 34.3052 21.3616C34.3052 20.7408 34.8104 20.2358 35.431 20.2358H42.5991C43.2197 20.2358 43.7249 20.7408 43.7249 21.3616C43.7249 21.9824 43.2197 22.4874 42.5991 22.4874Z" fill="#FF9900"/>
<path d="M42.5991 25.3669H35.431C34.1937 25.3669 33.187 26.3735 33.187 27.6109C33.187 28.8482 34.1937 29.8548 35.431 29.8548H42.5991C43.8363 29.8548 44.8431 28.8483 44.8431 27.6109C44.8431 26.3736 43.8362 25.3669 42.5991 25.3669ZM42.5991 28.7367H35.431C34.8104 28.7367 34.3052 28.2317 34.3052 27.6109C34.3052 26.9901 34.8104 26.4851 35.431 26.4851H42.5991C43.2197 26.4851 43.7249 26.9901 43.7249 27.6109C43.7249 28.2317 43.2197 28.7367 42.5991 28.7367Z" fill="#FF9900"/>
<path d="M42.5991 31.6162H35.431C34.1937 31.6162 33.187 32.6228 33.187 33.8602C33.187 35.0975 34.1937 36.1041 35.431 36.1041H42.5991C43.8363 36.1041 44.8431 35.0976 44.8431 33.8602C44.8431 32.6229 43.8362 31.6162 42.5991 31.6162ZM42.5991 34.9859H35.431C33.9415 34.9859 33.9418 32.7344 35.431 32.7344H42.5991C43.2197 32.7344 43.7249 33.2394 43.7249 33.8602C43.7249 34.481 43.2197 34.9859 42.5991 34.9859Z" fill="#FF9900"/>
<path d="M7.5994 24.2491C7.86688 24.2491 8.1035 24.0563 8.14969 23.7836L9.56697 15.4328H15.8798L17.2972 23.7836C17.3489 24.0883 17.6405 24.2917 17.9419 24.2413C18.2462 24.1896 18.4511 23.901 18.3994 23.5965C16.1141 10.3808 16.3198 10.7352 16.0046 10.19C15.6778 9.62314 15.0679 9.25342 14.3792 9.25342H11.0666C10.1964 9.25342 9.45877 9.84648 9.25281 10.6785C9.18816 10.938 7.05389 23.5589 7.04754 23.5966C6.98992 23.9366 7.25115 24.2491 7.5994 24.2491ZM9.75682 14.3147C10.3631 10.7435 10.3161 10.9859 10.3498 10.8862C10.453 10.583 10.738 10.373 11.0685 10.373H14.3782C14.657 10.373 14.904 10.522 15.0365 10.7503C15.1581 10.9611 15.084 10.8466 15.6896 14.3147H9.75682Z" fill="#FF9900"/>
<path d="M12.1796 8.74885C12.4635 8.62707 12.5946 8.29826 12.4726 8.01457C12.1261 7.20842 13.0327 6.23703 13.9143 6.06896C14.9425 5.87258 16.0443 6.28058 17.1119 6.67443C18.2842 7.05129 19.7677 7.69494 21.3318 7.11779C22.1758 6.80588 22.8641 6.02131 23.0847 5.11896C23.2598 4.4048 23.1022 3.71105 22.6527 3.21554C22.4445 2.98674 22.0911 2.97004 21.8628 3.17717C21.6342 3.38459 21.6168 3.7381 21.8243 3.96681C22.0791 4.24758 22.0597 4.60373 21.999 4.85314C21.8679 5.38801 21.4344 5.88791 20.9445 6.06886C19.8009 6.49084 18.5379 5.98039 17.4991 5.62551C16.3449 5.19963 15.0372 4.71594 13.7046 4.97053C12.1323 5.27062 10.7982 6.94924 11.4455 8.45617C11.5676 8.74015 11.8969 8.87082 12.1796 8.74885Z" fill="white"/>
<path d="M25.949 5.21611C29.6608 3.74014 33.88 5.55811 35.3567 9.26914C35.4714 9.55811 35.7989 9.69551 36.0829 9.58184C36.3697 9.46777 36.5098 9.14268 36.3956 8.85566C34.6907 4.57148 29.8192 2.47227 25.5356 4.17725C25.2488 4.29131 25.1087 4.61641 25.2229 4.90342C25.3368 5.19063 25.6626 5.33096 25.949 5.21611Z" fill="white"/>
<path d="M26.5927 6.83545C26.3059 6.94952 26.1658 7.27461 26.28 7.56143C26.394 7.84844 26.7186 7.98926 27.0062 7.87422C29.2505 6.98174 31.8052 8.08096 32.6985 10.3266C32.8131 10.6156 33.1405 10.7532 33.4247 10.6394C33.7115 10.5253 33.8516 10.2002 33.7374 9.91338C32.6166 7.09512 29.4129 5.71387 26.5927 6.83545Z" fill="white"/>
<path d="M39.1643 11.4383C39.4104 11.6257 39.7616 11.5764 39.9476 11.3315L41.7755 8.92629C41.8786 8.79074 41.9142 8.61545 41.8723 8.45041C41.8304 8.28537 41.7155 8.14826 41.56 8.07844L40.5067 7.60324L41.6445 5.77258C41.8076 5.51037 41.7271 5.16564 41.4651 5.00256C41.2034 4.83967 40.858 4.91974 40.6953 5.18215L39.2201 7.5551C39.1349 7.69191 39.113 7.85881 39.16 8.0132C39.207 8.1673 39.318 8.29367 39.465 8.35988L40.4601 8.80881L39.0574 10.6547C38.8706 10.9007 38.9182 11.2514 39.1643 11.4383Z" fill="white"/>
<path d="M21.8675 13.2844C21.7973 12.9839 21.4966 12.7978 21.1959 12.867C20.8952 12.9372 20.7082 13.2379 20.7784 13.5385L21.4132 16.2594C21.4499 16.4163 21.5523 16.5499 21.6945 16.6257C21.8368 16.7018 22.0054 16.7122 22.1554 16.6552L23.1771 16.2691L23.4901 18.5664C23.5282 18.8466 23.7682 19.0499 24.0433 19.0499C24.0684 19.0499 24.0939 19.0482 24.1194 19.0448C24.4255 19.0031 24.6399 18.7213 24.598 18.4153L24.19 15.4221C24.167 15.2534 24.0684 15.1044 23.9221 15.0172C23.7758 14.9304 23.5971 14.9148 23.4384 14.9749L22.357 15.3838L21.8675 13.2844Z" fill="white"/>
<path d="M48.5933 47.1525H47.0839V12.3707C47.0839 11.1448 45.8149 10.3209 44.6903 10.8296L31.907 16.6602C31.3068 16.9381 30.9192 17.5425 30.9192 18.2V25.3669H4.98438C3.55762 25.3669 2.39648 26.5279 2.39648 27.9546V47.7101C2.39648 48.0189 2.64687 48.2692 2.95557 48.2692C6.65381 48.2693 46.1482 48.2705 48.5933 48.2706C48.902 48.2706 49.1523 48.0204 49.1523 47.7115C49.1523 47.4027 48.902 47.1525 48.5933 47.1525ZM3.51465 27.9547C3.51465 27.1444 4.17383 26.4852 4.98438 26.4852H30.9192C30.9201 51.3101 30.9199 46.5277 30.9199 47.1511H3.51465V27.9547ZM36.0069 47.151V41.5084C36.0069 39.8573 37.3504 38.514 39.0018 38.514C40.6527 38.514 41.9962 39.8573 41.9962 41.5084V47.151H36.0069ZM43.1144 47.1525V41.5084C43.1144 39.2406 41.2693 37.3958 39.0018 37.3958C36.7338 37.3958 34.8888 39.2406 34.8888 41.5084V47.1525C34.8168 47.1525 31.8713 47.1525 32.0381 47.1525C32.038 43.63 32.0376 26.953 32.0374 18.2C32.0374 17.9766 32.1706 17.7703 32.3737 17.6763L45.1526 11.8478C45.538 11.674 45.9657 11.9581 45.9657 12.3708V47.1526H43.1144V47.1525Z" fill="#FF9900"/>
</svg>
