<svg width="60" height="61" viewBox="0 0 60 61" fill="none" xmlns="http://www.w3.org/2000/svg">
<g clip-path="url(#clip0_43_228)">
<path d="M25.794 14.5052C24.6655 14.5052 23.7155 15.3892 23.6505 16.5304V16.5306C23.6505 16.5312 23.6503 16.5318 23.6502 16.5325L23.2434 23.6727C23.2197 24.0913 23.5396 24.4498 23.9579 24.4738C24.3819 24.4999 24.735 24.1779 24.759 23.7593L24.9248 20.8492H30.904L31.5613 32.3747C31.5844 32.7785 31.9188 33.0904 32.3184 33.0904C32.333 33.0904 32.3475 33.09 32.3622 33.0892C32.7806 33.0652 33.1004 32.7068 33.0767 32.2881C32.068 14.5399 32.2932 18.5022 32.1811 16.5302C32.1178 15.417 31.1942 14.5051 30.0377 14.5051L25.794 14.5052ZM25.0119 19.3314L25.1659 16.6187C25.1865 16.2693 25.4924 16.0245 25.7924 16.0235H30.0363C30.371 16.0235 30.6462 16.2826 30.6627 16.6191L30.8174 19.3314H25.0119Z" fill="#FF9900"/>
<path d="M48.6147 47.6329H51.5286C52.4227 47.6329 53.15 46.9056 53.15 46.0118V43.098C53.15 42.2038 52.4227 41.4766 51.5286 41.4766H48.6147C47.7209 41.4766 46.9937 42.2038 46.9937 43.098V46.0118C46.9937 46.9056 47.7209 47.6329 48.6147 47.6329ZM48.5116 43.0979C48.5116 43.0409 48.5579 42.9944 48.6147 42.9944H51.5286C51.5855 42.9944 51.6321 43.0409 51.6321 43.0979V46.0117C51.6321 46.0687 51.5855 46.1148 51.5286 46.1148H48.6147C48.5578 46.1148 48.5116 46.0686 48.5116 46.0117V43.0979Z" fill="#222222"/>
<path d="M39.1796 47.6329H42.0935C42.9877 47.6329 43.7149 46.9056 43.7149 46.0118V43.098C43.7149 42.2038 42.9877 41.4766 42.0935 41.4766H39.1796C38.2859 41.4766 37.5586 42.2038 37.5586 43.098V46.0118C37.5586 46.9056 38.2859 47.6329 39.1796 47.6329ZM39.0765 43.0979C39.0765 43.0409 39.1228 42.9944 39.1796 42.9944H42.0935C42.1505 42.9944 42.197 43.0409 42.197 43.0979V46.0117C42.197 46.0687 42.1505 46.1148 42.0935 46.1148H39.1796C39.1227 46.1148 39.0765 46.0686 39.0765 46.0117V43.0979Z" fill="#222222"/>
<path d="M32.6581 41.4766H29.7445C28.8503 41.4766 28.123 42.2038 28.123 43.098V46.0118C28.123 46.9056 28.8503 47.6329 29.7445 47.6329H32.6581C33.5522 47.6329 34.2795 46.9056 34.2795 46.0118V43.098C34.2795 42.2037 33.5522 41.4766 32.6581 41.4766ZM32.7616 46.0118C32.7616 46.0688 32.715 46.115 32.6581 46.115H29.7445C29.6875 46.115 29.641 46.0687 29.641 46.0118V43.098C29.641 43.041 29.6875 42.9945 29.7445 42.9945H32.6581C32.715 42.9945 32.7616 43.041 32.7616 43.098V46.0118Z" fill="#222222"/>
<path d="M27.2419 28.5821C27.2419 27.1537 26.0798 25.9917 24.6515 25.9917H8.09584C6.66744 25.9917 5.50541 27.1538 5.50541 28.5821V55.8678H4.10244C2.93467 55.8678 1.98486 56.8176 1.98486 57.9852C1.98486 59.1529 2.93479 60.1028 4.10244 60.1028L56.3805 60.1024C57.5479 60.1024 58.4978 59.1526 58.4978 57.9851C58.4978 56.8176 57.548 55.8677 56.3805 55.8677H55.5483V34.9578C55.5483 34.5736 55.3625 34.2098 55.0515 33.9842C54.7404 33.7589 54.3358 33.6967 53.972 33.8156L46.1129 36.3914V34.9578C46.1129 34.5736 45.9272 34.2098 45.6163 33.9846C45.3047 33.759 44.901 33.6958 44.5366 33.8156L36.6774 36.3912V34.9578C36.6774 34.5736 36.4918 34.2098 36.1809 33.9846C35.8693 33.759 35.4656 33.6958 35.1011 33.8156L27.2419 36.3915V28.5821ZM7.02322 28.5821C7.02322 27.9907 7.50439 27.5095 8.09584 27.5095H24.6515C25.243 27.5095 25.7241 27.9907 25.7241 28.5821V55.8678H21.2108V51.3038C21.2108 49.9905 20.1424 48.9221 18.829 48.9221H13.9184C12.6051 48.9221 11.5367 49.9905 11.5367 51.3038V55.8678H7.02322V28.5821ZM19.6928 55.8678H13.0545V51.3038C13.0545 50.8275 13.4419 50.4399 13.9184 50.4399H18.829C19.3054 50.4399 19.693 50.8274 19.693 51.3038V55.8678H19.6928ZM56.98 57.9852C56.98 58.3158 56.7111 58.5846 56.3806 58.5846L4.10256 58.5849C3.77197 58.5849 3.50279 58.3158 3.50279 57.9852C3.50279 57.6546 3.77197 57.3858 4.10256 57.3858H56.3806C56.7111 57.3858 56.98 57.6546 56.98 57.9852ZM54.0305 35.3939V55.8678H46.1129V37.9885L54.0305 35.3939ZM44.5949 35.3939V55.8678H36.6773V37.9885L44.5949 35.3939ZM27.2422 37.9885L35.1595 35.3939V55.8678H27.2422V37.9885Z" fill="#FF9900"/>
<path d="M11.0483 33.5406H21.6996C22.9445 33.5406 23.9571 32.5279 23.9571 31.2831C23.9571 30.0383 22.9443 29.0256 21.6996 29.0256H11.0483C9.80375 29.0256 8.79102 30.0384 8.79102 31.2831C8.79102 32.5279 9.80363 33.5406 11.0483 33.5406ZM11.0483 30.5434H21.6996C22.1075 30.5434 22.4393 30.8752 22.4393 31.2831C22.4393 31.6911 22.1075 32.0228 21.6996 32.0228H11.0483C10.6407 32.0228 10.3089 31.6911 10.3089 31.2831C10.3089 30.8752 10.6406 30.5434 11.0483 30.5434Z" fill="#FF9900"/>
<path d="M10.5539 40.6716H13.5354C14.5089 40.6716 15.3011 39.8794 15.3011 38.9055V36.8283C15.3011 35.8544 14.5089 35.0623 13.5354 35.0623H10.5539C9.58027 35.0623 8.78809 35.8544 8.78809 36.8283V38.9055C8.7882 39.8794 9.58027 40.6716 10.5539 40.6716ZM10.306 36.8282C10.306 36.6912 10.4172 36.5801 10.5539 36.5801H13.5354C13.672 36.5801 13.7832 36.6913 13.7832 36.8282V38.9054C13.7832 39.0424 13.672 39.1535 13.5354 39.1535H10.5539C10.4172 39.1535 10.306 39.0423 10.306 38.9054V36.8282Z" fill="#FF9900"/>
<path d="M22.1909 35.062H19.2096C18.236 35.062 17.4438 35.8542 17.4438 36.828V38.9053C17.4438 39.8791 18.236 40.6713 19.2096 40.6713H22.1909C23.1647 40.6713 23.9569 39.8791 23.9569 38.9053V36.828C23.9569 35.8542 23.1647 35.062 22.1909 35.062ZM22.439 38.9054C22.439 39.0424 22.3278 39.1535 22.1909 39.1535H19.2096C19.073 39.1535 18.9618 39.0423 18.9618 38.9054V36.8281C18.9618 36.6912 19.073 36.5801 19.2096 36.5801H22.1909C22.3279 36.5801 22.439 36.6913 22.439 36.8281V38.9054Z" fill="#FF9900"/>
<path d="M13.5355 47.8195C14.5091 47.8195 15.3012 47.0273 15.3012 46.0535V43.9762C15.3012 43.0024 14.5091 42.2102 13.5355 42.2102H10.5539C9.58027 42.2102 8.78809 43.0024 8.78809 43.9762V46.0535C8.78809 47.0273 9.58027 47.8195 10.5539 47.8195H13.5355ZM10.306 46.0535V43.9762C10.306 43.8392 10.4172 43.7281 10.5539 43.7281H13.5354C13.672 43.7281 13.7832 43.8393 13.7832 43.9762V46.0535C13.7832 46.1905 13.672 46.3016 13.5354 46.3016H10.5539C10.4172 46.3016 10.306 46.1905 10.306 46.0535Z" fill="#FF9900"/>
<path d="M22.1909 42.21H19.2096C18.236 42.21 17.4438 43.0021 17.4438 43.976V46.0532C17.4438 47.0271 18.236 47.8193 19.2096 47.8193H22.1909C23.1647 47.8193 23.9569 47.0271 23.9569 46.0532V43.976C23.9569 43.0021 23.1647 42.21 22.1909 42.21ZM22.439 46.0534C22.439 46.1904 22.3278 46.3014 22.1909 46.3014H19.2096C19.073 46.3014 18.9618 46.1902 18.9618 46.0534V43.9761C18.9618 43.8391 19.073 43.728 19.2096 43.728H22.1909C22.3279 43.728 22.439 43.8392 22.439 43.9761V46.0534Z" fill="#FF9900"/>
<path d="M15.0254 10.1949C15.0254 10.4279 15.0622 10.6523 15.1297 10.8631H13.337C12.1282 10.8631 11.1509 11.8394 11.1509 13.0493C11.1509 14.2546 12.1316 15.2354 13.337 15.2354H21.1867C22.3892 15.2354 23.3674 14.2546 23.3674 13.0493C23.3674 12.8163 23.331 12.5919 23.2634 12.3811H25.0558C26.2612 12.3811 27.2419 11.4003 27.2419 10.1949C27.2419 8.98953 26.2612 8.00879 25.0558 8.00879H17.2113C16.0029 8.00879 15.0254 8.9852 15.0254 10.1949ZM25.7242 10.1949C25.7242 10.5635 25.4244 10.8631 25.056 10.8631H21.1868C20.7676 10.8631 20.4279 11.2029 20.4279 11.622C20.4279 12.0412 20.7676 12.3809 21.1868 12.3809C21.5523 12.3809 21.8497 12.6807 21.8497 13.0491C21.8497 13.4177 21.5524 13.7173 21.1868 13.7173H13.3371C12.9686 13.7173 12.6689 13.4176 12.6689 13.0491C12.6689 12.6834 12.9613 12.3809 13.3371 12.3809H17.2116C17.6308 12.3809 17.9705 12.0412 17.9705 11.622C17.9705 11.2029 17.6308 10.8631 17.2116 10.8631C16.843 10.8631 16.5434 10.5634 16.5434 10.1949C16.5434 9.82367 16.8417 9.52672 17.2116 9.52672H25.056C25.4244 9.52672 25.7242 9.82637 25.7242 10.1949Z" fill="#FF9900"/>
<path d="M3.6876 8.73894H11.5373C12.7397 8.73894 13.718 7.75819 13.718 6.5528C13.718 6.31983 13.6816 6.09542 13.614 5.8846H15.4063C16.6121 5.8846 17.5927 4.90386 17.5927 3.69847C17.5927 2.49308 16.6122 1.51245 15.4065 1.51245H7.56217C6.35338 1.51245 5.37604 2.48886 5.37604 3.69858C5.37604 3.93155 5.41283 4.15597 5.48033 4.36679H3.6876C2.48303 4.36679 1.50146 5.33886 1.50146 6.55292C1.50158 7.75831 2.48221 8.73894 3.6876 8.73894ZM3.6876 5.8846H7.56205C7.98123 5.8846 8.32096 5.54487 8.32096 5.12569C8.32096 4.70651 7.98123 4.36679 7.56205 4.36679C7.1935 4.36679 6.89385 4.06702 6.89385 3.69858C6.89385 3.32733 7.19221 3.03038 7.56205 3.03038H15.4065C15.775 3.03038 16.075 3.33015 16.075 3.69858C16.075 4.06702 15.775 4.36679 15.4065 4.36679H11.5374C11.1182 4.36679 10.7785 4.70651 10.7785 5.12569C10.7785 5.54487 11.1182 5.8846 11.5374 5.8846C11.9029 5.8846 12.2003 6.18437 12.2003 6.5528C12.2003 6.92124 11.903 7.22101 11.5374 7.22101H3.6876C3.31904 7.22101 3.01939 6.92124 3.01939 6.5528C3.01939 6.19187 3.3065 5.8846 3.6876 5.8846Z" fill="#FF9900"/>
</g>
<defs>
<clipPath id="clip0_43_228">
<rect width="60" height="60" fill="white" transform="translate(0 0.807617)"/>
</clipPath>
</defs>
</svg>
