<svg width="30" height="31" viewBox="0 0 30 31" fill="none" xmlns="http://www.w3.org/2000/svg">
<g clip-path="url(#clip0_138_9122)">
<path d="M15 0.737305C8.66748 0.737305 3.51562 5.88916 3.51562 12.2217C3.51562 15.2979 5.37932 19.2482 9.0549 23.9626C10.7389 26.1169 12.5625 28.1583 14.514 30.0736C14.6449 30.1987 14.8189 30.2685 15 30.2685C15.1811 30.2685 15.3551 30.1987 15.486 30.0736C17.4375 28.1583 19.2611 26.1169 20.9451 23.9626C24.6207 19.2482 26.4844 15.2979 26.4844 12.2217C26.4844 5.88916 21.3325 0.737305 15 0.737305ZM15 28.5758C12.9247 26.4839 4.92188 18.0382 4.92188 12.2217C4.92188 6.66459 9.44291 2.14355 15 2.14355C20.5571 2.14355 25.0781 6.66459 25.0781 12.2217C25.0781 18.0382 17.0753 26.4839 15 28.5758Z" fill="white"/>
<path d="M20.6292 11.2327L15.4729 6.54516C15.3435 6.4275 15.1749 6.3623 15 6.3623C14.8251 6.3623 14.6564 6.4275 14.527 6.54516L9.37076 11.2327C9.26576 11.3281 9.1921 11.4531 9.15947 11.5912C9.12683 11.7293 9.13676 11.8741 9.18793 12.0065C9.2391 12.1388 9.32913 12.2526 9.44618 12.3328C9.56323 12.4131 9.70182 12.456 9.84373 12.456H10.5469V15.9717C10.5469 16.1581 10.6209 16.337 10.7528 16.4688C10.8847 16.6007 11.0635 16.6748 11.25 16.6748H13.8281C14.0146 16.6748 14.1934 16.6007 14.3253 16.4688C14.4571 16.337 14.5312 16.1581 14.5312 15.9717V13.8623H15.4687V15.9717C15.4687 16.1581 15.5428 16.337 15.6747 16.4688C15.8065 16.6007 15.9854 16.6748 16.1719 16.6748H18.75C18.9365 16.6748 19.1153 16.6007 19.2472 16.4688C19.379 16.337 19.4531 16.1581 19.4531 15.9717V12.456H20.1562C20.2981 12.456 20.4367 12.4131 20.5538 12.3328C20.6708 12.2526 20.7609 12.1388 20.812 12.0065C20.8632 11.8741 20.8731 11.7293 20.8405 11.5912C20.8079 11.4531 20.7342 11.3281 20.6292 11.2327ZM18.0469 11.7529V15.2685H16.875V13.1592C16.875 12.9727 16.8009 12.7938 16.669 12.662C16.5372 12.5301 16.3583 12.456 16.1719 12.456H13.8281C13.6416 12.456 13.4628 12.5301 13.3309 12.662C13.1991 12.7938 13.125 12.9727 13.125 13.1592V15.2685H11.9531V11.7529C11.9531 11.6243 11.9179 11.4982 11.8512 11.3882C11.7846 11.2783 11.689 11.1887 11.575 11.1292L15 8.01562L18.425 11.1292C18.3109 11.1887 18.2154 11.2783 18.1487 11.3882C18.0821 11.4982 18.0468 11.6243 18.0469 11.7529Z" fill="white"/>
</g>
<defs>
<clipPath id="clip0_138_9122">
<rect width="30" height="30" fill="white" transform="translate(0 0.50293)"/>
</clipPath>
</defs>
</svg>
