<svg width="61" height="61" viewBox="0 0 61 61" fill="none" xmlns="http://www.w3.org/2000/svg">
<path d="M49.1224 56.085C49.3435 56.085 49.5657 56.0039 49.7401 55.8409C50.1031 55.4999 50.1216 54.9289 49.7806 54.5649C41.5666 45.809 39.6923 35.138 38.9415 25.8533C38.7935 24.0592 37.3244 22.7056 35.5241 22.7056H25.2004C23.4229 22.7056 21.9257 24.0908 21.7918 25.8542C21.041 35.1388 19.1648 45.8106 10.9438 54.5647C10.6018 54.9278 10.6203 55.4989 10.9834 55.8399C11.3464 56.1818 11.9184 56.1641 12.2585 55.8003C20.862 46.6398 22.8148 35.5953 23.5912 25.9951C23.6546 25.1624 24.3614 24.5103 25.2003 24.5103H35.5239C36.377 24.5103 37.0722 25.1509 37.1418 26.0004C37.9182 35.5944 39.8702 46.6381 48.4639 55.8003C48.642 55.989 48.8818 56.085 49.1224 56.085Z" fill="#FF9900"/>
<path d="M2.25073 59.6982H58.4796C58.9784 59.6982 59.382 59.2946 59.382 58.7959C59.382 58.2971 58.9784 57.8936 58.4796 57.8936H2.25073C1.75198 57.8936 1.34839 58.2971 1.34839 58.7959C1.34827 59.2946 1.75198 59.6982 2.25073 59.6982Z" fill="#FF9900"/>
<path d="M53.5275 10.1146C53.5275 4.99877 47.7184 2.07318 43.5933 5.01576C40.6629 -0.172717 32.8089 1.61568 32.3444 7.47963C28.9211 8.78615 27.4263 12.7217 28.897 15.9386C27.6386 16.6453 26.8049 17.998 26.8049 19.4899C26.8049 19.9887 27.2085 20.3923 27.7073 20.3923C28.206 20.3923 28.6096 19.9887 28.6096 19.4899C28.6096 18.436 29.3577 17.5063 30.3897 17.2798C30.6841 17.2154 30.9272 17.0074 31.0366 16.7264C31.1458 16.4453 31.1079 16.1281 30.9352 15.8804C29.1773 13.3723 30.4361 9.81201 33.4643 9.01209C33.8891 8.90017 34.1693 8.48428 34.1323 8.04717L34.1306 7.95635C34.1306 3.12588 41.0316 2.1292 42.3886 6.77287C42.4803 7.08752 42.7349 7.32717 43.054 7.39947C43.373 7.47435 43.7062 7.36771 43.9247 7.12455C46.6449 4.10697 51.7227 6.019 51.7227 10.1146C51.7227 13.527 48.0472 15.6715 45.0932 14.036C44.8341 13.8933 44.5213 13.8853 44.256 14.0167C43.9908 14.1479 43.8066 14.401 43.7634 14.6944C43.6304 15.5977 43.0196 16.285 42.1313 16.5326C41.2342 16.7829 40.3468 16.5026 39.7537 15.7827C39.573 15.5642 39.3033 15.4364 39.0169 15.4558C38.7332 15.469 38.4724 15.6135 38.3129 15.8479C37.3647 17.2341 35.7009 17.9884 34.0645 17.7681C33.5587 17.7055 33.1154 18.0483 33.0493 18.5418C32.9832 19.0362 33.3295 19.4899 33.8229 19.557C35.7908 19.824 37.7797 19.0943 39.1491 17.6703C40.137 18.3805 41.391 18.6123 42.615 18.2713C43.8056 17.9391 44.7379 17.1319 45.2243 16.0629C49.2691 17.446 53.5275 14.4251 53.5275 10.1146Z" fill="#222222"/>
<path d="M29.5076 35.5259V39.2949C29.5076 39.7936 29.9112 40.1972 30.4099 40.1972C30.9087 40.1972 31.3123 39.7936 31.3123 39.2949V35.5259C31.3123 35.0271 30.9087 34.6235 30.4099 34.6235C29.9113 34.6235 29.5076 35.0271 29.5076 35.5259Z" fill="#FF9900"/>
<path d="M26.6398 44.1578L23.3757 46.0418C22.9438 46.2912 22.7958 46.8429 23.0452 47.2746C23.297 47.7092 23.8504 47.8521 24.278 47.6051L27.5422 45.721C27.974 45.4717 28.122 44.9199 27.8726 44.4882C27.6233 44.0564 27.0698 43.9084 26.6398 44.1578Z" fill="#FF9900"/>
<path d="M34.09 44.2087C33.6591 43.9593 33.1066 44.1065 32.8572 44.5392C32.6078 44.971 32.7559 45.5226 33.1877 45.772L36.4509 47.656C36.8812 47.9046 37.4342 47.7577 37.6837 47.3256C37.9331 46.8937 37.7851 46.3421 37.3532 46.0927L34.09 44.2087Z" fill="#FF9900"/>
</svg>
