<svg width="150" height="151" viewBox="0 0 150 151" fill="none" xmlns="http://www.w3.org/2000/svg">
<path d="M80.0346 74.593C78.4454 75.2831 76.7314 75.6392 74.9989 75.6392C73.2663 75.6392 71.5523 75.2831 69.9631 74.593L8.89171 46.3073C7.90001 45.8071 7.06661 45.0415 6.48434 44.0956C5.90206 43.1498 5.59375 42.0609 5.59375 40.9502C5.59375 39.8395 5.90206 38.7506 6.48434 37.8047C7.06661 36.8589 7.90001 36.0932 8.89171 35.593L69.9631 7.09303C71.5523 6.40296 73.2663 6.04687 74.9989 6.04688C76.7314 6.04688 78.4454 6.40296 80.0346 7.09303L141.106 35.3787C142.098 35.8789 142.931 36.6446 143.513 37.5904C144.096 38.5363 144.404 39.6252 144.404 40.7359C144.404 41.8466 144.096 42.9355 143.513 43.8813C142.931 44.8272 142.098 45.5928 141.106 46.093L80.0346 74.593Z" stroke="#FF9900" stroke-width="2" stroke-linecap="round" stroke-linejoin="round"/>
<path d="M144.645 79.4141L79.2879 109.521C77.8921 110.158 76.3757 110.487 74.8415 110.487C73.3073 110.487 71.791 110.158 70.3951 109.521L5.35938 79.4141" stroke="#FF9900" stroke-width="2" stroke-linecap="round" stroke-linejoin="round"/>
<path d="M144.645 114.234L79.2879 144.342C77.8921 144.978 76.3757 145.308 74.8415 145.308C73.3073 145.308 71.791 144.978 70.3951 144.342L5.35938 114.234" stroke="#FF9900" stroke-width="2" stroke-linecap="round" stroke-linejoin="round"/>
</svg>
