<svg width="25" height="25" viewBox="0 0 25 25" fill="none" xmlns="http://www.w3.org/2000/svg">
<g clip-path="url(#clip0_43_75)">
<path d="M24.378 11.0658C24.3379 10.7861 24.1342 10.5575 23.861 10.4856L22.6659 10.1712C22.42 9.21079 22.0402 8.29546 21.533 7.44051L22.1566 6.37129C22.2988 6.12726 22.2813 5.82182 22.112 5.5957C21.7711 5.14016 21.392 4.70296 20.9853 4.29609C20.5795 3.89015 20.1422 3.51102 19.6856 3.16912C19.4595 2.9998 19.154 2.98223 18.9099 3.12468L17.8408 3.7483C16.9859 3.24102 16.0706 2.86129 15.1102 2.61534L14.7958 1.42035C14.7238 1.14712 14.4954 0.943445 14.2157 0.903273C13.0876 0.741227 11.9123 0.741227 10.7842 0.903273C10.5045 0.943398 10.2761 1.14707 10.2042 1.42035L9.88972 2.61534C8.92939 2.86124 8.01416 3.24098 7.15911 3.7483L6.09008 3.12468C5.84605 2.98232 5.54047 2.9999 5.31434 3.16912C4.85783 3.51098 4.42053 3.8901 4.01464 4.29609C3.60795 4.70291 3.22888 5.14012 2.88791 5.59565C2.71864 5.82177 2.70111 6.12721 2.84337 6.37124L3.46691 7.44046C2.95967 8.29551 2.57994 9.21079 2.33403 10.1711L1.139 10.4856C0.865719 10.5575 0.662047 10.786 0.621969 11.0657C0.541063 11.6301 0.5 12.2073 0.5 12.7814C0.5 13.3556 0.541062 13.9328 0.622016 14.4971C0.662094 14.7768 0.865766 15.0054 1.13905 15.0772L2.33408 15.3917C2.58003 16.3521 2.95977 17.2674 3.46695 18.1224L2.84342 19.1916C2.70116 19.4356 2.71869 19.7411 2.88795 19.9672C3.22892 20.4227 3.608 20.8599 4.01473 21.2668C4.42053 21.6727 4.85783 22.0519 5.31439 22.3938C5.54052 22.563 5.846 22.5807 6.09013 22.4382L7.15916 21.8146C8.01411 22.3219 8.92944 22.7016 9.88977 22.9475L10.2043 24.1425C10.2762 24.4157 10.5046 24.6194 10.7843 24.6596C11.3483 24.7407 11.9256 24.7817 12.5 24.7817C13.0744 24.7817 13.6517 24.7407 14.2158 24.6597C14.4955 24.6195 14.7239 24.4159 14.7958 24.1426L15.1103 22.9476C16.0706 22.7017 16.9858 22.322 17.8409 21.8147L18.9099 22.4383C19.154 22.5808 19.4596 22.5632 19.6857 22.3939C20.1422 22.052 20.5795 21.6729 20.9854 21.2669C21.392 20.8601 21.7711 20.4229 22.1121 19.9673C22.2814 19.7412 22.2989 19.4358 22.1566 19.1917L21.5331 18.1225C22.0403 17.2675 22.4201 16.3522 22.666 15.3919L23.861 15.0774C24.1343 15.0055 24.338 14.777 24.378 14.4973C24.459 13.933 24.5 13.3558 24.5 12.7816C24.5 12.2074 24.4589 11.6301 24.378 11.0658ZM12.5 20.263C8.37481 20.263 5.01875 16.9069 5.01875 12.7817C5.01875 8.65654 8.37481 5.30048 12.5 5.30048C16.6252 5.30048 19.9813 8.65654 19.9813 12.7817C19.9813 16.9069 16.6252 20.263 12.5 20.263Z" fill="#FF9900"/>
<path d="M12.4998 6.70654C9.15002 6.70654 6.4248 9.43176 6.4248 12.7815C6.4248 16.1313 9.15002 18.8565 12.4998 18.8565C15.8496 18.8565 18.5748 16.1313 18.5748 12.7815C18.5748 9.43176 15.8496 6.70654 12.4998 6.70654ZM16.0095 11.7725L12.2439 15.5381C12.112 15.67 11.9332 15.7441 11.7467 15.7441C11.5602 15.7441 11.3814 15.67 11.2496 15.5381L9.36668 13.6553C9.09209 13.3807 9.09209 12.9355 9.36668 12.6609C9.64123 12.3864 10.0864 12.3864 10.361 12.6609L11.7467 14.0466L15.0152 10.7781C15.2897 10.5036 15.7349 10.5036 16.0095 10.7781C16.2841 11.0527 16.2841 11.4979 16.0095 11.7725Z" fill="#FF9900"/>
</g>
<defs>
<clipPath id="clip0_43_75">
<rect width="24" height="24" fill="white" transform="translate(0.5 0.78125)"/>
</clipPath>
</defs>
</svg>
