<svg width="41" height="41" viewBox="0 0 41 41" fill="none" xmlns="http://www.w3.org/2000/svg">
<g clip-path="url(#clip0_124_9065)">
<path d="M9.78585 17.9565C14.1252 17.9565 17.643 14.4387 17.643 10.0993C17.643 5.75995 14.1252 2.24219 9.78585 2.24219C5.44647 2.24219 1.92871 5.75995 1.92871 10.0993C1.92871 14.4387 5.44647 17.9565 9.78585 17.9565Z" stroke="#FF9900" stroke-width="2" stroke-linecap="round" stroke-linejoin="round"/>
<path d="M31.2146 17.9565C35.5539 17.9565 39.0717 14.4387 39.0717 10.0993C39.0717 5.75995 35.5539 2.24219 31.2146 2.24219C26.8752 2.24219 23.3574 5.75995 23.3574 10.0993C23.3574 14.4387 26.8752 17.9565 31.2146 17.9565Z" stroke="#222222" stroke-width="2" stroke-linecap="round" stroke-linejoin="round"/>
<path d="M9.78585 39.3852C14.1252 39.3852 17.643 35.8674 17.643 31.528C17.643 27.1887 14.1252 23.6709 9.78585 23.6709C5.44647 23.6709 1.92871 27.1887 1.92871 31.528C1.92871 35.8674 5.44647 39.3852 9.78585 39.3852Z" stroke="#222222" stroke-width="2" stroke-linecap="round" stroke-linejoin="round"/>
<path d="M31.2146 39.3852C35.5539 39.3852 39.0717 35.8674 39.0717 31.528C39.0717 27.1887 35.5539 23.6709 31.2146 23.6709C26.8752 23.6709 23.3574 27.1887 23.3574 31.528C23.3574 35.8674 26.8752 39.3852 31.2146 39.3852Z" stroke="#FF9900" stroke-width="2" stroke-linecap="round" stroke-linejoin="round"/>
</g>
<defs>
<clipPath id="clip0_124_9065">
<rect width="40" height="40" fill="white" transform="translate(0.5 0.813477)"/>
</clipPath>
</defs>
</svg>
