<svg width="60" height="61" viewBox="0 0 60 61" fill="none" xmlns="http://www.w3.org/2000/svg">
<path d="M13.6847 27.6712C14.0988 27.7111 14.471 27.4083 14.5124 26.992L14.6208 25.8973H22.4479L22.5555 26.992C22.5961 27.4019 22.9588 27.7111 23.3832 27.6712C23.7992 27.63 24.1032 27.2596 24.0624 26.8435C22.7463 13.4242 24.3985 30.2615 23.2626 18.7093C23.1446 17.5371 22.1674 16.6533 20.9896 16.6533H16.0782C14.8948 16.6533 13.9199 17.5395 13.8111 18.709C13.607 20.7691 13.1963 24.9181 13.0056 26.8435C12.9647 27.2595 13.2687 27.63 13.6847 27.6712ZM14.7706 24.3834L15.0248 21.8161H22.0467L22.2991 24.3834H14.7706ZM16.0781 18.1673H20.9895C21.3869 18.1673 21.7163 18.4653 21.7559 18.8591L21.8978 20.3021H15.1747L15.318 18.8549C15.3536 18.4695 15.6878 18.1673 16.0781 18.1673Z" fill="#FF9900"/>
<path d="M57.0048 52.7562H56.4577V39.8044C56.4577 38.452 55.3548 37.3517 53.999 37.3517H47.6424C47.6354 37.281 45.796 18.6497 45.8025 18.7149C45.693 17.5395 44.7181 16.6533 43.5348 16.6533H38.6237C37.4456 16.6533 36.4684 17.5371 36.3501 18.7108C36.2799 19.4247 35.5449 26.9044 35.5509 26.8435C35.5101 27.2595 35.8141 27.63 36.2301 27.6712C36.6423 27.7111 37.0167 27.4083 37.0578 26.992L37.1654 25.8973H44.9903L46.1211 37.3518H43.9587C43.5406 37.3518 43.2018 37.6907 43.2018 38.1087C43.2018 38.5267 43.5407 38.8656 43.9587 38.8656H53.9993C54.5203 38.8656 54.944 39.2867 54.944 39.8044V52.7563H52.6687V45.54C52.6687 44.4351 51.7698 43.5361 50.6648 43.5361H45.9682C44.8632 43.5361 43.9643 44.4351 43.9643 45.54V52.7563H41.6886V30.9904C41.6886 29.9978 40.8808 29.1899 39.8881 29.1899H5.34277C4.3502 29.1899 3.5423 29.9977 3.5423 30.9904V52.7562H2.99563C1.77477 52.7562 0.78125 53.7497 0.78125 54.9706C0.78125 56.1914 1.77477 57.185 2.99563 57.185H57.0048C58.2256 57.185 59.2191 56.1914 59.2191 54.9706C59.2191 53.7497 58.2257 52.7562 57.0048 52.7562ZM38.6238 18.1671H43.5349C43.9252 18.1671 44.2593 18.4694 44.2957 18.8608L44.4379 20.302H37.7151L37.8568 18.8604C37.8966 18.4653 38.2263 18.1671 38.6238 18.1671ZM37.3141 24.3832L37.5663 21.816H44.5873L44.8408 24.3832H37.3141ZM45.4782 45.5399C45.4782 45.2697 45.6979 45.05 45.9682 45.05H50.6646C50.9348 45.05 51.1545 45.2697 51.1545 45.5399V52.7562H45.4782V45.5399ZM5.05625 30.9904C5.05625 30.8325 5.18492 30.7039 5.34277 30.7039H39.8881C40.046 30.7039 40.1746 30.8325 40.1746 30.9904V52.7562H5.05625V30.9904ZM57.0048 55.6711H2.99563C2.60949 55.6711 2.29508 55.3568 2.29508 54.9706C2.29508 54.5845 2.60938 54.27 2.99563 54.27H57.0048C57.3909 54.27 57.7053 54.5843 57.7053 54.9706C57.7053 55.3568 57.3909 55.6711 57.0048 55.6711Z" fill="#FF9900"/>
<path d="M12.1696 34.2241H8.63969C7.15094 34.2241 5.93945 35.4356 5.93945 36.9244C5.93945 38.4135 7.15094 39.6249 8.63969 39.6249H12.1696C13.6584 39.6249 14.8698 38.4135 14.8698 36.9244C14.8698 35.4356 13.6585 34.2241 12.1696 34.2241ZM12.1696 38.111H8.63969C7.98566 38.111 7.4534 37.5787 7.4534 36.9244C7.4534 36.2703 7.98566 35.7381 8.63969 35.7381H12.1696C12.8236 35.7381 13.3559 36.2703 13.3559 36.9244C13.3559 37.5788 12.8237 38.111 12.1696 38.111Z" fill="#FF9900"/>
<path d="M24.3803 34.2241H20.8506C19.3619 34.2241 18.1504 35.4356 18.1504 36.9244C18.1504 38.4135 19.3619 39.6249 20.8506 39.6249H24.3803C25.8691 39.6249 27.0805 38.4135 27.0805 36.9244C27.0807 35.4356 25.8692 34.2241 24.3803 34.2241ZM24.3803 38.111H20.8506C20.1966 38.111 19.6643 37.5787 19.6643 36.9244C19.6643 36.2703 20.1966 35.7381 20.8506 35.7381H24.3803C25.0343 35.7381 25.5666 36.2703 25.5666 36.9244C25.5667 37.5788 25.0345 38.111 24.3803 38.111Z" fill="#FF9900"/>
<path d="M36.5915 34.2241H33.0616C31.5728 34.2241 30.3613 35.4356 30.3613 36.9244C30.3613 38.4135 31.5728 39.6249 33.0616 39.6249H36.5915C38.0802 39.6249 39.2917 38.4135 39.2917 36.9244C39.2917 35.4356 38.0804 34.2241 36.5915 34.2241ZM36.5915 38.111H33.0616C32.4075 38.111 31.8753 37.5787 31.8753 36.9244C31.8753 36.2703 32.4075 35.7381 33.0616 35.7381H36.5915C37.2455 35.7381 37.7778 36.2703 37.7778 36.9244C37.7779 37.5788 37.2456 38.111 36.5915 38.111Z" fill="#FF9900"/>
<path d="M17.0123 12.391C17.4304 12.391 17.7692 12.0521 17.7692 11.6341V11.2453C17.7692 9.84103 18.9114 8.6988 20.3157 8.6988H24.9152C27.1542 8.6988 28.9756 6.877 28.9756 4.63802C28.9756 4.21989 28.6367 3.8811 28.2187 3.8811C27.8006 3.8811 27.4618 4.22001 27.4618 4.63802C27.4618 6.04228 26.3196 7.18485 24.9153 7.18485H20.3158C18.0768 7.18485 16.2554 9.0063 16.2554 11.2453V11.6341C16.2553 12.0522 16.5942 12.391 17.0123 12.391Z" fill="#222222"/>
<path d="M27.1584 8.73486C26.7403 8.73486 26.4015 9.07377 26.4015 9.49178C26.4015 10.2972 25.7463 10.9528 24.9408 10.9528H21.8531C20.2129 10.9528 18.8784 12.2872 18.8784 13.9274V14.1882C18.8784 14.6063 19.2173 14.9451 19.6353 14.9451C20.0535 14.9451 20.3922 14.6062 20.3922 14.1882V13.9274C20.3922 13.122 21.0474 12.4667 21.853 12.4667H24.9406C26.5808 12.4667 27.9153 11.1323 27.9153 9.49178C27.9154 9.07377 27.5765 8.73486 27.1584 8.73486Z" fill="#222222"/>
<path d="M39.6846 12.391C40.1028 12.391 40.4416 12.0521 40.4416 11.6341V11.2453C40.4416 9.84103 41.5841 8.6988 42.9884 8.6988H47.5875C49.8265 8.6988 51.6483 6.877 51.6483 4.63802C51.6483 4.21989 51.3094 3.8811 50.8914 3.8811C50.4733 3.8811 50.1345 4.22001 50.1345 4.63802C50.1345 6.04228 48.9919 7.18485 47.5877 7.18485H42.9885C40.7495 7.18485 38.9277 9.0063 38.9277 11.2453V11.6341C38.9276 12.0522 39.2665 12.391 39.6846 12.391Z" fill="#222222"/>
<path d="M49.8308 8.73486C49.4127 8.73486 49.0739 9.07377 49.0739 9.49178C49.0739 10.2972 48.4187 10.9528 47.6131 10.9528H44.5255C42.8853 10.9528 41.5508 12.2872 41.5508 13.9274V14.1882C41.5508 14.6063 41.8897 14.9451 42.3077 14.9451C42.7257 14.9451 43.0646 14.6062 43.0646 14.1882V13.9274C43.0646 13.122 43.7198 12.4667 44.5254 12.4667H47.613C49.2532 12.4667 50.5877 11.1323 50.5877 9.49178C50.5878 9.07377 50.2489 8.73486 49.8308 8.73486Z" fill="#222222"/>
</svg>
