<svg width="51" height="51" viewBox="0 0 51 51" fill="none" xmlns="http://www.w3.org/2000/svg">
<path d="M9.66143 28.2686C10.0649 28.2686 10.3921 27.9415 10.3921 27.5379V18.0973C10.3921 17.0883 10.8944 16.1556 11.7383 15.6008C12.3513 15.1948 12.8586 14.6421 13.2054 14.0017C13.5543 13.3559 13.7388 12.6266 13.7388 11.8934V10.8266H16.1503V11.8863C16.1503 13.3919 16.8964 14.7813 18.1476 15.6037C18.9496 16.1271 19.4966 17.0451 19.4966 18.0973V27.5234C19.4966 27.9269 19.8237 28.2541 20.2272 28.2541C20.6308 28.2541 20.9579 27.9269 20.9579 27.5234V18.0973C20.9579 16.5595 20.1685 15.1768 18.9481 14.3814C18.1111 13.8312 17.6116 12.8986 17.6116 11.8864C17.6115 11.8125 17.6056 8.002 17.606 8.24282C17.606 7.22065 16.7743 6.38892 15.752 6.38892H14.1301C13.1075 6.38892 12.2759 7.22056 12.2759 8.24282C12.2759 8.31675 12.2774 12.1343 12.2773 11.8935C12.2773 12.3852 12.1535 12.874 11.9198 13.3068C11.6872 13.7364 11.345 14.1084 10.9333 14.3814C9.6792 15.2056 8.93066 16.5946 8.93066 18.0973V27.5379C8.93066 27.9415 9.25791 28.2686 9.66143 28.2686ZM13.7374 8.24272C13.7374 8.02612 13.9137 7.85024 14.1303 7.85024H15.7522C15.9688 7.85024 16.1447 8.02612 16.1447 8.24272V9.36343H13.7375L13.7374 8.24272Z" fill="#FF9900"/>
<path d="M24.6918 28.254C25.0953 28.254 25.4225 27.9269 25.4225 27.5234V18.0973C25.4225 17.0883 25.9248 16.1556 26.7683 15.6008C27.3812 15.1951 27.8886 14.6425 28.2361 14.0017C28.5851 13.3555 28.7691 12.6263 28.7691 11.8934V10.8266H31.1804V11.8863C31.1804 13.3944 31.9296 14.7841 33.1812 15.6012C33.5958 15.8756 33.9369 16.2488 34.1717 16.6869C34.4043 17.1122 34.5271 17.5999 34.5271 18.0973V27.5234C34.5271 27.9269 34.8539 28.254 35.2577 28.254C35.6616 28.254 35.9884 27.9269 35.9884 27.5234V18.0973C35.9884 17.3552 35.8035 16.6252 35.4567 15.9915C35.1113 15.3464 34.6033 14.7899 33.9839 14.3799C33.1433 13.8312 32.6416 12.8989 32.6416 11.8863C32.6415 11.8123 32.637 8.00188 32.6373 8.2427C32.6373 7.22053 31.806 6.38879 30.7834 6.38879H29.1616C28.1391 6.38879 27.3077 7.22043 27.3077 8.2427C27.3077 8.38166 27.3077 12.0234 27.3077 11.8934C27.3077 12.3851 27.1843 12.8739 26.9509 13.3063C26.7176 13.7363 26.3758 14.1083 25.9633 14.3813C24.7095 15.2055 23.9609 16.5948 23.9609 18.0972V27.5233C23.961 27.9268 24.2883 28.254 24.6918 28.254ZM28.7691 8.2427C28.7691 8.0261 28.9454 7.85022 29.1616 7.85022H30.7836C30.9998 7.85022 31.1761 8.0261 31.1761 8.2427V9.3634H28.7691V8.2427Z" fill="#FF9900"/>
<path d="M10.1408 45.2929H41.3289C45.6239 45.2929 49.1177 41.7988 49.1177 37.5041C49.1177 33.2094 45.624 29.7153 41.3289 29.7153H10.1408C5.84609 29.7153 2.35205 33.2094 2.35205 37.5041C2.35205 41.7988 5.84619 45.2929 10.1408 45.2929ZM10.1408 31.1768H41.3289C44.8176 31.1768 47.6562 34.015 47.6562 37.5041C47.6562 40.9932 44.8177 43.8314 41.3289 43.8314H10.1408C6.65176 43.8314 3.81348 40.9932 3.81348 37.5041C3.81348 34.015 6.65176 31.1768 10.1408 31.1768Z" fill="#FF9900"/>
<path d="M11.6672 39.3088C12.0707 39.3088 12.3979 38.9816 12.3979 38.5781V36.4302C12.3979 36.0267 12.0707 35.6996 11.6672 35.6996C11.2637 35.6996 10.9365 36.0267 10.9365 36.4302V38.5781C10.9364 38.9815 11.2637 39.3088 11.6672 39.3088Z" fill="white"/>
<path d="M18.7009 39.3088C19.1044 39.3088 19.4315 38.9816 19.4315 38.5781V36.4302C19.4315 36.0267 19.1044 35.6996 18.7009 35.6996C18.2974 35.6996 17.9702 36.0267 17.9702 36.4302V38.5781C17.9701 38.9815 18.2973 39.3088 18.7009 39.3088Z" fill="white"/>
<path d="M25.7351 39.3088C26.139 39.3088 26.4657 38.9816 26.4657 38.5781V36.4302C26.4657 36.0267 26.1389 35.6996 25.7351 35.6996C25.3315 35.6996 25.0044 36.0267 25.0044 36.4302V38.5781C25.0043 38.9815 25.3315 39.3088 25.7351 39.3088Z" fill="white"/>
<path d="M32.7687 39.3088C33.1727 39.3088 33.4994 38.9816 33.4994 38.5781V36.4302C33.4994 36.0267 33.1726 35.6996 32.7687 35.6996C32.3648 35.6996 32.0381 36.0267 32.0381 36.4302V38.5781C32.0381 38.9815 32.3649 39.3088 32.7687 39.3088Z" fill="white"/>
<path d="M39.8024 39.3088C40.2063 39.3088 40.5331 38.9816 40.5331 38.5781V36.4302C40.5331 36.0267 40.2062 35.6996 39.8024 35.6996C39.3985 35.6996 39.0718 36.0267 39.0718 36.4302V38.5781C39.0718 38.9815 39.3985 39.3088 39.8024 39.3088Z" fill="white"/>
</svg>
