<svg width="30" height="31" viewBox="0 0 30 31" fill="none" xmlns="http://www.w3.org/2000/svg">
<path d="M19.7836 29.753C19.659 29.753 19.5335 29.7421 19.4089 29.7197C15.1192 28.9475 10.843 26.6092 7.36841 23.1346C3.89385 19.66 1.55548 15.3838 0.783285 11.0941C0.6378 10.2845 0.97707 9.44247 1.64766 8.94888C2.50643 8.31688 3.43177 7.72934 4.39745 7.20365C5.0377 6.85525 5.79252 6.83581 6.41805 7.15093C8.55645 8.22882 9.9739 10.0241 10.6309 12.4868C10.8091 13.1532 10.6504 13.8759 10.2066 14.4196L8.78969 16.1534C8.56263 16.4314 8.53495 16.8148 8.72107 17.1076C9.92648 19.0042 11.4988 20.5765 13.3955 21.7816C13.6879 21.9681 14.0713 21.9401 14.3497 21.7133L16.0831 20.2967C16.6271 19.8526 17.3489 19.6942 18.0165 19.8721C20.4789 20.5294 22.2742 21.9469 23.3521 24.0853C23.6675 24.7102 23.6481 25.4653 23.2997 26.1056C22.7737 27.0712 22.1861 27.9966 21.5538 28.8554C21.1365 29.4226 20.4695 29.753 19.7836 29.753ZM5.46974 8.28448C5.32808 8.28448 5.18201 8.32159 5.04654 8.39551C4.13446 8.89204 3.26184 9.44601 2.45224 10.0418C2.19514 10.2312 2.06438 10.5498 2.11916 10.8537C2.84246 14.8737 5.04742 18.8943 8.32791 22.1751C11.6087 25.4556 15.6293 27.6605 19.6493 28.3838C19.9538 28.4383 20.2718 28.3076 20.4609 28.0508C21.057 27.2412 21.611 26.3686 22.1078 25.4565C22.243 25.2079 22.2553 24.9237 22.1405 24.6964C21.2313 22.8931 19.768 21.7439 17.6664 21.1832C17.4202 21.1178 17.1486 21.1788 16.9416 21.3478L15.2084 22.7641C14.476 23.3625 13.4544 23.4279 12.6674 22.927C10.6018 21.6144 8.88865 19.9012 7.57574 17.8356C7.07509 17.0481 7.14047 16.0267 7.7389 15.2946L9.15547 13.5611C9.32422 13.3544 9.38577 13.0837 9.3198 12.8369C8.75907 10.7351 7.60991 9.27166 5.80695 8.36252C5.70328 8.3104 5.58813 8.28448 5.46974 8.28448Z" fill="white"/>
<path d="M28.5603 16.2157C28.5506 16.2157 28.5409 16.2154 28.5314 16.2151C28.1568 16.1995 27.8662 15.8832 27.8818 15.5089C28.0267 12.0511 26.7111 8.66933 24.2726 6.23024C21.8338 3.79174 18.4591 2.46941 14.9939 2.62108C14.6335 2.63051 14.3033 2.34631 14.2877 1.9714C14.2721 1.59709 14.5628 1.28079 14.9371 1.26518C18.7736 1.10261 22.5253 2.56424 25.2321 5.27074C27.9386 7.97724 29.3985 11.7298 29.2377 15.5657C29.2223 15.9303 28.922 16.2157 28.5603 16.2157Z" fill="white"/>
<path d="M24.95 16.2158C24.9367 16.2158 24.9232 16.2155 24.9096 16.2147C24.5353 16.1926 24.2499 15.8716 24.272 15.4975C24.4193 12.9957 23.4904 10.5472 21.7231 8.77989C19.9558 7.01257 17.5058 6.08606 15.0054 6.23095C14.6293 6.25599 14.3104 5.96767 14.2883 5.59335C14.2662 5.21933 14.5516 4.89832 14.9259 4.87623C17.8109 4.70453 20.6417 5.77918 22.6826 7.8204C24.7238 9.86161 25.797 12.6889 25.6267 15.5771C25.6055 15.9378 25.3066 16.2158 24.95 16.2158Z" fill="white"/>
<path d="M21.3438 16.2159C21.3226 16.2159 21.3014 16.2151 21.2799 16.213C20.9067 16.1782 20.6325 15.8475 20.6673 15.4744C20.811 13.9335 20.2668 12.4227 19.1736 11.3295C18.0804 10.2366 16.5707 9.69177 15.0287 9.83578C14.6559 9.86965 14.3245 9.59635 14.2901 9.22321C14.2553 8.85008 14.5295 8.51935 14.9026 8.4846C16.8487 8.30348 18.7536 8.99056 20.1331 10.37C21.5128 11.7495 22.1999 13.6561 22.0185 15.6004C21.9858 15.9521 21.6901 16.2159 21.3438 16.2159Z" fill="white"/>
</svg>
