<svg width="51" height="51" viewBox="0 0 51 51" fill="none" xmlns="http://www.w3.org/2000/svg">
<path d="M9.66045 28.2686C10.064 28.2686 10.3911 27.9415 10.3911 27.5379V18.0973C10.3911 17.0883 10.8935 16.1556 11.7373 15.6008C12.3503 15.1948 12.8576 14.6421 13.2044 14.0017C13.5533 13.3559 13.7378 12.6266 13.7378 11.8934V10.8266H16.1493V11.8863C16.1493 13.3919 16.8954 14.7813 18.1466 15.6037C18.9486 16.1271 19.4956 17.0451 19.4956 18.0973V27.5234C19.4956 27.9269 19.8228 28.2541 20.2263 28.2541C20.6298 28.2541 20.9569 27.9269 20.9569 27.5234V18.0973C20.9569 16.5595 20.1675 15.1768 18.9472 14.3814C18.1102 13.8312 17.6106 12.8986 17.6106 11.8864C17.6105 11.8125 17.6046 8.002 17.605 8.24282C17.605 7.22065 16.7733 6.38892 15.7511 6.38892H14.1291C13.1065 6.38892 12.2749 7.22056 12.2749 8.24282C12.2749 8.31675 12.2765 12.1343 12.2764 11.8935C12.2764 12.3852 12.1525 12.874 11.9188 13.3068C11.6862 13.7364 11.344 14.1084 10.9323 14.3814C9.67822 15.2056 8.92969 16.5946 8.92969 18.0973V27.5379C8.92969 27.9415 9.25693 28.2686 9.66045 28.2686ZM13.7364 8.24272C13.7364 8.02612 13.9127 7.85024 14.1293 7.85024H15.7513C15.9679 7.85024 16.1438 8.02612 16.1438 8.24272V9.36343H13.7365L13.7364 8.24272Z" fill="#FF9900"/>
<path d="M24.6918 28.254C25.0953 28.254 25.4225 27.9269 25.4225 27.5234V18.0973C25.4225 17.0883 25.9248 16.1556 26.7683 15.6008C27.3812 15.1951 27.8886 14.6425 28.2361 14.0017C28.5851 13.3555 28.7691 12.6263 28.7691 11.8934V10.8266H31.1804V11.8863C31.1804 13.3944 31.9296 14.7841 33.1812 15.6012C33.5958 15.8756 33.9369 16.2488 34.1717 16.6869C34.4043 17.1122 34.5271 17.5999 34.5271 18.0973V27.5234C34.5271 27.9269 34.8539 28.254 35.2577 28.254C35.6616 28.254 35.9884 27.9269 35.9884 27.5234V18.0973C35.9884 17.3552 35.8035 16.6252 35.4567 15.9915C35.1113 15.3464 34.6033 14.7899 33.9839 14.3799C33.1433 13.8312 32.6416 12.8989 32.6416 11.8863C32.6415 11.8123 32.637 8.00188 32.6373 8.2427C32.6373 7.22053 31.806 6.38879 30.7834 6.38879H29.1616C28.1391 6.38879 27.3077 7.22043 27.3077 8.2427C27.3077 8.38166 27.3077 12.0234 27.3077 11.8934C27.3077 12.3851 27.1843 12.8739 26.9509 13.3063C26.7176 13.7363 26.3758 14.1083 25.9633 14.3813C24.7095 15.2055 23.9609 16.5948 23.9609 18.0972V27.5233C23.961 27.9268 24.2883 28.254 24.6918 28.254ZM28.7691 8.2427C28.7691 8.0261 28.9454 7.85022 29.1616 7.85022H30.7836C30.9998 7.85022 31.1761 8.0261 31.1761 8.2427V9.3634H28.7691V8.2427Z" fill="#FF9900"/>
<path d="M10.1403 45.2929H41.3284C45.6234 45.2929 49.1172 41.7988 49.1172 37.5041C49.1172 33.2094 45.6235 29.7153 41.3284 29.7153H10.1403C5.84561 29.7153 2.35156 33.2094 2.35156 37.5041C2.35156 41.7988 5.8457 45.2929 10.1403 45.2929ZM10.1403 31.1768H41.3284C44.8171 31.1768 47.6558 34.015 47.6558 37.5041C47.6558 40.9932 44.8172 43.8314 41.3284 43.8314H10.1403C6.65127 43.8314 3.81299 40.9932 3.81299 37.5041C3.81299 34.015 6.65127 31.1768 10.1403 31.1768Z" fill="#FF9900"/>
<path d="M11.6662 39.3088C12.0697 39.3088 12.3969 38.9816 12.3969 38.5781V36.4302C12.3969 36.0267 12.0697 35.6996 11.6662 35.6996C11.2627 35.6996 10.9355 36.0267 10.9355 36.4302V38.5781C10.9354 38.9815 11.2627 39.3088 11.6662 39.3088Z" fill="#222222"/>
<path d="M18.7004 39.3088C19.1039 39.3088 19.4311 38.9816 19.4311 38.5781V36.4302C19.4311 36.0267 19.1039 35.6996 18.7004 35.6996C18.2969 35.6996 17.9697 36.0267 17.9697 36.4302V38.5781C17.9696 38.9815 18.2968 39.3088 18.7004 39.3088Z" fill="#222222"/>
<path d="M25.7346 39.3088C26.1385 39.3088 26.4652 38.9816 26.4652 38.5781V36.4302C26.4652 36.0267 26.1384 35.6996 25.7346 35.6996C25.3311 35.6996 25.0039 36.0267 25.0039 36.4302V38.5781C25.0038 38.9815 25.3311 39.3088 25.7346 39.3088Z" fill="#222222"/>
<path d="M32.7678 39.3088C33.1717 39.3088 33.4984 38.9816 33.4984 38.5781V36.4302C33.4984 36.0267 33.1716 35.6996 32.7678 35.6996C32.3639 35.6996 32.0371 36.0267 32.0371 36.4302V38.5781C32.0371 38.9815 32.364 39.3088 32.7678 39.3088Z" fill="#222222"/>
<path d="M39.802 39.3088C40.2059 39.3088 40.5326 38.9816 40.5326 38.5781V36.4302C40.5326 36.0267 40.2058 35.6996 39.802 35.6996C39.398 35.6996 39.0713 36.0267 39.0713 36.4302V38.5781C39.0713 38.9815 39.398 39.3088 39.802 39.3088Z" fill="#222222"/>
</svg>
