<svg width="21" height="21" viewBox="0 0 21 21" fill="none" xmlns="http://www.w3.org/2000/svg">
<g clip-path="url(#clip0_43_717)">
<path d="M10.2617 20.6631C15.775 20.6631 20.2617 16.1764 20.2617 10.6631C20.2617 5.14976 15.7751 0.663086 10.2617 0.663086C4.74834 0.663086 0.261719 5.14976 0.261719 10.6631C0.261719 16.1764 4.7484 20.6631 10.2617 20.6631ZM10.2617 1.9964C15.0417 1.9964 18.9284 5.88305 18.9284 10.6631C18.9284 15.4431 15.0418 19.3298 10.2617 19.3298C5.48168 19.3298 1.59503 15.4431 1.59503 10.6631C1.59503 5.88305 5.48174 1.9964 10.2617 1.9964Z" fill="#FF9900"/>
<path d="M13.1771 13.8498C13.3004 13.9497 13.4471 13.9964 13.5937 13.9964C13.7904 13.9964 13.9837 13.9098 14.1137 13.7464C14.3437 13.4598 14.297 13.0398 14.0104 12.8097L10.9271 10.3431V5.32974C10.9271 4.96307 10.6271 4.66309 10.2604 4.66309C9.89373 4.66309 9.59375 4.96307 9.59375 5.32974V10.6631C9.59375 10.8664 9.6871 11.0564 9.84375 11.1831L13.1771 13.8498Z" fill="#FF9900"/>
</g>
<defs>
<clipPath id="clip0_43_717">
<rect width="20" height="20" fill="white" transform="translate(0.261719 0.663086)"/>
</clipPath>
</defs>
</svg>
