<svg width="16" height="17" viewBox="0 0 16 17" fill="none" xmlns="http://www.w3.org/2000/svg">
<g clip-path="url(#clip0_43_116)">
<path d="M8 11.5562C8.59334 11.5562 9.17336 11.3802 9.66671 11.0506C10.1601 10.7209 10.5446 10.2524 10.7716 9.7042C10.9987 9.15603 11.0581 8.55283 10.9424 7.97088C10.8266 7.38894 10.5409 6.85439 10.1213 6.43483C9.70176 6.01528 9.16721 5.72955 8.58527 5.6138C8.00333 5.49804 7.40013 5.55745 6.85195 5.78452C6.30377 6.01158 5.83524 6.3961 5.50559 6.88944C5.17595 7.38279 5 7.96281 5 8.55615C5 9.3518 5.31607 10.1149 5.87868 10.6775C6.44129 11.2401 7.20435 11.5562 8 11.5562ZM8 6.55615C8.39556 6.55615 8.78224 6.67345 9.11114 6.89321C9.44004 7.11298 9.69638 7.42533 9.84776 7.79079C9.99913 8.15624 10.0387 8.55837 9.96157 8.94633C9.8844 9.3343 9.69392 9.69066 9.41421 9.97037C9.13451 10.2501 8.77814 10.4406 8.39018 10.5177C8.00222 10.5949 7.60009 10.5553 7.23463 10.4039C6.86918 10.2525 6.55682 9.99619 6.33706 9.66729C6.1173 9.3384 6 8.95172 6 8.55615C6 8.02572 6.21071 7.51701 6.58579 7.14194C6.96086 6.76687 7.46957 6.55615 8 6.55615Z" fill="#FF9900"/>
<path d="M2.28491 8.96615L1.49991 9.43115C1.17703 9.62274 0.943171 9.93439 0.849471 10.2979C0.755771 10.6615 0.809859 11.0474 0.999906 11.3712L2.07991 13.2412C2.27149 13.564 2.58315 13.7979 2.9467 13.8916C3.31026 13.9853 3.69612 13.9312 4.01991 13.7412L4.79991 13.2912C4.87525 13.251 4.95962 13.2308 5.04497 13.2325C5.13033 13.2342 5.21383 13.2577 5.28752 13.3008C5.3612 13.344 5.42263 13.4052 5.46593 13.4788C5.50924 13.5524 5.53298 13.6358 5.53491 13.7212V14.6162C5.53083 14.9898 5.67371 15.3502 5.93277 15.6195C6.19183 15.8889 6.54634 16.0457 6.91991 16.0562H9.07991C9.45611 16.0548 9.81652 15.9048 10.0825 15.6388C10.3486 15.3728 10.4986 15.0124 10.4999 14.6362V13.7362C10.5021 13.6506 10.5263 13.5671 10.5701 13.4935C10.6139 13.42 10.6758 13.3589 10.7499 13.3162C10.8259 13.2723 10.9121 13.2492 10.9999 13.2492C11.0877 13.2492 11.1739 13.2723 11.2499 13.3162L12.0249 13.7612C12.3487 13.9512 12.7346 14.0053 13.0981 13.9116C13.4617 13.8179 13.7733 13.584 13.9649 13.2612L15.0449 11.3912C15.235 11.0674 15.289 10.6815 15.1953 10.3179C15.1016 9.95439 14.8678 9.64274 14.5449 9.45115L13.7449 8.98615C13.6789 8.94007 13.625 8.87874 13.5878 8.80735C13.5505 8.73597 13.5311 8.65666 13.5311 8.57615C13.5311 8.49565 13.5505 8.41633 13.5878 8.34495C13.625 8.27357 13.6789 8.21223 13.7449 8.16615L14.5449 7.70115C14.8678 7.50957 15.1016 7.19791 15.1953 6.83436C15.289 6.4708 15.235 6.08493 15.0449 5.76115L13.9549 3.87115C13.7633 3.54828 13.4517 3.31442 13.0881 3.22072C12.7246 3.12702 12.3387 3.18111 12.0149 3.37115L11.2399 3.81615C11.1633 3.85808 11.077 3.87921 10.9897 3.87744C10.9024 3.87566 10.817 3.85104 10.7422 3.80603C10.6673 3.76102 10.6056 3.69719 10.5631 3.62089C10.5206 3.54459 10.4988 3.45849 10.4999 3.37115V2.47615C10.4986 2.09995 10.3486 1.73953 10.0825 1.47352C9.81652 1.2075 9.45611 1.05747 9.07991 1.05615H6.91991C6.5437 1.05747 6.18329 1.2075 5.91727 1.47352C5.65125 1.73953 5.50122 2.09995 5.49991 2.47615V3.37615C5.49715 3.46108 5.47281 3.5439 5.42916 3.6168C5.38551 3.6897 5.32401 3.75027 5.25045 3.79281C5.1769 3.83534 5.09372 3.85842 5.00876 3.85988C4.92381 3.86135 4.83988 3.84113 4.76491 3.80115L3.99991 3.35115C3.67612 3.16111 3.29026 3.10702 2.9267 3.20072C2.56315 3.29442 2.25149 3.52828 2.05991 3.85115L0.964906 5.74115C0.774859 6.06493 0.720771 6.4508 0.814471 6.81436C0.908171 7.17791 1.14203 7.48957 1.46491 7.68115L2.26491 8.14615C2.33092 8.19223 2.38483 8.25357 2.42206 8.32495C2.45928 8.39633 2.47872 8.47565 2.47872 8.55615C2.47872 8.63666 2.45928 8.71597 2.42206 8.78735C2.38483 8.85874 2.33092 8.92007 2.26491 8.96615H2.28491ZM2.78491 7.27615L1.99991 6.81615C1.90388 6.75973 1.83384 6.66787 1.80486 6.56034C1.77587 6.45281 1.79025 6.33819 1.84491 6.24115L2.90991 4.37115C2.93785 4.3216 2.97545 4.27816 3.0205 4.24341C3.06554 4.20866 3.1171 4.1833 3.17212 4.16885C3.22714 4.15439 3.2845 4.15113 3.34081 4.15926C3.39711 4.16738 3.45122 4.18673 3.49991 4.21615L4.27991 4.66615C4.50642 4.79014 4.7611 4.85355 5.0193 4.85025C5.27751 4.84695 5.53049 4.77705 5.75375 4.64731C5.97702 4.51757 6.16302 4.3324 6.29373 4.1097C6.42445 3.88701 6.49547 3.63434 6.49991 3.37615V2.47615C6.5012 2.36516 6.54587 2.25909 6.62436 2.1806C6.70284 2.10212 6.80892 2.05745 6.91991 2.05615H9.07991C9.19089 2.05745 9.29697 2.10212 9.37545 2.1806C9.45394 2.25909 9.49861 2.36516 9.49991 2.47615V3.37115C9.5016 3.63265 9.57164 3.88917 9.70306 4.11525C9.83448 4.34133 10.0227 4.52913 10.2491 4.66001C10.4755 4.7909 10.7322 4.86032 10.9937 4.8614C11.2552 4.86247 11.5124 4.79517 11.7399 4.66615L12.4999 4.21615C12.5969 4.1615 12.7116 4.14711 12.8191 4.1761C12.9266 4.20509 13.0185 4.27513 13.0749 4.37115L14.1549 6.24115C14.2096 6.33819 14.2239 6.45281 14.195 6.56034C14.166 6.66787 14.0959 6.75973 13.9999 6.81615L13.1999 7.27615C12.9806 7.41014 12.7994 7.59821 12.6737 7.82235C12.548 8.04649 12.482 8.29917 12.482 8.55615C12.482 8.81314 12.548 9.06582 12.6737 9.28995C12.7994 9.51409 12.9806 9.70217 13.1999 9.83615L13.9999 10.2962C14.0959 10.3526 14.166 10.4444 14.195 10.552C14.2239 10.6595 14.2096 10.7741 14.1549 10.8712L13.0749 12.7412C13.0185 12.8372 12.9266 12.9072 12.8191 12.9362C12.7116 12.9652 12.5969 12.9508 12.4999 12.8962L11.7249 12.4462C11.4969 12.3145 11.2382 12.2452 10.9749 12.2452C10.7116 12.2452 10.4529 12.3145 10.2249 12.4462C10.0008 12.5779 9.81561 12.7667 9.68825 12.9933C9.56089 13.2199 9.4959 13.4762 9.49991 13.7362V14.6362C9.49861 14.7471 9.45394 14.8532 9.37545 14.9317C9.29697 15.0102 9.19089 15.0549 9.07991 15.0562H6.91991C6.80892 15.0549 6.70284 15.0102 6.62436 14.9317C6.54587 14.8532 6.5012 14.7471 6.49991 14.6362V13.7412C6.49991 13.3433 6.34187 12.9618 6.06057 12.6805C5.77926 12.3992 5.39773 12.2412 4.99991 12.2412C4.7398 12.2405 4.48426 12.3095 4.25991 12.4412L3.49991 12.8962C3.40287 12.9508 3.28825 12.9652 3.18072 12.9362C3.07318 12.9072 2.98133 12.8372 2.92491 12.7412L1.82991 10.8712C1.77647 10.7723 1.76436 10.6563 1.79622 10.5486C1.82808 10.4408 1.90131 10.3501 1.99991 10.2962L2.79991 9.83615C3.0192 9.70217 3.2004 9.51409 3.32611 9.28995C3.45183 9.06582 3.51786 8.81314 3.51786 8.55615C3.51786 8.29917 3.45183 8.04649 3.32611 7.82235C3.2004 7.59821 3.0192 7.41014 2.79991 7.27615H2.78491Z" fill="#FF9900"/>
</g>
<defs>
<clipPath id="clip0_43_116">
<rect width="16" height="16" fill="white" transform="translate(0 0.556152)"/>
</clipPath>
</defs>
</svg>
