<svg width="31" height="31" viewBox="0 0 31 31" fill="none" xmlns="http://www.w3.org/2000/svg">
<g clip-path="url(#clip0_147_18081)">
<path d="M25.3173 4.04742C22.7515 4.04742 20.5909 5.81602 19.9908 8.19815H3.00426C2.43021 8.19815 1.88781 8.41817 1.47578 8.81795C1.47537 8.81836 1.4749 8.81877 1.47449 8.81918C1.47314 8.82053 1.47174 8.82182 1.47033 8.82317C1.04424 9.23965 0.80957 9.79711 0.80957 10.3928V24.5861C0.80957 25.1906 1.06258 25.774 1.50355 26.187C1.50443 26.1878 1.50531 26.1887 1.50619 26.1895C1.91412 26.5708 2.44609 26.7808 3.00426 26.7808H23.7085C24.2649 26.7808 24.7954 26.5722 25.2026 26.1933C25.2055 26.1906 25.2084 26.188 25.2113 26.1852C25.651 25.7721 25.9032 25.1896 25.9032 24.5861V15.001C28.6572 14.7076 30.8096 12.3703 30.8096 9.53971C30.8096 6.51129 28.3458 4.04742 25.3173 4.04742ZM3.00426 9.37002H19.8276C19.8259 9.42639 19.8251 9.48293 19.8251 9.53971C19.8251 10.5891 20.1209 11.5706 20.6335 12.4054L13.7394 18.9223H12.9735L2.87652 9.37787C2.91859 9.37266 2.96125 9.37002 3.00426 9.37002ZM1.98145 10.3928C1.98145 10.3161 1.98982 10.2408 2.00611 10.1678L10.2145 17.927L2.02691 24.8889C1.99721 24.7923 1.98145 24.6906 1.98145 24.5861V10.3928ZM23.7085 25.6089H3.00426C2.99945 25.6089 2.99477 25.6083 2.99002 25.6082L11.0712 18.7368L12.3379 19.9341C12.4467 20.037 12.5907 20.0942 12.7404 20.0942H13.9725C14.1222 20.0942 14.2662 20.0369 14.375 19.9341L15.6416 18.7368L23.7235 25.6088C23.7185 25.6088 23.7135 25.6089 23.7085 25.6089ZM24.7313 24.5861C24.7313 24.6907 24.7159 24.7925 24.6862 24.8891L16.4983 17.9269L21.3533 13.3376C22.2265 14.2486 23.4096 14.8602 24.7313 15.001V24.5861ZM25.3173 13.8602C22.935 13.8602 20.9969 11.922 20.9969 9.53971C20.9969 7.1574 22.935 5.2193 25.3173 5.2193C27.6996 5.2193 29.6377 7.1574 29.6377 9.53971C29.6377 11.922 27.6996 13.8602 25.3173 13.8602Z" fill="#FF9900"/>
<path d="M25.5141 7.66315H24.8877C24.5641 7.66315 24.3018 7.92553 24.3018 8.24908C24.3018 8.57264 24.5641 8.83502 24.8877 8.83502H24.9281V11.1782C24.9281 11.5018 25.1904 11.7642 25.5141 11.7642C25.8377 11.7642 26.1 11.5018 26.1 11.1782V8.24908C26.1 7.92547 25.8377 7.66315 25.5141 7.66315Z" fill="#FF9900"/>
</g>
<defs>
<clipPath id="clip0_147_18081">
<rect width="30" height="30" fill="white" transform="translate(0.80957 0.414062)"/>
</clipPath>
</defs>
</svg>
