<svg width="51" height="51" viewBox="0 0 51 51" fill="none" xmlns="http://www.w3.org/2000/svg">
<path d="M41.1306 46.59C41.3148 46.59 41.5 46.5224 41.6453 46.3866C41.9478 46.1024 41.9633 45.6265 41.6791 45.3232C34.8341 38.0266 33.2722 29.1342 32.6465 21.3969C32.5231 19.9018 31.2989 18.7738 29.7986 18.7738H21.1956C19.7143 18.7738 18.4667 19.9282 18.3551 21.3976C17.7294 29.1348 16.1659 38.028 9.31502 45.3231C9.03006 45.6257 9.04549 46.1015 9.34803 46.3857C9.65057 46.6707 10.1272 46.6559 10.4106 46.3527C17.5803 38.719 19.2076 29.5152 19.8546 21.5151C19.9074 20.8212 20.4964 20.2777 21.1955 20.2777H29.7985C30.5094 20.2777 31.0888 20.8116 31.1468 21.5195C31.7937 29.5145 33.4204 38.7176 40.5818 46.3527C40.7303 46.51 40.9301 46.59 41.1306 46.59Z" fill="#FF9900"/>
<path d="M2.07129 49.601H48.9287C49.3443 49.601 49.6807 49.2646 49.6807 48.849C49.6807 48.4334 49.3443 48.097 48.9287 48.097H2.07129C1.65566 48.097 1.31934 48.4334 1.31934 48.849C1.31924 49.2646 1.65566 49.601 2.07129 49.601Z" fill="#FF9900"/>
<path d="M44.8016 8.28128C44.8016 4.0181 39.9606 1.58011 36.523 4.03226C34.0811 -0.291473 27.536 1.19886 27.1489 6.08548C24.2962 7.17425 23.0505 10.4538 24.2761 13.1346C23.2274 13.7236 22.5327 14.8508 22.5327 16.0941C22.5327 16.5097 22.869 16.846 23.2847 16.846C23.7003 16.846 24.0366 16.5097 24.0366 16.0941C24.0366 15.2158 24.6601 14.441 25.52 14.2523C25.7653 14.1987 25.968 14.0253 26.0591 13.7911C26.1501 13.5569 26.1186 13.2925 25.9746 13.0862C24.5097 10.996 25.5587 8.02913 28.0822 7.36253C28.4362 7.26927 28.6697 6.92269 28.6389 6.55843L28.6374 6.48275C28.6374 2.45736 34.3883 1.62679 35.5191 5.49652C35.5955 5.75872 35.8077 5.95843 36.0736 6.01868C36.3395 6.08109 36.6171 5.99222 36.7992 5.78958C39.066 3.27493 43.2976 4.86829 43.2976 8.28128C43.2976 11.1249 40.2346 12.912 37.7729 11.5492C37.557 11.4302 37.2964 11.4236 37.0753 11.533C36.8543 11.6424 36.7008 11.8533 36.6647 12.0978C36.5539 12.8505 36.0449 13.4233 35.3047 13.6296C34.5571 13.8382 33.8176 13.6046 33.3233 13.0047C33.1728 12.8226 32.948 12.7161 32.7094 12.7323C32.473 12.7433 32.2556 12.8637 32.1227 13.059C31.3325 14.2142 29.946 14.8428 28.5823 14.6592C28.1608 14.6071 27.7914 14.8927 27.7363 15.3039C27.6813 15.7159 27.9698 16.0941 28.3811 16.1499C30.0209 16.3725 31.6783 15.7644 32.8195 14.5777C33.6428 15.1696 34.6878 15.3627 35.7078 15.0785C36.6999 14.8017 37.4769 14.129 37.8822 13.2382C41.2528 14.3908 44.8016 11.8734 44.8016 8.28128Z" fill="#222222"/>
<path d="M24.7847 29.4574V32.5982C24.7847 33.0138 25.121 33.3502 25.5366 33.3502C25.9522 33.3502 26.2886 33.0138 26.2886 32.5982V29.4574C26.2886 29.0418 25.9522 28.7054 25.5366 28.7054C25.1211 28.7054 24.7847 29.0418 24.7847 29.4574Z" fill="#FF9900"/>
<path d="M22.3953 36.6505L19.6752 38.2205C19.3153 38.4283 19.192 38.8881 19.3998 39.2479C19.6096 39.6101 20.0708 39.7291 20.4271 39.5233L23.1472 37.9532C23.5071 37.7454 23.6304 37.2857 23.4226 36.9259C23.2148 36.566 22.7536 36.4427 22.3953 36.6505Z" fill="#FF9900"/>
<path d="M28.6034 36.693C28.2443 36.4852 27.7839 36.6079 27.576 36.9684C27.3682 37.3283 27.4916 37.7879 27.8514 37.9958L30.5708 39.5658C30.9294 39.7729 31.3902 39.6505 31.5981 39.2904C31.8059 38.9305 31.6826 38.4708 31.3227 38.263L28.6034 36.693Z" fill="#FF9900"/>
</svg>
