<svg width="21" height="21" viewBox="0 0 21 21" fill="none" xmlns="http://www.w3.org/2000/svg">
<path d="M12.9448 10.7202L9.40326 14.2618L7.57861 12.4371C7.33447 12.193 6.93896 12.193 6.69482 12.4371C6.45068 12.6813 6.45068 13.0768 6.69482 13.3209L8.96136 15.5875C9.08344 15.7095 9.24335 15.7706 9.40326 15.7706C9.56317 15.7706 9.72308 15.7095 9.84515 15.5875L13.8286 11.604C14.0728 11.3599 14.0728 10.9644 13.8286 10.7202C13.5845 10.4761 13.189 10.4761 12.9448 10.7202Z" fill="#FF9900"/>
<path d="M15.8867 3.13806H14.9492V2.53809C14.9492 2.19293 14.6694 1.91309 14.3242 1.91309C13.9791 1.91309 13.6992 2.19293 13.6992 2.53809V3.13806H6.82422V2.53809C6.82422 2.19293 6.54437 1.91309 6.19922 1.91309C5.85406 1.91309 5.57422 2.19293 5.57422 2.53809V3.13806H4.63672C2.9137 3.13806 1.51172 4.54004 1.51172 6.26306V16.2881C1.51172 18.0111 2.9137 19.4131 4.63672 19.4131H15.8867C17.6097 19.4131 19.0117 18.0111 19.0117 16.2881V6.26306C19.0117 4.54004 17.6097 3.13806 15.8867 3.13806ZM2.76172 6.26306C2.76172 5.22913 3.60278 4.38806 4.63672 4.38806H5.57422V4.98773C5.57422 5.33289 5.85406 5.61273 6.19922 5.61273C6.54437 5.61273 6.82422 5.33289 6.82422 4.98773V4.38806H13.6992V4.98773C13.6992 5.33289 13.9791 5.61273 14.3242 5.61273C14.6694 5.61273 14.9492 5.33289 14.9492 4.98773V4.38806H15.8867C16.9207 4.38806 17.7617 5.22913 17.7617 6.26306V6.89417H2.76172V6.26306ZM15.8867 18.1631H4.63672C3.60278 18.1631 2.76172 17.322 2.76172 16.2881V8.14417H17.7617V16.2881C17.7617 17.322 16.9207 18.1631 15.8867 18.1631Z" fill="#FF9900"/>
</svg>
