<svg width="31" height="31" viewBox="0 0 31 31" fill="none" xmlns="http://www.w3.org/2000/svg">
<g clip-path="url(#clip0_147_18074)">
<path d="M20.0892 29.2866C19.9646 29.2866 19.8392 29.2757 19.7146 29.2534C15.4249 28.4812 11.1486 26.1428 7.67408 22.6682C4.19951 19.1937 1.86114 14.9174 1.08895 10.6277C0.943464 9.81809 1.28273 8.9761 1.95332 8.48251C2.8121 7.85051 3.73743 7.26297 4.70311 6.73728C5.34337 6.38888 6.09818 6.36944 6.72371 6.68456C8.86211 7.76245 10.2796 9.55775 10.9366 12.0204C11.1148 12.6869 10.956 13.4096 10.5122 13.9532L9.09536 15.687C8.8683 15.965 8.84061 16.3484 9.02674 16.6412C10.2321 18.5378 11.8045 20.1102 13.7011 21.3153C13.9936 21.5017 14.377 21.4737 14.6553 21.2469L16.3888 19.8304C16.9327 19.3863 17.6546 19.2278 18.3222 19.4057C20.7846 20.063 22.5799 21.4805 23.6577 23.6189C23.9732 24.2438 23.9537 24.9989 23.6053 25.6392C23.0793 26.6049 22.4918 27.5302 21.8595 28.389C21.4422 28.9562 20.7751 29.2866 20.0892 29.2866ZM5.77541 7.81811C5.63375 7.81811 5.48767 7.85522 5.3522 7.92914C4.44012 8.42567 3.5675 8.97964 2.75791 9.57542C2.50081 9.76479 2.37005 10.0834 2.42482 10.3874C3.14813 14.4074 5.35309 18.4279 8.63357 21.7087C11.9144 24.9892 15.9349 27.1942 19.9549 27.9175C20.2594 27.972 20.5775 27.8412 20.7666 27.5844C21.3627 26.7748 21.9166 25.9022 22.4135 24.9901C22.5486 24.7415 22.561 24.4573 22.4461 24.23C21.537 22.4267 20.0736 21.2776 17.972 20.7168C17.7258 20.6515 17.4543 20.7124 17.2473 20.8815L15.5141 22.2977C14.7817 22.8962 13.76 22.9616 12.9731 22.4606C10.9074 21.148 9.19431 19.4349 7.88141 17.3692C7.38075 16.5817 7.44613 15.5603 8.04456 14.8282L9.46113 13.0948C9.62988 12.888 9.69144 12.6174 9.62547 12.3706C9.06473 10.2687 7.91557 8.80529 6.11261 7.89615C6.00895 7.84403 5.8938 7.81811 5.77541 7.81811Z" fill="#FF9900"/>
<path d="M28.866 15.7494C28.8562 15.7494 28.8465 15.7491 28.8371 15.7488C28.4625 15.7332 28.1718 15.4169 28.1874 15.0426C28.3323 11.5848 27.0168 8.20302 24.5783 5.76393C22.1395 3.32543 18.7647 2.0031 15.2996 2.15477C14.9391 2.1642 14.609 1.88 14.5934 1.5051C14.5778 1.13078 14.8684 0.814481 15.2428 0.798873C19.0793 0.636306 22.831 2.09793 25.5378 4.80443C28.2443 7.51093 29.7041 11.2635 29.5433 15.0994C29.528 15.464 29.2276 15.7494 28.866 15.7494Z" fill="#FF9900"/>
<path d="M25.2556 15.7494C25.2424 15.7494 25.2288 15.7491 25.2153 15.7482C24.841 15.7261 24.5556 15.4051 24.5777 15.0311C24.7249 12.5293 23.7961 10.0808 22.0287 8.31346C20.2614 6.54614 17.8114 5.61963 15.3111 5.76452C14.935 5.78956 14.6161 5.50123 14.594 5.12692C14.5719 4.7529 14.8573 4.43189 15.2316 4.4098C18.1165 4.2381 20.9473 5.31275 22.9882 7.35396C25.0295 9.39518 26.1026 12.2224 25.9324 15.1106C25.9112 15.4714 25.6123 15.7494 25.2556 15.7494Z" fill="#FF9900"/>
<path d="M21.6494 15.7494C21.6282 15.7494 21.607 15.7485 21.5855 15.7464C21.2124 15.7117 20.9382 15.381 20.973 15.0078C21.1167 13.467 20.5724 11.9562 19.4792 10.863C18.386 9.77005 16.8764 9.22522 15.3344 9.36923C14.9615 9.4031 14.6302 9.1298 14.5957 8.75666C14.561 8.38352 14.8352 8.05279 15.2083 8.01804C17.1544 7.83692 19.0593 8.524 20.4387 9.90346C21.8185 11.2829 22.5056 13.1895 22.3241 15.1339C22.2915 15.4855 21.9958 15.7494 21.6494 15.7494Z" fill="#FF9900"/>
</g>
<defs>
<clipPath id="clip0_147_18074">
<rect width="30" height="30" fill="white" transform="translate(0.305664 0.0366211)"/>
</clipPath>
</defs>
</svg>
