<svg width="30" height="31" viewBox="0 0 30 31" fill="none" xmlns="http://www.w3.org/2000/svg">
<g clip-path="url(#clip0_138_9117)">
<path d="M24.5077 4.13623C21.9419 4.13623 19.7814 5.90482 19.1812 8.28695H2.19469C1.62064 8.28695 1.07824 8.50697 0.666211 8.90676C0.665801 8.90717 0.665332 8.90758 0.664922 8.90799C0.663574 8.90934 0.662168 8.91062 0.660762 8.91197C0.234668 9.32846 0 9.88592 0 10.4816V24.6749C0 25.2794 0.253008 25.8629 0.693984 26.2758C0.694863 26.2766 0.695742 26.2775 0.696621 26.2783C1.10455 26.6596 1.63652 26.8696 2.19469 26.8696H22.899C23.4554 26.8696 23.9858 26.661 24.393 26.2821C24.396 26.2795 24.3988 26.2768 24.4017 26.274C24.8415 25.8609 25.0936 25.2784 25.0936 24.6749V15.0898C27.8477 14.7964 30 12.4591 30 9.62852C30 6.6001 27.5362 4.13623 24.5077 4.13623ZM2.19469 9.45883H19.0181C19.0164 9.5152 19.0155 9.57174 19.0155 9.62852C19.0155 10.6779 19.3113 11.6594 19.8239 12.4942L12.9298 19.0111H12.1639L2.06695 9.46668C2.10902 9.46146 2.15168 9.45883 2.19469 9.45883ZM1.17188 10.4816C1.17188 10.4049 1.18025 10.3296 1.19654 10.2566L9.40494 18.0158L1.21734 24.9777C1.18764 24.8811 1.17188 24.7795 1.17188 24.6749V10.4816ZM22.899 25.6977H2.19469C2.18988 25.6977 2.1852 25.6971 2.18045 25.697L10.2616 18.8256L11.5283 20.0229C11.6371 20.1258 11.7812 20.183 11.9309 20.183H13.1629C13.3126 20.183 13.4566 20.1257 13.5654 20.0229L14.8321 18.8256L22.9139 25.6976C22.9089 25.6976 22.9039 25.6977 22.899 25.6977ZM23.9218 24.6749C23.9218 24.7795 23.9064 24.8813 23.8766 24.9779L15.6887 18.0157L20.5437 13.4264C21.4169 14.3374 22.6 14.949 23.9218 15.0898V24.6749ZM24.5077 13.949C22.1254 13.949 20.1873 12.0108 20.1873 9.62852C20.1873 7.24621 22.1254 5.30811 24.5077 5.30811C26.89 5.30811 28.8281 7.24621 28.8281 9.62852C28.8281 12.0108 26.89 13.949 24.5077 13.949Z" fill="white"/>
<path d="M24.7045 7.75195H24.0781C23.7545 7.75195 23.4922 8.01434 23.4922 8.33789C23.4922 8.66144 23.7545 8.92383 24.0781 8.92383H24.1186V11.2671C24.1186 11.5906 24.3809 11.853 24.7045 11.853C25.0281 11.853 25.2904 11.5906 25.2904 11.2671V8.33789C25.2904 8.01428 25.0281 7.75195 24.7045 7.75195Z" fill="white"/>
</g>
<defs>
<clipPath id="clip0_138_9117">
<rect width="30" height="30" fill="white" transform="translate(0 0.50293)"/>
</clipPath>
</defs>
</svg>
