<svg width="61" height="61" viewBox="0 0 61 61" fill="none" xmlns="http://www.w3.org/2000/svg">
<g clip-path="url(#clip0_131_83)">
<path d="M26.5281 13.902C25.3996 13.902 24.4496 14.7859 24.3847 15.9271V15.9273C24.3847 15.9279 24.3844 15.9285 24.3843 15.9292L23.9776 23.0694C23.9539 23.488 24.2737 23.8465 24.692 23.8705C25.116 23.8967 25.4691 23.5746 25.4931 23.156L25.659 20.2459H31.6381L32.2954 31.7714C32.3185 32.1753 32.6529 32.4871 33.0526 32.4871C33.0671 32.4871 33.0816 32.4867 33.0964 32.4859C33.5147 32.4619 33.8345 32.1035 33.8109 31.6848C32.8021 13.9367 33.0274 17.8989 32.9152 15.927C32.8519 14.8137 31.9284 13.9019 30.7718 13.9019L26.5281 13.902ZM25.746 18.7281L25.9 16.0154C25.9206 15.666 26.2265 15.4212 26.5265 15.4203H30.7704C31.1051 15.4203 31.3803 15.6794 31.3968 16.0158L31.5515 18.7281H25.746Z" fill="#FF9900"/>
<path d="M49.3491 47.0299H52.2629C53.1571 47.0299 53.8844 46.3026 53.8844 45.4088V42.4949C53.8844 41.6008 53.1571 40.8735 52.2629 40.8735H49.3491C48.4553 40.8735 47.728 41.6008 47.728 42.4949V45.4088C47.728 46.3026 48.4553 47.0299 49.3491 47.0299ZM49.246 42.4948C49.246 42.4379 49.2922 42.3913 49.3491 42.3913H52.2629C52.3199 42.3913 52.3664 42.4379 52.3664 42.4948V45.4087C52.3664 45.4656 52.3199 45.5118 52.2629 45.5118H49.3491C49.2921 45.5118 49.246 45.4655 49.246 45.4087V42.4948Z" fill="#222222"/>
<path d="M39.914 47.0299H42.8279C43.722 47.0299 44.4493 46.3026 44.4493 45.4088V42.4949C44.4493 41.6008 43.722 40.8735 42.8279 40.8735H39.914C39.0202 40.8735 38.293 41.6008 38.293 42.4949V45.4088C38.293 46.3026 39.0202 47.0299 39.914 47.0299ZM39.8109 42.4948C39.8109 42.4379 39.8572 42.3913 39.914 42.3913H42.8279C42.8848 42.3913 42.9314 42.4379 42.9314 42.4948V45.4087C42.9314 45.4656 42.8848 45.5118 42.8279 45.5118H39.914C39.8571 45.5118 39.8109 45.4655 39.8109 45.4087V42.4948Z" fill="#222222"/>
<path d="M33.392 40.8735H30.4783C29.5842 40.8735 28.8569 41.6008 28.8569 42.4949V45.4088C28.8569 46.3026 29.5842 47.0299 30.4783 47.0299H33.392C34.2861 47.0299 35.0134 46.3026 35.0134 45.4088V42.4949C35.0134 41.6007 34.2861 40.8735 33.392 40.8735ZM33.4954 45.4088C33.4954 45.4658 33.4489 45.5119 33.392 45.5119H30.4783C30.4214 45.5119 30.3749 45.4656 30.3749 45.4088V42.4949C30.3749 42.438 30.4214 42.3915 30.4783 42.3915H33.392C33.4489 42.3915 33.4954 42.438 33.4954 42.4949V45.4088Z" fill="#222222"/>
<path d="M27.9766 27.9791C27.9766 26.5507 26.8144 25.3887 25.3861 25.3887H8.83046C7.40206 25.3887 6.24003 26.5508 6.24003 27.9791V55.2648H4.83706C3.66929 55.2648 2.71948 56.2146 2.71948 57.3821C2.71948 58.5499 3.6694 59.4997 4.83706 59.4997L57.1151 59.4994C58.2825 59.4994 59.2324 58.5496 59.2324 57.382C59.2324 56.2146 58.2826 55.2647 57.1151 55.2647H56.283V34.3548C56.283 33.9705 56.0971 33.6068 55.7861 33.3812C55.4751 33.1559 55.0704 33.0936 54.7067 33.2126L46.8475 35.7884V34.3548C46.8475 33.9705 46.6619 33.6068 46.351 33.3816C46.0394 33.156 45.6357 33.0928 45.2712 33.2126L37.412 35.7881V34.3548C37.412 33.9705 37.2264 33.6068 36.9155 33.3816C36.6039 33.156 36.2002 33.0928 35.8357 33.2126L27.9766 35.7885V27.9791ZM7.75784 27.9791C7.75784 27.3877 8.23901 26.9065 8.83046 26.9065H25.3861C25.9776 26.9065 26.4587 27.3877 26.4587 27.9791V55.2648H21.9454V50.7008C21.9454 49.3875 20.877 48.3191 19.5637 48.3191H14.653C13.3397 48.3191 12.2713 49.3875 12.2713 50.7008V55.2648H7.75784V27.9791ZM20.4275 55.2648H13.7891V50.7008C13.7891 50.2245 14.1766 49.8369 14.653 49.8369H19.5637C20.04 49.8369 20.4276 50.2243 20.4276 50.7008V55.2648H20.4275ZM57.7146 57.3821C57.7146 57.7127 57.4457 57.9816 57.1152 57.9816L4.83718 57.9819C4.50659 57.9819 4.23741 57.7127 4.23741 57.3821C4.23741 57.0516 4.50659 56.7827 4.83718 56.7827H57.1152C57.4457 56.7827 57.7146 57.0516 57.7146 57.3821ZM54.7651 34.7909V55.2648H46.8475V37.3855L54.7651 34.7909ZM45.3296 34.7909V55.2648H37.4119V37.3855L45.3296 34.7909ZM27.9768 37.3855L35.8941 34.7909V55.2648H27.9768V37.3855Z" fill="#FF9900"/>
<path d="M11.7819 32.9374H22.4332C23.6781 32.9374 24.6907 31.9246 24.6907 30.6799C24.6907 29.435 23.678 28.4224 22.4332 28.4224H11.7819C10.5374 28.4224 9.52466 29.4351 9.52466 30.6799C9.52466 31.9246 10.5373 32.9374 11.7819 32.9374ZM11.7819 29.9402H22.4332C22.8411 29.9402 23.1729 30.2719 23.1729 30.6799C23.1729 31.0878 22.8411 31.4195 22.4332 31.4195H11.7819C11.3743 31.4195 11.0426 31.0878 11.0426 30.6799C11.0426 30.2719 11.3742 29.9402 11.7819 29.9402Z" fill="#FF9900"/>
<path d="M11.288 40.0683H14.2695C15.2431 40.0683 16.0353 39.2761 16.0353 38.3023V36.225C16.0353 35.2512 15.2431 34.459 14.2695 34.459H11.288C10.3144 34.459 9.52222 35.2512 9.52222 36.225V38.3023C9.52233 39.2761 10.3144 40.0683 11.288 40.0683ZM11.0401 36.2249C11.0401 36.0879 11.1514 35.9768 11.288 35.9768H14.2695C14.4061 35.9768 14.5173 36.088 14.5173 36.2249V38.3021C14.5173 38.4391 14.4061 38.5502 14.2695 38.5502H11.288C11.1514 38.5502 11.0401 38.439 11.0401 38.3021V36.2249Z" fill="#FF9900"/>
<path d="M22.9248 34.459H19.9435C18.9699 34.459 18.1777 35.2512 18.1777 36.225V38.3023C18.1777 39.2761 18.9699 40.0683 19.9435 40.0683H22.9248C23.8986 40.0683 24.6908 39.2761 24.6908 38.3023V36.225C24.6908 35.2512 23.8986 34.459 22.9248 34.459ZM23.1729 38.3024C23.1729 38.4394 23.0616 38.5505 22.9248 38.5505H19.9435C19.8069 38.5505 19.6957 38.4393 19.6957 38.3024V36.2251C19.6957 36.0881 19.8069 35.977 19.9435 35.977H22.9248C23.0618 35.977 23.1729 36.0882 23.1729 36.2251V38.3024Z" fill="#FF9900"/>
<path d="M14.2696 47.2162C15.2432 47.2162 16.0354 46.424 16.0354 45.4502V43.3729C16.0354 42.3991 15.2432 41.6069 14.2696 41.6069H11.288C10.3144 41.6069 9.52222 42.3991 9.52222 43.3729V45.4502C9.52222 46.424 10.3144 47.2162 11.288 47.2162H14.2696ZM11.0401 45.4502V43.3729C11.0401 43.236 11.1514 43.1249 11.288 43.1249H14.2695C14.4061 43.1249 14.5173 43.2361 14.5173 43.3729V45.4502C14.5173 45.5872 14.4061 45.6983 14.2695 45.6983H11.288C11.1514 45.6983 11.0401 45.5872 11.0401 45.4502Z" fill="#FF9900"/>
<path d="M22.9248 41.6064H19.9435C18.9699 41.6064 18.1777 42.3986 18.1777 43.3725V45.4497C18.1777 46.4236 18.9699 47.2157 19.9435 47.2157H22.9248C23.8986 47.2157 24.6908 46.4236 24.6908 45.4497V43.3725C24.6908 42.3986 23.8986 41.6064 22.9248 41.6064ZM23.1729 45.4498C23.1729 45.5868 23.0616 45.6979 22.9248 45.6979H19.9435C19.8069 45.6979 19.6957 45.5867 19.6957 45.4498V43.3726C19.6957 43.2356 19.8069 43.1245 19.9435 43.1245H22.9248C23.0618 43.1245 23.1729 43.2357 23.1729 43.3726V45.4498Z" fill="#FF9900"/>
<path d="M15.7596 9.59141C15.7596 9.82438 15.7964 10.0488 15.8639 10.2596H14.0711C12.8624 10.2596 11.885 11.2359 11.885 12.4457C11.885 13.6511 12.8658 14.6319 14.0711 14.6319H21.9208C23.1233 14.6319 24.1016 13.6511 24.1016 12.4457C24.1016 12.2128 24.0651 11.9884 23.9975 11.7775H25.7899C26.9953 11.7775 27.976 10.7968 27.976 9.59141C27.976 8.38602 26.9953 7.40527 25.7899 7.40527H17.9455C16.737 7.40527 15.7596 8.38168 15.7596 9.59141ZM26.4583 9.59141C26.4583 9.95996 26.1586 10.2596 25.7901 10.2596H21.9209C21.5018 10.2596 21.162 10.5993 21.162 11.0185C21.162 11.4377 21.5018 11.7774 21.9209 11.7774C22.2865 11.7774 22.5839 12.0772 22.5839 12.4456C22.5839 12.8142 22.2866 13.1138 21.9209 13.1138H14.0713C13.7027 13.1138 13.4031 12.8141 13.4031 12.4456C13.4031 12.0799 13.6954 11.7774 14.0713 11.7774H17.9457C18.3649 11.7774 18.7046 11.4377 18.7046 11.0185C18.7046 10.5993 18.3649 10.2596 17.9457 10.2596C17.5772 10.2596 17.2775 9.95984 17.2775 9.59141C17.2775 9.22016 17.5759 8.9232 17.9457 8.9232H25.7901C26.1586 8.9232 26.4583 9.22285 26.4583 9.59141Z" fill="#FF9900"/>
<path d="M4.42173 8.13566H12.2714C13.4739 8.13566 14.4522 7.15492 14.4522 5.94953C14.4522 5.71656 14.4157 5.49215 14.3481 5.28133H16.1405C17.3462 5.28133 18.3268 4.30059 18.3268 3.0952C18.3268 1.8898 17.3463 0.90918 16.1406 0.90918H8.2963C7.08751 0.90918 6.11017 1.88559 6.11017 3.09531C6.11017 3.32828 6.14696 3.5527 6.21446 3.76352H4.42173C3.21716 3.76352 2.2356 4.73559 2.2356 5.94965C2.23571 7.15504 3.21634 8.13566 4.42173 8.13566ZM4.42173 5.28133H8.29618C8.71536 5.28133 9.05509 4.9416 9.05509 4.52242C9.05509 4.10324 8.71536 3.76352 8.29618 3.76352C7.92763 3.76352 7.62798 3.46375 7.62798 3.09531C7.62798 2.72406 7.92634 2.42711 8.29618 2.42711H16.1406C16.5092 2.42711 16.8092 2.72688 16.8092 3.09531C16.8092 3.46375 16.5092 3.76352 16.1406 3.76352H12.2715C11.8524 3.76352 11.5126 4.10324 11.5126 4.52242C11.5126 4.9416 11.8524 5.28133 12.2715 5.28133C12.637 5.28133 12.9345 5.58109 12.9345 5.94953C12.9345 6.31797 12.6372 6.61773 12.2715 6.61773H4.42173C4.05317 6.61773 3.75353 6.31797 3.75353 5.94953C3.75353 5.58859 4.04063 5.28133 4.42173 5.28133Z" fill="#FF9900"/>
</g>
<defs>
<clipPath id="clip0_131_83">
<rect width="60" height="60" fill="white" transform="translate(0.734375 0.204102)"/>
</clipPath>
</defs>
</svg>
