<svg width="51" height="51" viewBox="0 0 51 51" fill="none" xmlns="http://www.w3.org/2000/svg">
<path d="M40.9963 46.5118C41.1806 46.5118 41.3657 46.4442 41.511 46.3083C41.8136 46.0242 41.829 45.5483 41.5448 45.245C34.6998 37.9484 33.1379 29.0559 32.5122 21.3187C32.3889 19.8236 31.1646 18.6956 29.6643 18.6956H21.0613C19.5801 18.6956 18.3324 19.85 18.2208 21.3194C17.5951 29.0566 16.0316 37.9498 9.18075 45.2449C8.89578 45.5474 8.91121 46.0233 9.21375 46.3075C9.51629 46.5924 9.99295 46.5777 10.2764 46.2745C17.446 38.6408 19.0733 29.437 19.7203 21.4369C19.7731 20.7429 20.3621 20.1995 21.0612 20.1995H29.6642C30.3751 20.1995 30.9545 20.7333 31.0125 21.4413C31.6595 29.4363 33.2861 38.6393 40.4475 46.2745C40.596 46.4318 40.7958 46.5118 40.9963 46.5118Z" fill="#FF9900"/>
<path d="M1.93701 49.5227H48.7944C49.2101 49.5227 49.5464 49.1864 49.5464 48.7708C49.5464 48.3551 49.2101 48.0188 48.7944 48.0188H1.93701C1.52139 48.0188 1.18506 48.3551 1.18506 48.7708C1.18496 49.1864 1.52139 49.5227 1.93701 49.5227Z" fill="#FF9900"/>
<path d="M44.6673 8.20316C44.6673 3.93997 39.8264 1.50198 36.3888 3.95413C33.9468 -0.369598 27.4018 1.12073 27.0146 6.00736C24.1619 7.09612 22.9162 10.3757 24.1418 13.0565C23.0932 13.6454 22.3984 14.7727 22.3984 16.0159C22.3984 16.4316 22.7348 16.7679 23.1504 16.7679C23.566 16.7679 23.9023 16.4316 23.9023 16.0159C23.9023 15.1376 24.5258 14.3629 25.3857 14.1742C25.6311 14.1205 25.8337 13.9472 25.9248 13.713C26.0158 13.4787 25.9843 13.2144 25.8403 13.008C24.3754 10.9179 25.4244 7.95101 27.9479 7.28441C28.302 7.19114 28.5354 6.84456 28.5046 6.4803L28.5031 6.40462C28.5031 2.37923 34.254 1.54866 35.3849 5.41839C35.4612 5.6806 35.6734 5.8803 35.9394 5.94056C36.2052 6.00296 36.4828 5.91409 36.6649 5.71146C38.9317 3.19681 43.1633 4.79017 43.1633 8.20316C43.1633 11.0468 40.1003 12.8339 37.6387 11.471C37.4228 11.3521 37.1621 11.3454 36.941 11.4549C36.72 11.5643 36.5665 11.7751 36.5305 12.0197C36.4196 12.7724 35.9106 13.3451 35.1704 13.5515C34.4229 13.7601 33.6833 13.5265 33.1891 12.9266C33.0385 12.7445 32.8138 12.638 32.5751 12.6541C32.3387 12.6652 32.1213 12.7856 31.9884 12.9809C31.1982 14.1361 29.8117 14.7647 28.448 14.5811C28.0266 14.5289 27.6571 14.8146 27.6021 15.2258C27.547 15.6378 27.8355 16.0159 28.2468 16.0718C29.8866 16.2944 31.544 15.6863 32.6853 14.4995C33.5085 15.0914 34.5535 15.2846 35.5735 15.0004C36.5656 14.7236 37.3426 14.0509 37.748 13.1601C41.1186 14.3126 44.6673 11.7952 44.6673 8.20316Z" fill="white"/>
<path d="M24.6504 29.3792V32.52C24.6504 32.9356 24.9867 33.2719 25.4023 33.2719C25.818 33.2719 26.1543 32.9356 26.1543 32.52V29.3792C26.1543 28.9635 25.818 28.6272 25.4023 28.6272C24.9868 28.6272 24.6504 28.9635 24.6504 29.3792Z" fill="#FF9900"/>
<path d="M22.261 36.5721L19.5409 38.1422C19.181 38.35 19.0577 38.8097 19.2655 39.1695C19.4754 39.5317 19.9365 39.6508 20.2928 39.4449L23.013 37.8749C23.3728 37.6671 23.4962 37.2073 23.2884 36.8475C23.0805 36.4877 22.6193 36.3643 22.261 36.5721Z" fill="#FF9900"/>
<path d="M28.4691 36.6148C28.11 36.407 27.6496 36.5296 27.4418 36.8902C27.234 37.25 27.3573 37.7097 27.7172 37.9175L30.4365 39.4875C30.7951 39.6947 31.2559 39.5723 31.4638 39.2121C31.6717 38.8523 31.5483 38.3926 31.1884 38.1848L28.4691 36.6148Z" fill="#FF9900"/>
</svg>
