<svg width="150" height="151" viewBox="0 0 150 151" fill="none" xmlns="http://www.w3.org/2000/svg">
<path d="M56.0326 24.7734L60.6397 12.8806C61.4167 10.867 62.7837 9.13498 64.5617 7.91143C66.3397 6.68787 68.4457 6.02981 70.604 6.02344H79.3897C81.548 6.02981 83.6541 6.68787 85.4321 7.91143C87.21 9.13498 88.577 10.867 89.354 12.8806L93.9612 24.7734L109.604 33.7734L122.247 31.8449C124.352 31.5591 126.495 31.9057 128.402 32.8405C130.31 33.7753 131.897 35.2561 132.961 37.0949L137.247 44.5949C138.345 46.4629 138.851 48.62 138.698 50.7815C138.545 52.943 137.74 55.0073 136.39 56.702L128.568 66.6663V84.6663L136.604 94.6306C137.954 96.3253 138.759 98.3896 138.912 100.551C139.065 102.713 138.559 104.87 137.461 106.738L133.175 114.238C132.111 116.076 130.524 117.557 128.617 118.492C126.709 119.427 124.566 119.773 122.461 119.488L109.818 117.559L94.1754 126.559L89.5683 138.452C88.7913 140.466 87.4243 142.198 85.6463 143.421C83.8684 144.645 81.7623 145.303 79.604 145.309H70.604C68.4457 145.303 66.3397 144.645 64.5617 143.421C62.7837 142.198 61.4167 140.466 60.6397 138.452L56.0326 126.559L40.3897 117.559L27.7469 119.488C25.6417 119.773 23.4991 119.427 21.5913 118.492C19.6836 117.557 18.0968 116.076 17.0326 114.238L12.7469 106.738C11.6487 104.87 11.1427 102.713 11.2957 100.551C11.4488 98.3896 12.2536 96.3253 13.604 94.6306L21.4254 84.6663V66.6663L13.3897 56.702C12.0393 55.0073 11.2345 52.943 11.0814 50.7815C10.9284 48.62 11.4344 46.4629 12.5326 44.5949L16.8183 37.0949C17.8825 35.2561 19.4693 33.7753 21.377 32.8405C23.2848 31.9057 25.4274 31.5591 27.5326 31.8449L40.1754 33.7734L56.0326 24.7734ZM53.5683 75.6663C53.5683 79.9045 54.8251 84.0475 57.1797 87.5714C59.5343 91.0953 62.881 93.8418 66.7965 95.4637C70.7121 97.0856 75.0206 97.51 79.1774 96.6831C83.3341 95.8563 87.1523 93.8154 90.1492 90.8186C93.146 87.8217 95.1869 84.0035 96.0137 79.8468C96.8405 75.6901 96.4162 71.3815 94.7943 67.4659C93.1724 63.5504 90.4259 60.2037 86.9019 57.8491C83.378 55.4945 79.235 54.2377 74.9969 54.2377C69.3137 54.2377 63.8632 56.4954 59.8446 60.514C55.8259 64.5326 53.5683 69.9831 53.5683 75.6663V75.6663Z" stroke="#FF9900" stroke-width="2" stroke-linecap="round" stroke-linejoin="round"/>
</svg>
