<svg width="60" height="61" viewBox="0 0 60 61" fill="none" xmlns="http://www.w3.org/2000/svg">
<path d="M56.569 47.111H55.1094L50.9624 21.2049C51.9611 20.9051 52.6952 19.992 52.6952 18.9014C52.6952 17.5656 51.6057 16.4786 50.2666 16.4786H39.3135C38.8944 16.4786 38.5546 16.8184 38.5546 17.2375C38.5546 17.6567 38.8944 17.9965 39.3135 17.9965H50.2666C50.7687 17.9965 51.1774 18.4026 51.1774 18.9013C51.1774 19.397 50.7688 19.8001 50.2666 19.8001H50.0905H39.848C39.4288 19.8001 39.0891 20.1398 39.0891 20.559C39.0891 20.9782 39.4288 21.3179 39.848 21.3179H49.4433L53.5722 47.1095C52.5393 47.1096 57.6279 47.1091 41.7692 47.1106L36.5908 14.6076C37.8281 14.3094 38.7531 13.2002 38.7531 11.8726C38.7531 10.3174 37.4879 9.052 35.9329 9.052H10.7256C9.17068 9.052 7.90541 10.3173 7.90541 11.8726C7.90541 13.2002 8.83061 14.3094 10.0678 14.6076L4.88947 47.111H3.43061C1.92756 47.111 0.70459 48.3336 0.70459 49.8367C0.70459 51.3397 1.92744 52.5629 3.43061 52.5629H56.569C58.0721 52.5629 59.2951 51.3397 59.2951 49.8367C59.2949 48.3336 58.0721 47.111 56.569 47.111ZM9.42334 11.8729C9.42334 11.1549 10.0076 10.5703 10.7256 10.5703H35.9329C36.6509 10.5703 37.2352 11.1549 37.2352 11.8729C37.2352 12.5909 36.6509 13.1756 35.9329 13.1756C27.2826 13.1756 19.4796 13.1756 10.7256 13.1756C10.0076 13.1756 9.42334 12.5909 9.42334 11.8729ZM11.5911 14.6934H35.0676L40.2323 47.1109H6.42639L11.5911 14.6934ZM56.569 51.045H3.43061C2.76451 51.045 2.22252 50.5031 2.22252 49.8367C2.22252 49.1708 2.76439 48.6289 3.43061 48.6289H56.569C57.2351 48.6289 57.7771 49.1709 57.7771 49.8367C57.7771 50.5031 57.2351 51.045 56.569 51.045Z" fill="#FF9900"/>
<path d="M22.7194 22.4354C22.139 23.2198 17.0493 30.192 17.0493 33.4002C17.0493 36.8611 19.8649 39.6769 23.3254 39.6769C26.7908 39.6769 29.6098 36.8611 29.6098 33.4002C29.6098 30.1919 24.5201 23.2197 23.9397 22.4354C23.6533 22.0476 23.0058 22.0476 22.7194 22.4354ZM23.3254 38.1591C20.7017 38.1591 18.5672 36.0245 18.5672 33.4004C18.5672 31.3725 21.5935 26.6516 23.3296 24.1851C25.0658 26.6511 28.092 31.3707 28.092 33.4004C28.0919 36.0245 25.9536 38.1591 23.3254 38.1591Z" fill="#222222"/>
</svg>
