<svg width="61" height="61" viewBox="0 0 61 61" fill="none" xmlns="http://www.w3.org/2000/svg">
<path d="M11.4462 33.1174C11.9305 33.1174 12.323 32.7249 12.323 32.2406V20.9119C12.323 19.7011 12.9259 18.5819 13.9385 17.9161C14.6741 17.4288 15.2829 16.7657 15.699 15.9972C16.1177 15.2222 16.3391 14.3471 16.3391 13.4672V12.1871H19.2329V13.4587C19.2329 15.2654 20.1282 16.9327 21.6296 17.9195C22.5921 18.5476 23.2484 19.6492 23.2484 20.9119V32.2232C23.2484 32.7074 23.641 33.1 24.1252 33.1C24.6095 33.1 25.002 32.7074 25.002 32.2232V20.9119C25.002 19.0665 24.0547 17.4073 22.5903 16.4528C21.5859 15.7926 20.9865 14.6734 20.9865 13.4588C20.9864 13.3701 20.9792 8.79752 20.9797 9.0865C20.9797 7.8599 19.9817 6.86182 18.755 6.86182H16.8086C15.5816 6.86182 14.5836 7.85978 14.5836 9.0865C14.5836 9.17521 14.5855 13.7563 14.5854 13.4673C14.5854 14.0574 14.4368 14.6439 14.1563 15.1633C13.8772 15.6788 13.4666 16.1253 12.9725 16.4528C11.4676 17.4419 10.5693 19.1086 10.5693 20.9119V32.2406C10.5693 32.7249 10.962 33.1174 11.4462 33.1174ZM16.3374 9.08639C16.3374 8.82646 16.5489 8.61541 16.8089 8.61541H18.7552C19.0152 8.61541 19.2262 8.82646 19.2262 9.08639V10.4312H16.3375L16.3374 9.08639Z" fill="#FF9900"/>
<path d="M29.4825 33.1001C29.9667 33.1001 30.3593 32.7075 30.3593 32.2233V20.912C30.3593 19.7012 30.9621 18.582 31.9743 17.9162C32.7098 17.4294 33.3186 16.7663 33.7357 15.9973C34.1544 15.2219 34.3753 14.3468 34.3753 13.4673V12.1872H37.2688V13.4588C37.2688 15.2685 38.1679 16.9362 39.6698 17.9167C40.1673 18.246 40.5766 18.6938 40.8584 19.2196C41.1375 19.7299 41.2848 20.3152 41.2848 20.912V32.2233C41.2848 32.7075 41.677 33.1001 42.1616 33.1001C42.6463 33.1001 43.0384 32.7075 43.0384 32.2233V20.912C43.0384 20.0215 42.8166 19.1455 42.4004 18.3851C41.9859 17.611 41.3763 16.9431 40.633 16.4512C39.6243 15.7927 39.0223 14.6739 39.0223 13.4588C39.0221 13.3701 39.0168 8.79752 39.0171 9.0865C39.0171 7.8599 38.0195 6.86182 36.7924 6.86182H34.8463C33.6192 6.86182 32.6216 7.85978 32.6216 9.0865C32.6216 9.25326 32.6216 13.6233 32.6216 13.4673C32.6216 14.0574 32.4735 14.6439 32.1934 15.1628C31.9134 15.6788 31.5033 16.1253 31.0083 16.4528C29.5037 17.4419 28.6055 19.109 28.6055 20.9119V32.2232C28.6056 32.7074 28.9983 33.1001 29.4825 33.1001ZM34.3753 9.0865C34.3753 8.82658 34.5868 8.61553 34.8463 8.61553H36.7927C37.0521 8.61553 37.2636 8.82658 37.2636 9.0865V10.4313H34.3753V9.0865Z" fill="#FF9900"/>
<path d="M12.0213 53.5466H49.447C54.6011 53.5466 58.7936 49.3537 58.7936 44.2C58.7936 39.0464 54.6012 34.8535 49.447 34.8535H12.0213C6.86766 34.8535 2.6748 39.0464 2.6748 44.2C2.6748 49.3537 6.86777 53.5466 12.0213 53.5466ZM12.0213 36.6072H49.447C53.6334 36.6072 57.0398 40.0132 57.0398 44.2C57.0398 48.3869 53.6336 51.7929 49.447 51.7929H12.0213C7.83445 51.7929 4.42852 48.3869 4.42852 44.2C4.42852 40.0132 7.83445 36.6072 12.0213 36.6072Z" fill="#FF9900"/>
<path d="M13.8534 46.3657C14.3376 46.3657 14.7302 45.9731 14.7302 45.4889V42.9115C14.7302 42.4272 14.3376 42.0347 13.8534 42.0347C13.3691 42.0347 12.9766 42.4272 12.9766 42.9115V45.4889C12.9764 45.973 13.3691 46.3657 13.8534 46.3657Z" fill="#222222"/>
<path d="M22.2938 46.3657C22.778 46.3657 23.1706 45.9731 23.1706 45.4889V42.9115C23.1706 42.4272 22.778 42.0347 22.2938 42.0347C21.8096 42.0347 21.417 42.4272 21.417 42.9115V45.4889C21.4169 45.973 21.8095 46.3657 22.2938 46.3657Z" fill="#222222"/>
<path d="M30.7352 46.3657C31.2199 46.3657 31.612 45.9731 31.612 45.4889V42.9115C31.612 42.4272 31.2198 42.0347 30.7352 42.0347C30.251 42.0347 29.8584 42.4272 29.8584 42.9115V45.4889C29.8583 45.973 30.251 46.3657 30.7352 46.3657Z" fill="#222222"/>
<path d="M39.1756 46.3657C39.6603 46.3657 40.0524 45.9731 40.0524 45.4889V42.9115C40.0524 42.4272 39.6602 42.0347 39.1756 42.0347C38.6909 42.0347 38.2988 42.4272 38.2988 42.9115V45.4889C38.2988 45.973 38.6911 46.3657 39.1756 46.3657Z" fill="#222222"/>
<path d="M47.6161 46.3657C48.1007 46.3657 48.4929 45.9731 48.4929 45.4889V42.9115C48.4929 42.4272 48.1006 42.0347 47.6161 42.0347C47.1314 42.0347 46.7393 42.4272 46.7393 42.9115V45.4889C46.7393 45.973 47.1314 46.3657 47.6161 46.3657Z" fill="#222222"/>
</svg>
