<svg width="51" height="54" viewBox="0 0 51 54" fill="none" xmlns="http://www.w3.org/2000/svg">
<path d="M22.5164 41.6973C22.1074 41.1672 21.9385 40.4851 22.0533 39.8256C22.1715 39.1453 22.568 38.5769 23.1129 38.2251C22.8467 37.7705 22.7234 37.2398 22.7696 36.7076C22.8632 35.6308 23.5965 34.7686 24.5794 34.4764C24.2996 33.9977 24.1769 33.4366 24.2438 32.8793C24.3377 32.0943 24.7825 31.4283 25.4082 31.0274C25.0932 30.6128 24.9037 30.0977 24.9037 29.5377C24.9037 28.9916 25.0842 28.4857 25.3873 28.075C25.3018 28.0795 25.2152 28.082 25.1274 28.082C24.31 28.082 23.5607 27.8788 22.9018 27.4844C22.7659 27.9937 22.5742 28.5637 22.3043 29.1351C21.6786 30.4605 20.8088 31.4416 19.7329 32.0613L15.7812 46.6781L21.7692 49.2621L23.6018 42.4835C23.1765 42.33 22.797 42.0605 22.5164 41.6973Z" fill="white"/>
<path d="M40.7918 14.0986L38.6948 13.5423L38.6941 13.5449L36.0692 12.8487L35.5134 14.9445C35.2844 15.5038 33.616 15.5396 33.0169 15.3777C31.8312 15.0572 30.871 14.2742 31.0006 13.6445L31.5337 11.6347L26.9159 10.4508C21.503 9.0151 15.9513 12.239 14.5156 17.6519L16.5622 18.1947C18.219 12.0662 24.8756 14.5348 24.2538 16.835L23.6887 18.9254L23.3454 20.1957L23.7215 20.6561L27.7298 25.6246L27.7799 25.6868L28.7638 22.0476L28.7717 22.0497L29.2044 20.4184L29.2049 20.4168L29.3048 20.0398C29.5043 19.4287 30.6647 19.2074 31.9123 19.5446C32.5113 19.7065 33.9416 20.569 33.8633 21.1682L33.3075 23.264L38.0291 24.5164L40.7915 14.1016L40.7918 14.0986Z" fill="white"/>
<path d="M30.4933 27.8516C30.4643 27.8516 30.435 27.8525 30.4055 27.8541C29.5192 27.9066 28.4094 27.9721 27.5075 28.0251C27.4313 28.0295 27.354 28.0341 27.281 28.0383C26.4871 28.0845 25.8672 28.7421 25.8672 29.5374C25.8672 29.9857 26.0637 30.3838 26.3714 30.6576C26.5052 30.6358 26.6418 30.6226 26.7814 30.6226C26.7893 30.6226 26.7972 30.6233 26.8051 30.6233C26.8492 30.6237 26.8936 30.6246 26.9382 30.6274C27.8559 30.6832 29.0344 30.7543 30.0132 30.813L30.6188 30.7598C31.3711 30.6939 31.9483 30.0637 31.9483 29.3086C31.9485 28.4994 31.2914 27.8516 30.4933 27.8516Z" fill="white"/>
<path d="M30.194 31.7968C30.1394 31.7935 30.0811 31.79 30.0251 31.7865C29.0326 31.7271 27.8183 31.6539 26.8781 31.5968C26.8451 31.5947 26.8126 31.5938 26.78 31.5938C26.6976 31.5938 26.6168 31.6016 26.5371 31.614C26.4156 31.6328 26.2981 31.6646 26.1868 31.7097C25.6633 31.9208 25.2703 32.4028 25.199 32.9985C25.1337 33.5432 25.3518 34.0505 25.7309 34.384C25.7501 34.3845 25.7685 34.3852 25.788 34.3856C26.7152 34.4117 27.819 34.4423 28.7084 34.4667C29.1792 34.4797 29.634 34.6293 30.0221 34.885L30.0527 34.886C30.0695 34.8864 30.0857 34.8867 30.1022 34.8867C30.8819 34.8867 31.5437 34.3037 31.6368 33.5239C31.7423 32.6404 31.0824 31.8502 30.194 31.7968Z" fill="white"/>
<path d="M28.6785 35.4291C27.7122 35.4026 26.4963 35.3689 25.5252 35.3415C25.4831 35.3404 25.4397 35.3392 25.3986 35.3378C25.3854 35.3373 25.371 35.3371 25.3577 35.3366C25.3424 35.3362 25.3271 35.3359 25.3117 35.3359C24.4881 35.3359 23.7966 35.9663 23.7248 36.7918C23.6898 37.1948 23.808 37.5729 24.0284 37.8728C24.1506 37.8535 24.2749 37.8419 24.4021 37.8419C24.4927 37.8419 24.5845 37.8473 24.6751 37.8575C24.7283 37.8635 24.7852 37.87 24.84 37.8763C25.7012 37.9745 26.7748 38.0962 27.6291 38.1929C27.9689 38.2314 28.2929 38.3462 28.5814 38.5208H28.6374C29.4389 38.5201 30.1072 37.9069 30.1766 37.1084C30.2198 36.6106 30.0226 36.15 29.684 35.8374C29.4194 35.5938 29.0687 35.4398 28.6785 35.4291Z" fill="white"/>
<path d="M28.2838 39.4917C28.0794 39.3121 27.8202 39.1904 27.528 39.1574C27.1287 39.1121 26.6805 39.0615 26.2287 39.0102C25.6594 38.9456 25.0848 38.8803 24.5926 38.8241C24.5863 38.8234 24.5793 38.8225 24.5731 38.8218C24.5299 38.8169 24.4869 38.8155 24.4442 38.8144C24.4328 38.8141 24.4212 38.8125 24.4098 38.8125C24.1817 38.8125 23.9636 38.8682 23.7689 38.9665C23.3794 39.1635 23.0856 39.5349 23.0057 39.9952C22.8891 40.667 23.2617 41.3024 23.8544 41.5533C23.9896 41.6104 24.1362 41.6481 24.2911 41.6611L27.2551 41.9119C27.2948 41.9152 27.3341 41.917 27.3731 41.917C28.0397 41.917 28.6197 41.4374 28.7356 40.7696C28.8218 40.2744 28.6332 39.7985 28.2838 39.4917Z" fill="white"/>
<path d="M18.4767 32.5961L18.6261 32.0386L18.7813 31.4593C19.3104 31.2289 19.757 30.9147 20.1379 30.5528C22.0844 28.7037 22.2563 25.5729 22.2563 25.5729C23.1092 26.783 24.1885 27.1184 25.1236 27.1184C26.2885 27.1184 27.2296 26.5974 27.2296 26.5974L22.7189 21.0057L22.7018 20.9844L16.777 22.588L12.483 30.5618L11.9776 30.8313L11.4721 31.1007L7 33.4854V34.4187C7 37.5386 8.12326 40.4722 10.059 42.7544L16.6757 39.3201L18.4767 32.5961Z" fill="white"/>
<path d="M41.2266 6.81274V0.630151H37.8001V5.36639L25.1084 0L12.0461 5.52294L0.140625 10.4464L1.11709 12.8074L3.97728 11.6247V12.45V27.1957V34.4209C3.97728 34.6446 3.98309 34.8674 3.99238 35.0896C4.13313 38.4499 5.32979 41.6104 7.32152 44.1759C8.93371 46.2524 11.0655 47.9396 13.581 49.0252L14.9781 49.6282L20.966 52.2122L25.1084 54L36.6358 49.0252C42.4646 46.5097 46.2395 40.7694 46.2395 34.4209V27.1957V12.45V11.6507L49.0367 12.8074L50.0129 10.4464L41.2266 6.81274ZM43.2199 12.45V27.1957V34.4209C43.2199 39.5688 40.1658 44.213 35.4393 46.2528L25.1084 50.7113L21.762 49.2672L15.7741 46.6832L14.7772 46.2531C12.9151 45.4494 11.3143 44.2404 10.0558 42.7569C8.11983 40.4746 6.9968 37.541 6.9968 34.4212V33.4879V27.1959V12.4502V10.9365L25.1084 3.27874L36.6241 8.14784L40.8197 9.92192V9.92169L43.2202 10.9365V12.45H43.2199Z" fill="#222222"/>
</svg>
