<svg width="156" height="54" viewBox="0 0 156 54" fill="none" xmlns="http://www.w3.org/2000/svg">
<path d="M22.5115 41.7022C22.1025 41.1721 21.9336 40.4899 22.0484 39.8305C22.1666 39.1502 22.5631 38.5818 23.108 38.2299C22.8418 37.7754 22.7185 37.2446 22.7647 36.7125C22.8583 35.6357 23.5916 34.7735 24.5746 34.4813C24.2947 34.0026 24.172 33.4414 24.2389 32.8842C24.3328 32.0991 24.7776 31.4332 25.4033 31.0323C25.0883 30.6177 24.8988 30.1025 24.8988 29.5425C24.8988 28.9965 25.0793 28.4906 25.3824 28.0799C25.2969 28.0843 25.2103 28.0869 25.1225 28.0869C24.3051 28.0869 23.5558 27.8837 22.8969 27.4893C22.761 27.9986 22.5694 28.5686 22.2995 29.14C21.6737 30.4653 20.8039 31.4465 19.728 32.0662L15.7764 46.683L21.7643 49.267L23.5969 42.4884C23.1716 42.3349 22.7921 42.0654 22.5115 41.7022Z" fill="#FF9900"/>
<path d="M40.7883 14.1005L38.6914 13.5442L38.6907 13.5468L36.0658 12.8507L35.51 14.9465C35.281 15.5058 33.6126 15.5416 33.0135 15.3797C31.8278 15.0591 30.8676 14.2761 30.9972 13.6464L31.5302 11.6366L26.9125 10.4527C21.4996 9.01706 15.9479 12.241 14.5122 17.6538L16.5587 18.1966C18.2155 12.0682 24.8722 14.5367 24.2504 16.8369L23.6853 18.9274L23.342 20.1977L23.718 20.658L27.7263 25.6265L27.7765 25.6888L28.7604 22.0496L28.7683 22.0516L29.201 20.4204L29.2015 20.4188L29.3014 20.0418C29.5009 19.4307 30.6613 19.2093 31.9088 19.5466C32.5079 19.7085 33.9382 20.5709 33.8599 21.1702L33.3041 23.266L38.0257 24.5184L40.7881 14.1036L40.7883 14.1005Z" fill="#FF9900"/>
<path d="M30.4909 27.8564C30.4619 27.8564 30.4326 27.8574 30.4031 27.859C29.5167 27.9115 28.407 27.977 27.505 28.03C27.4289 28.0344 27.3515 28.039 27.2786 28.0432C26.4847 28.0894 25.8647 28.747 25.8647 29.5423C25.8647 29.9906 26.0612 30.3887 26.369 30.6625C26.5028 30.6407 26.6394 30.6274 26.779 30.6274C26.7869 30.6274 26.7948 30.6281 26.8027 30.6281C26.8468 30.6286 26.8912 30.6295 26.9357 30.6323C27.8535 30.6881 29.032 30.7591 30.0108 30.8179L30.6163 30.7647C31.3686 30.6987 31.9458 30.0686 31.9458 29.3135C31.9461 28.5042 31.289 27.8564 30.4909 27.8564Z" fill="#FF9900"/>
<path d="M30.193 31.7972C30.1384 31.794 30.0801 31.7905 30.0241 31.787C29.0316 31.7276 27.8173 31.6544 26.8771 31.5973C26.8441 31.5952 26.8116 31.5942 26.7791 31.5942C26.6966 31.5942 26.6158 31.6021 26.5361 31.6144C26.4146 31.6333 26.2971 31.6651 26.1858 31.7101C25.6623 31.9213 25.2693 32.4032 25.198 32.999C25.1327 33.5437 25.3508 34.051 25.7299 34.3845C25.7492 34.385 25.7675 34.3857 25.787 34.3861C26.7143 34.4122 27.818 34.4428 28.7074 34.4672C29.1782 34.4802 29.633 34.6298 30.0211 34.8855L30.0518 34.8864C30.0685 34.8869 30.0847 34.8871 30.1012 34.8871C30.881 34.8871 31.5427 34.3041 31.6358 33.5244C31.7413 32.6409 31.0814 31.8507 30.193 31.7972Z" fill="#FF9900"/>
<path d="M28.6804 35.433C27.7142 35.4065 26.4983 35.3728 25.5271 35.3454C25.4851 35.3443 25.4417 35.3431 25.4005 35.3417C25.3873 35.3412 25.3729 35.341 25.3597 35.3405C25.3443 35.3401 25.329 35.3398 25.3137 35.3398C24.49 35.3398 23.7986 35.9702 23.7268 36.7957C23.6917 37.1987 23.81 37.5768 24.0304 37.8767C24.1526 37.8574 24.2768 37.8458 24.4041 37.8458C24.4947 37.8458 24.5864 37.8512 24.677 37.8614C24.7302 37.8674 24.7871 37.8739 24.8419 37.8802C25.7032 37.9784 26.7767 38.1002 27.631 38.1968C27.9709 38.2353 28.2949 38.3501 28.5834 38.5247H28.6393C29.4409 38.524 30.1091 37.9109 30.1786 37.1123C30.2218 36.6145 30.0246 36.154 29.6859 35.8413C29.4214 35.5977 29.0707 35.4437 28.6804 35.433Z" fill="#FF9900"/>
<path d="M28.278 39.4922C28.0736 39.3126 27.8144 39.1909 27.5222 39.1579C27.1229 39.1126 26.6746 39.062 26.2228 39.0107C25.6535 38.9461 25.0789 38.8808 24.5867 38.8246C24.5804 38.8239 24.5735 38.823 24.5672 38.8223C24.524 38.8174 24.481 38.816 24.4383 38.8148C24.4269 38.8146 24.4153 38.813 24.4039 38.813C24.1758 38.813 23.9577 38.8687 23.7631 38.967C23.3736 39.1639 23.0797 39.5354 22.9998 39.9957C22.8832 40.6674 23.2558 41.3029 23.8486 41.5538C23.9837 41.6109 24.1303 41.6486 24.2852 41.6616L27.2492 41.9124C27.289 41.9157 27.3282 41.9175 27.3672 41.9175C28.0338 41.9175 28.6138 41.4379 28.7297 40.7701C28.8159 40.2749 28.6273 39.799 28.278 39.4922Z" fill="#FF9900"/>
<path d="M18.4748 32.5985L18.6241 32.0411L18.7793 31.4618C19.3084 31.2314 19.7551 30.9171 20.136 30.5552C22.0824 28.7061 22.2543 25.5753 22.2543 25.5753C23.1072 26.7855 24.1866 27.1209 25.1217 27.1209C26.2865 27.1209 27.2277 26.5999 27.2277 26.5999L22.717 21.0082L22.6998 20.9868L16.775 22.5904L12.481 30.5643L11.9756 30.8337L11.4702 31.1032L6.99805 33.4879V34.4211C6.99805 37.541 8.12131 40.4746 10.0571 42.7569L16.6738 39.3225L18.4748 32.5985Z" fill="#FF9900"/>
<path d="M41.2281 6.81274V0.630151H37.8016V5.36639L25.1098 0L12.0476 5.52294L0.14209 10.4464L1.11856 12.8074L3.97874 11.6247V12.45V27.1957V34.4209C3.97874 34.6446 3.98455 34.8674 3.99384 35.0896C4.1346 38.4499 5.33126 41.6104 7.32298 44.1759C8.93517 46.2524 11.067 47.9396 13.5825 49.0252L14.9796 49.6282L20.9675 52.2122L25.1098 54L36.6372 49.0252C42.4661 46.5097 46.2409 40.7694 46.2409 34.4209V27.1957V12.45V11.6507L49.0382 12.8074L50.0144 10.4464L41.2281 6.81274ZM43.2214 12.45V27.1957V34.4209C43.2214 39.5688 40.1673 44.213 35.4408 46.2528L25.1098 50.7113L21.7635 49.2672L15.7756 46.6832L14.7786 46.2531C12.9165 45.4494 11.3157 44.2404 10.0573 42.7569C8.1213 40.4746 6.99827 37.541 6.99827 34.4212V33.4879V27.1959V12.4502V10.9365L25.1098 3.27874L36.6256 8.14784L40.8211 9.92192V9.92169L43.2216 10.9365V12.45H43.2214Z" fill="#222222"/>
<path d="M66.4915 38V21.396H60.1355V17.84H76.6555V21.396H70.2995V38H66.4915ZM82.9071 38.42C81.3858 38.42 80.0511 38.0793 78.9031 37.398C77.7551 36.7167 76.8591 35.7787 76.2151 34.584C75.5805 33.38 75.2631 31.9987 75.2631 30.44C75.2631 28.8627 75.5898 27.4767 76.2431 26.282C76.8965 25.078 77.7971 24.14 78.9451 23.468C80.0931 22.796 81.4138 22.46 82.9071 22.46C84.4285 22.46 85.7631 22.8007 86.9111 23.482C88.0685 24.1633 88.9691 25.106 89.6131 26.31C90.2571 27.5047 90.5791 28.8813 90.5791 30.44C90.5791 32.008 90.2525 33.394 89.5991 34.598C88.9551 35.7927 88.0545 36.7307 86.8971 37.412C85.7491 38.084 84.4191 38.42 82.9071 38.42ZM82.9071 34.864C84.1298 34.864 85.0398 34.4533 85.6371 33.632C86.2438 32.8013 86.5471 31.7373 86.5471 30.44C86.5471 29.096 86.2391 28.0227 85.6231 27.22C85.0165 26.4173 84.1111 26.016 82.9071 26.016C82.0765 26.016 81.3951 26.2027 80.8631 26.576C80.3311 26.9493 79.9345 27.4673 79.6731 28.13C79.4211 28.7927 79.2951 29.5627 79.2951 30.44C79.2951 31.7933 79.5985 32.8713 80.2051 33.674C80.8211 34.4673 81.7218 34.864 82.9071 34.864ZM100.518 38.42C99.0151 38.42 97.7598 38.07 96.7518 37.37C95.7438 36.67 94.9831 35.718 94.4698 34.514C93.9658 33.31 93.7138 31.952 93.7138 30.44C93.7138 28.928 93.9658 27.57 94.4698 26.366C94.9738 25.162 95.7158 24.21 96.6958 23.51C97.6758 22.81 98.8845 22.46 100.322 22.46C101.768 22.46 103.028 22.8053 104.102 23.496C105.175 24.1867 106.006 25.134 106.594 26.338C107.191 27.5327 107.49 28.9 107.49 30.44C107.49 31.952 107.196 33.31 106.608 34.514C106.029 35.718 105.217 36.67 104.172 37.37C103.126 38.07 101.908 38.42 100.518 38.42ZM93.0698 44.72V22.88H96.4298V33.24H96.9058V44.72H93.0698ZM99.9018 35.032C100.723 35.032 101.395 34.8267 101.918 34.416C102.44 34.0053 102.828 33.4547 103.08 32.764C103.332 32.064 103.458 31.2893 103.458 30.44C103.458 29.6 103.327 28.8347 103.066 28.144C102.804 27.444 102.398 26.8887 101.848 26.478C101.306 26.058 100.611 25.848 99.7618 25.848C98.9685 25.848 98.3245 26.0393 97.8298 26.422C97.3445 26.8047 96.9898 27.3413 96.7658 28.032C96.5418 28.7227 96.4298 29.5253 96.4298 30.44C96.4298 31.3547 96.5418 32.1573 96.7658 32.848C96.9898 33.5387 97.3538 34.0753 97.8578 34.458C98.3711 34.8407 99.0525 35.032 99.9018 35.032ZM110.29 38V17.42H114.098V38H110.29ZM121.936 38.42C120.853 38.42 119.934 38.2147 119.178 37.804C118.431 37.384 117.862 36.8287 117.47 36.138C117.087 35.438 116.896 34.668 116.896 33.828C116.896 33.128 117.003 32.4887 117.218 31.91C117.432 31.3313 117.778 30.8227 118.254 30.384C118.739 29.936 119.388 29.5627 120.2 29.264C120.76 29.0587 121.427 28.8767 122.202 28.718C122.976 28.5593 123.854 28.41 124.834 28.27C125.814 28.1207 126.892 27.9573 128.068 27.78L126.696 28.536C126.696 27.64 126.481 26.982 126.052 26.562C125.622 26.142 124.904 25.932 123.896 25.932C123.336 25.932 122.752 26.0673 122.146 26.338C121.539 26.6087 121.114 27.0893 120.872 27.78L117.428 26.688C117.81 25.4373 118.529 24.42 119.584 23.636C120.638 22.852 122.076 22.46 123.896 22.46C125.23 22.46 126.416 22.6653 127.452 23.076C128.488 23.4867 129.272 24.196 129.804 25.204C130.102 25.764 130.28 26.324 130.336 26.884C130.392 27.444 130.42 28.0693 130.42 28.76V38H127.088V34.892L127.564 35.536C126.826 36.5533 126.028 37.2907 125.17 37.748C124.32 38.196 123.242 38.42 121.936 38.42ZM122.748 35.424C123.448 35.424 124.036 35.3027 124.512 35.06C124.997 34.808 125.38 34.5233 125.66 34.206C125.949 33.8887 126.145 33.6227 126.248 33.408C126.444 32.9973 126.556 32.5213 126.584 31.98C126.621 31.4293 126.64 30.972 126.64 30.608L127.76 30.888C126.63 31.0747 125.716 31.2333 125.016 31.364C124.316 31.4853 123.751 31.5973 123.322 31.7C122.892 31.8027 122.514 31.9147 122.188 32.036C121.814 32.1853 121.511 32.3487 121.278 32.526C121.054 32.694 120.886 32.8807 120.774 33.086C120.671 33.2913 120.62 33.52 120.62 33.772C120.62 34.1173 120.704 34.416 120.872 34.668C121.049 34.9107 121.296 35.0973 121.614 35.228C121.931 35.3587 122.309 35.424 122.748 35.424ZM131.82 38L137.224 30.356L131.932 22.88H136.412L139.436 27.36L142.404 22.88H146.884L141.592 30.356L147.024 38H142.544L139.436 33.352L136.3 38H131.82Z" fill="#222222"/>
<path d="M149.333 38V34.192H153.141V38H149.333Z" fill="#FF9900"/>
</svg>
