<svg width="21" height="21" viewBox="0 0 21 21" fill="none" xmlns="http://www.w3.org/2000/svg">
<g clip-path="url(#clip0_176_378)">
<path d="M10.4961 0.553711C6.27441 0.553711 2.83984 3.98828 2.83984 8.20996C2.83984 10.2607 4.0823 12.8943 6.5327 16.0372C7.65534 17.4734 8.87109 18.8344 10.1721 20.1112C10.2593 20.1946 10.3754 20.2412 10.4961 20.2412C10.6168 20.2412 10.7328 20.1946 10.8201 20.1112C12.1211 18.8344 13.3369 17.4734 14.4595 16.0372C16.9099 12.8943 18.1523 10.2607 18.1523 8.20996C18.1523 3.98828 14.7178 0.553711 10.4961 0.553711ZM10.4961 19.1127C9.11254 17.7181 3.77734 12.0876 3.77734 8.20996C3.77734 4.50523 6.79137 1.49121 10.4961 1.49121C14.2008 1.49121 17.2148 4.50523 17.2148 8.20996C17.2148 12.0876 11.8796 17.7181 10.4961 19.1127Z" fill="white"/>
<path d="M14.2489 7.55061L10.8114 4.42561C10.7251 4.34717 10.6127 4.30371 10.4961 4.30371C10.3795 4.30371 10.2671 4.34717 10.1808 4.42561L6.74327 7.55061C6.67326 7.61425 6.62416 7.69759 6.6024 7.78966C6.58065 7.88173 6.58727 7.97824 6.62138 8.06648C6.6555 8.15472 6.71552 8.23057 6.79355 8.28407C6.87158 8.33756 6.96397 8.36619 7.05858 8.3662H7.52733V10.7099C7.52733 10.8343 7.57672 10.9535 7.66462 11.0414C7.75253 11.1293 7.87176 11.1787 7.99608 11.1787H9.71483C9.83915 11.1787 9.95838 11.1293 10.0463 11.0414C10.1342 10.9535 10.1836 10.8343 10.1836 10.7099V9.3037H10.8086V10.7099C10.8086 10.8343 10.858 10.9535 10.9459 11.0414C11.0338 11.1293 11.153 11.1787 11.2773 11.1787H12.9961C13.1204 11.1787 13.2396 11.1293 13.3275 11.0414C13.4154 10.9535 13.4648 10.8343 13.4648 10.7099V8.3662H13.9336C14.0282 8.36619 14.1206 8.33756 14.1986 8.28407C14.2766 8.23057 14.3367 8.15472 14.3708 8.06648C14.4049 7.97824 14.4115 7.88173 14.3898 7.78966C14.368 7.69759 14.3189 7.61425 14.2489 7.55061ZM12.5273 7.89745V10.2412H11.7461V8.83495C11.7461 8.71063 11.6967 8.5914 11.6088 8.50349C11.5209 8.41558 11.4016 8.3662 11.2773 8.3662H9.71483C9.59051 8.3662 9.47128 8.41558 9.38337 8.50349C9.29547 8.5914 9.24608 8.71063 9.24608 8.83495V10.2412H8.46483V7.89745C8.46485 7.81172 8.44136 7.72763 8.39692 7.65432C8.35247 7.58101 8.28878 7.52129 8.21276 7.48167L10.4961 5.40592L12.7794 7.48167C12.7034 7.52129 12.6397 7.58101 12.5952 7.65432C12.5508 7.72763 12.5273 7.81172 12.5273 7.89745Z" fill="white"/>
</g>
<defs>
<clipPath id="clip0_176_378">
<rect width="20" height="20" fill="white" transform="translate(0.496094 0.397461)"/>
</clipPath>
</defs>
</svg>
