<svg width="21" height="21" viewBox="0 0 21 21" fill="none" xmlns="http://www.w3.org/2000/svg">
<g clip-path="url(#clip0_176_323)">
<path d="M17.4609 2.60477H16.0681C16.0681 1.83684 15.4432 1.21191 14.6752 1.21191C13.9073 1.21191 13.2824 1.83684 13.2824 2.60477H7.71094C7.71094 1.83684 7.08601 1.21191 6.31808 1.21191C5.55015 1.21191 4.92522 1.83684 4.92522 2.60477H3.53237C2.25233 2.60477 1.21094 3.64616 1.21094 4.9262V18.3905C1.21094 19.6705 2.25233 20.7119 3.53237 20.7119H17.4609C18.741 20.7119 19.7824 19.6705 19.7824 18.3905V4.9262C19.7824 3.64616 18.741 2.60477 17.4609 2.60477ZM14.2109 2.60477C14.2109 2.34895 14.4189 2.14049 14.6752 2.14049C14.9315 2.14049 15.1395 2.34895 15.1395 2.60477V3.53334C15.1395 3.78916 14.9315 3.99763 14.6752 3.99763C14.4189 3.99763 14.2109 3.78916 14.2109 3.53334V2.60477ZM5.8538 2.60477C5.8538 2.34895 6.0618 2.14049 6.31808 2.14049C6.57437 2.14049 6.78237 2.34895 6.78237 2.60477V3.53334C6.78237 3.78916 6.57437 3.99763 6.31808 3.99763C6.0618 3.99763 5.8538 3.78916 5.8538 3.53334V2.60477ZM2.13951 4.9262C2.13951 4.15827 2.76444 3.53334 3.53237 3.53334H4.92522C4.92522 4.30127 5.55015 4.9262 6.31808 4.9262C7.08601 4.9262 7.71094 4.30127 7.71094 3.53334H13.2824C13.2824 4.30127 13.9073 4.9262 14.6752 4.9262C15.4432 4.9262 16.0681 4.30127 16.0681 3.53334H17.4609C18.2289 3.53334 18.8538 4.15827 18.8538 4.9262V6.78334H2.13951V4.9262ZM18.8538 18.3905C18.8538 19.1584 18.2289 19.7833 17.4609 19.7833H3.53237C2.76444 19.7833 2.13951 19.1584 2.13951 18.3905V7.71191H18.8538V18.3905Z" fill="white"/>
<path d="M4.92467 12.8193H6.31752C6.82963 12.8193 7.24609 12.4029 7.24609 11.8908V10.4979C7.24609 9.9858 6.82963 9.56934 6.31752 9.56934H4.92467C4.41256 9.56934 3.99609 9.9858 3.99609 10.4979V11.8908C3.99609 12.4029 4.41256 12.8193 4.92467 12.8193ZM4.92467 10.4979H6.31752L6.31845 11.8908H4.92467V10.4979Z" fill="white"/>
<path d="M9.79967 12.8193H11.1925C11.7046 12.8193 12.1211 12.4029 12.1211 11.8908V10.4979C12.1211 9.9858 11.7046 9.56934 11.1925 9.56934H9.79967C9.28756 9.56934 8.87109 9.9858 8.87109 10.4979V11.8908C8.87109 12.4029 9.28756 12.8193 9.79967 12.8193ZM9.79967 10.4979H11.1925L11.1935 11.8908H9.79967V10.4979Z" fill="white"/>
<path d="M14.6747 12.8193H16.0675C16.5796 12.8193 16.9961 12.4029 16.9961 11.8908V10.4979C16.9961 9.9858 16.5796 9.56934 16.0675 9.56934H14.6747C14.1626 9.56934 13.7461 9.9858 13.7461 10.4979V11.8908C13.7461 12.4029 14.1626 12.8193 14.6747 12.8193ZM14.6747 10.4979H16.0675L16.0685 11.8908H14.6747V10.4979Z" fill="white"/>
<path d="M4.92467 17.9263H6.31752C6.82963 17.9263 7.24609 17.5098 7.24609 16.9977V15.6048C7.24609 15.0927 6.82963 14.6763 6.31752 14.6763H4.92467C4.41256 14.6763 3.99609 15.0927 3.99609 15.6048V16.9977C3.99609 17.5098 4.41256 17.9263 4.92467 17.9263ZM4.92467 15.6048H6.31752L6.31845 16.9977H4.92467V15.6048Z" fill="white"/>
<path d="M9.79967 17.9263H11.1925C11.7046 17.9263 12.1211 17.5098 12.1211 16.9977V15.6048C12.1211 15.0927 11.7046 14.6763 11.1925 14.6763H9.79967C9.28756 14.6763 8.87109 15.0927 8.87109 15.6048V16.9977C8.87109 17.5098 9.28756 17.9263 9.79967 17.9263ZM9.79967 15.6048H11.1925L11.1935 16.9977H9.79967V15.6048Z" fill="white"/>
<path d="M14.6747 17.9263H16.0675C16.5796 17.9263 16.9961 17.5098 16.9961 16.9977V15.6048C16.9961 15.0927 16.5796 14.6763 16.0675 14.6763H14.6747C14.1626 14.6763 13.7461 15.0927 13.7461 15.6048V16.9977C13.7461 17.5098 14.1626 17.9263 14.6747 17.9263ZM14.6747 15.6048H16.0675L16.0685 16.9977H14.6747V15.6048Z" fill="white"/>
</g>
<defs>
<clipPath id="clip0_176_323">
<rect width="20" height="20" fill="white" transform="translate(0.496094 0.961914)"/>
</clipPath>
</defs>
</svg>
