<svg width="21" height="21" viewBox="0 0 21 21" fill="none" xmlns="http://www.w3.org/2000/svg">
<g clip-path="url(#clip0_186_1601)">
<path d="M18.7104 13.2807H17.9961V11.495C17.9961 10.5128 17.1925 9.70926 16.2104 9.70926H10.8532V7.56641H11.5675C12.5497 7.56641 13.3532 6.76284 13.3532 5.78069V4.35212C13.3532 3.36998 12.5497 2.56641 11.5675 2.56641H9.42467C8.44252 2.56641 7.63895 3.36998 7.63895 4.35212V5.78069C7.63895 6.76284 8.44252 7.56641 9.42467 7.56641H10.139V9.70926H4.78181C3.79967 9.70926 2.99609 10.5128 2.99609 11.495V13.2807H2.28181C1.29967 13.2807 0.496094 14.0843 0.496094 15.0664V16.495C0.496094 17.4771 1.29967 18.2807 2.28181 18.2807H4.42467C5.40681 18.2807 6.21038 17.4771 6.21038 16.495V15.0664C6.21038 14.0843 5.40681 13.2807 4.42467 13.2807H3.71038V11.495C3.71038 10.9057 4.19252 10.4235 4.78181 10.4235H10.139V13.2807H9.42467C8.44252 13.2807 7.63895 14.0843 7.63895 15.0664V16.495C7.63895 17.4771 8.44252 18.2807 9.42467 18.2807H11.5675C12.5497 18.2807 13.3532 17.4771 13.3532 16.495V15.0664C13.3532 14.0843 12.5497 13.2807 11.5675 13.2807H10.8532V10.4235H16.2104C16.7997 10.4235 17.2818 10.9057 17.2818 11.495V13.2807H16.5675C15.5854 13.2807 14.7818 14.0843 14.7818 15.0664V16.495C14.7818 17.4771 15.5854 18.2807 16.5675 18.2807H18.7104C19.6925 18.2807 20.4961 17.4771 20.4961 16.495V15.0664C20.4961 14.0843 19.6925 13.2807 18.7104 13.2807ZM4.42467 13.995C5.01395 13.995 5.49609 14.4771 5.49609 15.0664V16.495C5.49609 17.0843 5.01395 17.5664 4.42467 17.5664H2.28181C1.69252 17.5664 1.21038 17.0843 1.21038 16.495V15.0664C1.21038 14.4771 1.69252 13.995 2.28181 13.995H4.42467ZM11.5675 13.995C12.1568 13.995 12.639 14.4771 12.639 15.0664V16.495C12.639 17.0843 12.1568 17.5664 11.5675 17.5664H9.42467C8.83538 17.5664 8.35324 17.0843 8.35324 16.495V15.0664C8.35324 14.4771 8.83538 13.995 9.42467 13.995H11.5675ZM9.42467 6.85212C8.83538 6.85212 8.35324 6.36998 8.35324 5.78069V4.35212C8.35324 3.76283 8.83538 3.28069 9.42467 3.28069H11.5675C12.1568 3.28069 12.639 3.76283 12.639 4.35212V5.78069C12.639 6.36998 12.1568 6.85212 11.5675 6.85212H9.42467ZM19.7818 16.495C19.7818 17.0843 19.2997 17.5664 18.7104 17.5664H16.5675C15.9782 17.5664 15.4961 17.0843 15.4961 16.495V15.0664C15.4961 14.4771 15.9782 13.995 16.5675 13.995H18.7104C19.2997 13.995 19.7818 14.4771 19.7818 15.0664V16.495Z" fill="white"/>
</g>
<defs>
<clipPath id="clip0_186_1601">
<rect width="20" height="20" fill="white" transform="translate(0.496094 0.42334)"/>
</clipPath>
</defs>
</svg>
