<svg width="21" height="21" viewBox="0 0 21 21" fill="none" xmlns="http://www.w3.org/2000/svg">
<path d="M4.12921 4.3794L4.71124 5.58252L6.03155 5.76221C6.29327 5.79737 6.38702 6.12158 6.20733 6.29346L5.24249 7.21924L5.48077 8.53174C5.52765 8.78955 5.25421 8.98487 5.02765 8.85987L3.85186 8.22705L2.67608 8.85987C2.44952 8.98096 2.16436 8.79346 2.22686 8.51221L2.46124 7.21534L1.4964 6.28955C1.3089 6.10987 1.41046 5.78955 1.67608 5.7544L2.99249 5.57471L3.57452 4.37159C3.6839 4.14112 4.01983 4.14502 4.12921 4.3794ZM4.22296 6.0044L3.85186 5.23096L3.47686 6.0044C3.4339 6.09424 3.34405 6.16455 3.23858 6.18018L2.39093 6.29346L3.01202 6.88721C3.08233 6.95752 3.12139 7.05909 3.10186 7.16455L2.94952 8.0083L3.69952 7.60596C3.78936 7.55909 3.90265 7.55127 3.9964 7.60596L4.7503 8.01221L4.60186 7.18409C4.57843 7.08252 4.60577 6.96924 4.6878 6.88721L5.3089 6.29346L4.46905 6.18018C4.36749 6.16846 4.26983 6.10205 4.22296 6.0044ZM10.7776 1.54737L11.3597 2.75049L12.6839 2.93018C12.9456 2.96534 13.0394 3.28955 12.8597 3.46534L11.8948 4.39112L12.1331 5.70362C12.18 5.96143 11.9066 6.15674 11.68 6.03174L10.4964 5.39893L9.32061 6.03174C9.09405 6.15283 8.80889 5.96533 8.87139 5.68408L9.10577 4.38721L8.13702 3.46143C7.94952 3.28174 8.05108 2.96143 8.31671 2.92627L9.63311 2.74659L10.2151 1.54737C10.3323 1.30909 10.6644 1.31299 10.7776 1.54737ZM10.8714 3.17237L10.4964 2.39893L10.1253 3.17237C10.0823 3.26221 9.99249 3.33252 9.88702 3.34815L9.03546 3.46143L9.65655 4.05518C9.73077 4.12549 9.76593 4.22705 9.7464 4.33252L9.59405 5.17627L10.348 4.77393C10.4378 4.72705 10.5472 4.71924 10.6448 4.77393L11.3987 5.18018L11.2503 4.35205C11.2269 4.25049 11.2542 4.13721 11.3362 4.05518L11.9573 3.46143L11.1175 3.34424C11.012 3.33643 10.9183 3.27002 10.8714 3.17237ZM17.4222 4.3794L18.0042 5.58252L19.3245 5.76221C19.5862 5.79737 19.6839 6.12158 19.5003 6.29346L18.5355 7.21924L18.7737 8.53174C18.8206 8.78955 18.5472 8.98487 18.3206 8.85987L17.1448 8.22705L15.9691 8.85987C15.7425 8.98096 15.4573 8.79346 15.5159 8.51221L15.7503 7.21534L14.7855 6.28955C14.598 6.10987 14.6995 5.78955 14.9651 5.7544L16.2816 5.57471L16.8636 4.37159C16.9769 4.14112 17.3128 4.14502 17.4222 4.3794ZM17.5159 6.0044L17.1448 5.23096L16.7698 6.0044C16.7269 6.09424 16.6409 6.16455 16.5316 6.18018L15.6839 6.29346L16.3011 6.88721C16.3714 6.95752 16.4105 7.05909 16.3909 7.16455L16.2386 8.0083L16.9925 7.60596C17.0823 7.55909 17.1956 7.55127 17.2894 7.60596L18.0472 8.01221L17.8987 7.18409C17.8753 7.08252 17.9026 6.96924 17.9847 6.88721L18.6019 6.29346L17.762 6.18018C17.6605 6.16846 17.5628 6.10205 17.5159 6.0044ZM9.04718 12.356C8.96124 12.2075 9.01202 12.0161 9.16046 11.9302C9.3089 11.8442 9.5003 11.895 9.58624 12.0435L9.9964 12.7544L11.4534 11.2974C11.5745 11.1763 11.7737 11.1763 11.8948 11.2974C12.0159 11.4185 12.0159 11.6177 11.8948 11.7388L10.1487 13.4849C10.0042 13.6294 9.76202 13.5981 9.66046 13.4224L9.04718 12.356ZM10.4964 9.05518C12.1956 9.05518 13.5745 10.4341 13.5745 12.1333C13.5745 13.8325 12.1956 15.2114 10.4964 15.2114C8.79718 15.2114 7.41827 13.8325 7.41827 12.1333C7.41827 10.4341 8.79718 9.05518 10.4964 9.05518ZM12.2308 10.3989C11.2737 9.4419 9.71905 9.4419 8.76202 10.3989C7.80499 11.356 7.80499 12.9106 8.76202 13.8677C9.71905 14.8247 11.2737 14.8247 12.2308 13.8677C13.1878 12.9067 13.1878 11.356 12.2308 10.3989ZM10.4964 7.12158C13.262 7.12158 15.5042 9.36377 15.5042 12.1294C15.5042 13.1763 15.1839 14.1489 14.6331 14.9536L16.1292 17.5435C16.2737 17.7856 16.0745 18.0591 15.8167 18.02L14.2855 17.7778L13.4651 18.7856C13.3206 18.9731 13.0511 18.9419 12.9456 18.7544L11.8987 16.9419C10.9847 17.2075 10.0042 17.2075 9.09405 16.9419L8.04718 18.7544C7.94171 18.9419 7.67218 18.9731 7.52765 18.7856L6.70733 17.7778L5.17608 18.02C4.91436 18.063 4.73077 17.7778 4.85577 17.5552L6.35968 14.9536C5.0003 12.9653 5.25421 10.2896 6.95733 8.58643C7.85968 7.68408 9.11358 7.12158 10.4964 7.12158ZM14.2191 15.481C13.7425 16.0122 13.1566 16.438 12.4925 16.7271L13.2581 18.0513L13.9144 17.2466C13.9886 17.1528 14.1019 17.1177 14.2112 17.1372L15.2659 17.3052L14.2191 15.481ZM8.4964 16.7271C7.83624 16.438 7.2503 16.0122 6.77374 15.4849L5.72296 17.3052L6.77765 17.1372C6.88311 17.1177 7.0003 17.1567 7.07452 17.2466L7.73077 18.0513L8.4964 16.7271ZM13.598 9.03174C11.887 7.3208 9.10968 7.3208 7.39874 9.03174C5.6878 10.7427 5.6878 13.52 7.39874 15.231C9.11358 16.9419 11.887 16.9419 13.598 15.231C15.3089 13.52 15.3089 10.7427 13.598 9.03174Z" fill="white"/>
</svg>
