<svg width="21" height="21" viewBox="0 0 21 21" fill="none" xmlns="http://www.w3.org/2000/svg">
<g clip-path="url(#clip0_176_336)">
<path d="M18.343 0.244141H10.7529C10.5975 0.244141 10.4485 0.305939 10.3386 0.415801L1.12552 9.62857C0.286286 10.4681 0.286286 11.8339 1.12552 12.6732L8.06687 19.6144C8.47214 20.0196 9.01276 20.2429 9.58893 20.243H9.58908C10.1654 20.243 10.706 20.0196 11.1114 19.6142L20.3242 10.4013C20.4341 10.2914 20.4959 10.1423 20.4959 9.987L20.496 2.39684C20.4959 1.20987 19.53 0.244141 18.343 0.244141ZM19.324 9.74439L10.2827 18.7857C10.0987 18.9698 9.8523 19.0711 9.58908 19.0711C9.32572 19.0711 9.07944 18.9698 8.89542 18.7858L1.95407 11.8446C1.57168 11.4622 1.57168 10.8397 1.95407 10.4571L10.9955 1.41601H18.343C18.8839 1.41601 19.3242 1.85607 19.3242 2.397L19.324 9.74439Z" fill="white"/>
<path d="M15.3314 3.56738C14.8396 3.56738 14.3772 3.75903 14.0295 4.10678C13.6817 4.45437 13.4902 4.91671 13.4902 5.4085C13.4902 5.90029 13.6817 6.36263 14.0295 6.71038C14.3772 7.05813 14.8396 7.24962 15.3314 7.24962C15.823 7.24962 16.2853 7.05813 16.6331 6.71038C16.9808 6.36263 17.1723 5.90029 17.1723 5.4085C17.1723 4.91671 16.9808 4.45437 16.6332 4.10678C16.2855 3.75903 15.8231 3.56738 15.3314 3.56738ZM15.8045 5.88168C15.6782 6.00817 15.51 6.07775 15.3314 6.07775C15.1525 6.07775 14.9845 6.00817 14.8582 5.88168C14.7317 5.75533 14.6621 5.58718 14.6621 5.4085C14.6621 5.22982 14.7317 5.06167 14.8582 4.93533C14.9845 4.80883 15.1527 4.73925 15.3314 4.73925C15.51 4.73925 15.678 4.80883 15.8045 4.93533C15.931 5.06167 16.0006 5.22982 16.0006 5.4085C16.0006 5.58718 15.9309 5.75533 15.8045 5.88168Z" fill="white"/>
</g>
<defs>
<clipPath id="clip0_176_336">
<rect width="20" height="20" fill="white" transform="translate(0.496094 0.244141)"/>
</clipPath>
</defs>
</svg>
