<svg width="21" height="21" viewBox="0 0 21 21" fill="none" xmlns="http://www.w3.org/2000/svg">
<g clip-path="url(#clip0_176_364)">
<path d="M15.96 14.3871C15.9716 12.8049 15.3461 11.5535 14.0985 10.6698C13.1349 9.98937 11.9656 9.63445 10.8345 9.29339C8.47847 8.57912 7.79499 8.2029 7.79499 7.07619C7.79499 5.82116 9.42601 5.37462 10.8223 5.37462C11.8391 5.37462 13.009 5.69078 13.7356 6.15933L15.176 3.92856C14.2264 3.31299 12.9268 2.89311 11.6436 2.76279V0.679688H8.98648V2.90886C6.62456 3.42845 5.13668 4.97214 5.13668 7.07619C5.13668 8.54974 5.749 9.71834 6.95317 10.5426C7.86903 11.1718 8.98601 11.5097 10.065 11.8368C12.376 12.5354 13.3145 12.961 13.3038 14.3707L13.3037 14.3811C13.3037 15.5642 11.7358 15.9848 10.3925 15.9848C9.12359 15.9848 7.74373 15.4287 6.96155 14.6019L5.03125 16.4278C6.0218 17.4754 7.46096 18.2161 8.98642 18.5064V20.6797H11.6436V18.5532C14.2681 18.1775 15.9574 16.5974 15.96 14.3871Z" fill="white"/>
</g>
<defs>
<clipPath id="clip0_176_364">
<rect width="20" height="20" fill="white" transform="translate(0.496094 0.679688)"/>
</clipPath>
</defs>
</svg>
