<svg width="21" height="21" viewBox="0 0 21 21" fill="none" xmlns="http://www.w3.org/2000/svg">
<g clip-path="url(#clip0_158_1525)">
<path d="M6.74609 11.3563C6.00441 11.3563 5.27939 11.1364 4.6627 10.7243C4.04602 10.3122 3.56537 9.72657 3.28155 9.04135C2.99772 8.35612 2.92345 7.60213 3.06815 6.8747C3.21284 6.14727 3.57 5.47908 4.09444 4.95463C4.61889 4.43019 5.28708 4.07303 6.0145 3.92834C6.74193 3.78365 7.49593 3.85791 8.18116 4.14174C8.86638 4.42557 9.45205 4.90621 9.8641 5.5229C10.2762 6.13958 10.4961 6.8646 10.4961 7.60629C10.495 8.60051 10.0995 9.5537 9.39653 10.2567C8.6935 10.9597 7.74032 11.3552 6.74609 11.3563ZM6.74609 5.52295C6.33405 5.52295 5.93126 5.64514 5.58866 5.87406C5.24605 6.10298 4.97903 6.42835 4.82134 6.80903C4.66366 7.18971 4.62241 7.6086 4.70279 8.01272C4.78318 8.41685 4.9816 8.78806 5.27295 9.07942C5.56431 9.37078 5.93553 9.5692 6.33966 9.64959C6.74378 9.72997 7.16267 9.68872 7.54335 9.53103C7.92403 9.37335 8.2494 9.10633 8.47832 8.76372C8.70724 8.42112 8.82943 8.01833 8.82943 7.60629C8.82943 7.05375 8.60993 6.52385 8.21923 6.13315C7.82853 5.74244 7.29863 5.52295 6.74609 5.52295ZM12.9961 19.6896V19.273C12.9961 17.6153 12.3376 16.0256 11.1655 14.8535C9.99341 13.6814 8.4037 13.023 6.74609 13.023C5.08849 13.023 3.49878 13.6814 2.32668 14.8535C1.15457 16.0256 0.496094 17.6153 0.496094 19.273L0.496094 19.6896C0.496094 19.9106 0.583891 20.1226 0.740171 20.2789C0.896452 20.4352 1.10841 20.523 1.32943 20.523C1.55044 20.523 1.7624 20.4352 1.91868 20.2789C2.07496 20.1226 2.16276 19.9106 2.16276 19.6896V19.273C2.16276 18.0574 2.64565 16.8916 3.50519 16.032C4.36473 15.1725 5.53052 14.6896 6.74609 14.6896C7.96167 14.6896 9.12746 15.1725 9.987 16.032C10.8465 16.8916 11.3294 18.0574 11.3294 19.273V19.6896C11.3294 19.9106 11.4172 20.1226 11.5735 20.2789C11.7298 20.4352 11.9417 20.523 12.1628 20.523C12.3838 20.523 12.5957 20.4352 12.752 20.2789C12.9083 20.1226 12.9961 19.9106 12.9961 19.6896ZM20.4961 15.523C20.4961 14.3969 20.1701 13.2948 19.5575 12.3499C18.9449 11.405 18.072 10.6576 17.044 10.1979C16.016 9.73824 14.8769 9.58594 13.7642 9.7594C12.6516 9.93286 11.6129 10.4247 10.7736 11.1755C10.6909 11.2481 10.6234 11.3364 10.5751 11.4353C10.5267 11.5342 10.4984 11.6417 10.4918 11.7516C10.4852 11.8615 10.5005 11.9716 10.5367 12.0756C10.5729 12.1795 10.6294 12.2753 10.7028 12.3573C10.7762 12.4393 10.8652 12.506 10.9645 12.5534C11.0639 12.6009 11.1716 12.6281 11.2816 12.6337C11.3915 12.6393 11.5015 12.623 11.6051 12.5858C11.7087 12.5486 11.8039 12.4913 11.8853 12.4171C12.4848 11.881 13.2267 11.5298 14.0214 11.406C14.8162 11.2822 15.6297 11.3911 16.3639 11.7195C17.0982 12.0478 17.7216 12.5817 18.1591 13.2566C18.5966 13.9315 18.8294 14.7186 18.8294 15.523C18.8294 15.744 18.9172 15.9559 19.0735 16.1122C19.2298 16.2685 19.4417 16.3563 19.6628 16.3563C19.8838 16.3563 20.0957 16.2685 20.252 16.1122C20.4083 15.9559 20.4961 15.744 20.4961 15.523ZM15.0794 8.02295C14.3377 8.02295 13.6127 7.80302 12.996 7.39096C12.3794 6.97891 11.8987 6.39324 11.6149 5.70801C11.331 5.02279 11.2568 4.26879 11.4015 3.54136C11.5462 2.81393 11.9033 2.14575 12.4278 1.6213C12.9522 1.09685 13.6204 0.739701 14.3478 0.595006C15.0753 0.450312 15.8293 0.524574 16.5145 0.808403C17.1997 1.09223 17.7854 1.57288 18.1974 2.18956C18.6095 2.80625 18.8294 3.53127 18.8294 4.27295C18.8283 5.26717 18.4329 6.22036 17.7299 6.92338C17.0268 7.62641 16.0737 8.02185 15.0794 8.02295ZM15.0794 2.18962C14.6674 2.18962 14.2646 2.3118 13.922 2.54072C13.5794 2.76964 13.3124 3.09501 13.1547 3.47569C12.997 3.85637 12.9557 4.27526 13.0361 4.67939C13.1165 5.08352 13.3149 5.45473 13.6063 5.74609C13.8976 6.03745 14.2689 6.23587 14.673 6.31625C15.0771 6.39664 15.496 6.35538 15.8767 6.1977C16.2574 6.04002 16.5827 5.77299 16.8117 5.43039C17.0406 5.08779 17.1628 4.685 17.1628 4.27295C17.1628 3.72042 16.9433 3.19051 16.5526 2.79981C16.1619 2.40911 15.632 2.18962 15.0794 2.18962Z" fill="white"/>
</g>
<defs>
<clipPath id="clip0_158_1525">
<rect width="20" height="20" fill="white" transform="translate(0.496094 0.522949)"/>
</clipPath>
</defs>
</svg>
